<!--?xml version="1.0" encoding="utf-8"?-->
<!-- Generator: Adobe Illustrator 22.1.0, SVG Export Plug-In . SVG Version: 6.00 Build 0)  -->
<svg version="1.1" id="_x33_" xmlns="http://www.w3.org/2000/svg" xmlns:xlink="http://www.w3.org/1999/xlink" x="0px" y="0px" viewBox="0 0 538.522 800" style="enable-background:new 0 0 538.522 800;" xml:space="preserve">
<style type="text/css">
	.st0{fill:#040000;}
</style>
<g>
	<path class="st0" d="M516.884,393.964c54.814-109.621,0-378.698-181.793-363.766C115.847-69.463,12.863,123.213,6.219,173.041
		c-4.555,34.148,4.935,52.116,16.709,68.993c0.696,34.523,10.463,56.15,14.66,74.322c-5.457,3.276-21.387,10.857-36.242-1.285
		c4.904,16.309,36.929,16.601,38.095,16.611c-0.072,3.599-0.553,7.171-1.67,10.796c-4.975,16.196-15.663,34.88-26.464,47.334
		c-11.528,13.314-4.034,30.729,15.059,31.558c20.527,0.89,22.432,19.933,17.446,27.406c-4.986,7.474,2.498,20.768,9.972,23.261
		c-2.498,2.488-4.986,19.094,7.463,21.587c12.458,2.493,10.78,10.831,14.844,19.932c6.112,13.704,11.384,27.714,54.803,24.914
		c38.628-2.488,74.112-10.11,91.056-14.947c8.723-2.493,26.168,61.038,23.67,75.99c-4.986,29.895-63.116,78.484-89.694,111.7
		C120.024,756.102,109.847,798,122.296,798c12.46,0,78.483-38.616,143.259-53.564c64.784-14.947,209.281-56.477,215.517-88.865
		c0.931-4.873-0.133-10.744-2.55-17.302c35.045-27.151,23.414-69.899,23.414-69.899s34.881-9.966,29.895-29.899
		C506.922,533.49,462.07,503.59,516.884,393.964z"></path>
</g>
</svg>
