<!--?xml version="1.0" encoding="utf-8"?-->
<!-- Generator: Adobe Illustrator 22.1.0, SVG Export Plug-In . SVG Version: 6.00 Build 0)  -->
<svg version="1.1" id="_x36_" xmlns="http://www.w3.org/2000/svg" xmlns:xlink="http://www.w3.org/1999/xlink" x="0px" y="0px" viewBox="0 0 697.522 800" style="enable-background:new 0 0 697.522 800;" xml:space="preserve">
<style type="text/css">
	.st0{fill:#040000;}
</style>
<g>
	<path class="st0" d="M462.114,671.99c0,0-41.333-22.317-63.64-64.47c-27.44-51.814-25.891-89.033-20.677-100.837
		c25.627-57.86,115.22-137.614,134.736-226.467c22.327-101.663-37.199-252.918-213.247-247.959
		C122.606,37.238,45.298,165.266,55.463,232.277c8.271,54.555,1.65,79.346-33.062,119.024c-18.477,21.109,1.65,33.062,9.92,38.017
		c8.251,4.961,13.221,24.792,4.95,33.058c-8.25,8.27,0,13.225,6.621,18.186c6.6,4.961-6.968,18.712,0,23.147
		c18.192,11.565,9.9,31.407,11.571,44.628c1.65,13.225,13.608,34.213,61.155,18.181c76.045-25.621,104.158,41.328,122.329,100.843
		c18.191,59.509-63.64,156.206-63.64,156.206c-34.712,39.674,126.465-12.395,190.941-37.192
		C401.631,732.758,483.604,694.312,462.114,671.99z"></path>
	<path class="st0" d="M63.734,265.335c0,0-37.199,17.362-61.99,14.881c0,0,24.791,19.836,59.505,17.356L63.734,265.335z"></path>
	<path class="st0" d="M133.159,47.133C73.654,44.653,1.744,104.162,14.129,161.197c12.406,57.029,99.188,64.465,99.188,64.465
		s-19.842-29.751,2.485-47.108c0,0,66.94,42.153,166.128,57.029l24.791,94.222c0,0,14.892-71.906,52.069-79.345
		c37.197-7.435,32.247,54.548-12.386,111.583l61.99,79.345c0,0,161.177-153.736,104.138-287.631
		C455.513,19.862,324.078-49.569,133.159,47.133z"></path>
	<path class="st0" d="M393.523,42.172c66.94-2.48,118.133-71.671,218.196-14.875c91.732,52.073,121.495,176.882,22.307,324.823
		c-80.446,119.986-19.821,188.449,17.357,233.083c0,0-82.096,24.313-133.88-49.594c-61.989-88.431,9.086-214.066,37.178-303.332
		c43.105-136.869-107.438-128.934-107.438-128.934L393.523,42.172z"></path>
</g>
</svg>
