<!--?xml version="1.0" encoding="utf-8"?-->
<!-- Generator: Adobe Illustrator 22.1.0, SVG Export Plug-In . SVG Version: 6.00 Build 0)  -->
<svg version="1.1" id="_x35_" xmlns="http://www.w3.org/2000/svg" xmlns:xlink="http://www.w3.org/1999/xlink" x="0px" y="0px" viewBox="0 0 694.893 800" style="enable-background:new 0 0 694.893 800;" xml:space="preserve">
<style type="text/css">
	.st0{fill:#1D1D1D;}
</style>
<g>
	<path class="st0" d="M633.788,143.817c-4.752,0-47.877,5.481-53.42,9.425c-5.539,3.955-13.198,29.506-18.737,33.48
		c-5.542,3.954-29.203,18.86-32.37,18.074c-3.172-0.788-3.955-2.381-6.331-2.381c-2.375,0-22.172,3.974-22.172,3.974
		s-5.553-1.593-7.919-1.593c-2.381,0-86.313,12.669-97.406,13.466c-11.086,0.777-12.664-1.593-23.751,0.777
		c-11.091,2.39-35.639,1.603-42.765,0.797c-5.289-0.576-13.203-2.909-20.498-5.058c-6.528-13.092-11.639-23.045-11.639-23.045
		l6.522-21.079l-3.681-2.677c0,0,1.67-2.678,1.002-3.685c-0.662-0.999,0.336-8.024,0.336-11.048c0-3.004,3.686-11.355,5.352-15.386
		c1.675-4.002,18.731-14.378,24.428-18.074c5.692-3.666,3.018-10.365,0.672-12.707c-2.342-2.342-7.027-8.351-6.369-9.359
		c0.677-1.017,0.341-5.702-1.329-5.702c-1.675,0-3.682-0.661-2.678-2.015c1.003-1.325,1.675-4.665-0.668-5
		c-2.342-0.356-5.355-7.036-5.355-7.036s3.013-3.351,5.702-5.702c2.669-2.332,3-7.343,0-8.024
		c-3.023-0.662-15.737-8.36-17.743-9.032c-2.011-0.662-5.687-4.675-5.687-6.345c0-1.689-2.687-5.029-5.029-7.371
		c-2.338-2.342-20.07-14.387-20.07-14.387s2.342-14.378-3.681-21.079c0,2.016-3.35,3.35-3.35,3.35L264.494,2
		c0,0-8.706,10.031-13.385,11.384c-4.684,1.335-50.195,8.025-65.581,31.454c-15.406,23.422-12.723,41.494-12.723,41.494
		s2.678,23.411,5.356,29.438c2.673,6.028,26.765,24.102,34.131,28.776c7.358,4.684,16.721,8.024,16.721,10.712
		c0,2.678,0,2.678,0,2.678l-10.03,2.669l-10.708,20.752c0,0-32.12,62.908-17.402,123.148c11.835,48.385,4.012,103.058,4.012,103.058
		s-25.426,53.541-20.07,89.688c5.352,36.138,8.029,66.911,8.029,66.911l25.431-2.678c0,0,12.046,44.163,14.724,49.519
		c2.683,5.355-6.695,68.273-6.695,68.273s-64.247-16.058-70.932-18.746c-6.699-2.677-46.85-10.701-52.211-9.358
		c-0.829,0.202-1.627,2.266-2.394,5.625c-2.52-0.73-4.516-1.497-5.299-2.294c-3.008-3.014-26.098-10.03-26.098-10.03
		s-3.014-10.04-7.025-11.038c-4.017-1.017-21.083-6.028-26.103-4.012c-6.023-4.022-14.052-3.033-19.072-3.033
		s-7.025,48.194-4.022,50.219c3.023,1.987,9.041,2.995,8.034,6.009c-0.998,3.014-6.023,22.086-7.02,32.126
		c-1.014,10.04,19.072,45.17,23.084,47.186c4.017,2.006,27.111,7.025,31.123,4.002c4.017-3.005,6.023-4.002,0-9.013
		c-6.023-5.039-16.068-18.083-18.069-21.097c-2.011-3.014,1.008-8.024-1.008-11.038c-2.006-3.015,4.017-5.021,4.017-5.021
		s20.079-11.037,23.094-15.059c3.004-4.012,8.03-6.028,8.03-6.028l1.002-6.008l10.616,4.242c-1.42,18.247-2.256,35.409-2.256,37.233
		c0,4.021,21.424,8.034,21.424,8.034s165.966,25.436,178.007,24.101c12.051-1.334,25.426-36.147,24.097-54.893
		c-1.344-18.727,9.363-132.497,9.363-132.497s1.723-3.58,4.363-9.243c8.106,0.431,25.488,0.94,39.588-1.287
		c19.063-3.004,13.045,6.038,11.034,9.033c-2.006,3.013,9.031,2.015,4.012,8.024c-5.015,6.037-15.046,50.218-17.057,55.219
		c-2.011,5.03-26.102,76.298-26.102,76.298s4.04,3.283,8.83,6.691c-1.526,5.644-3.638,12.449-4.818,12.046
		c-2.002-0.662-8.03-3.35-8.697-1.325c-0.672,1.996-8.706,34.795-7.362,42.147c-2.678,7.361-1.344,14.723,0.667,15.405
		c2.006,0.671,38.14,6.681,40.818,1.996c2.683-4.684,7.367-8.697,7.367-8.697s22.748,4.022,32.788,9.359
		c10.045,5.366,42.833,2.687,47.522,3.35c4.684,0.672,19.403-8.687,22.086-11.374c2.672-2.678,1.329-9.368-5.357-10.703
		c-6.69-1.334-37.482-3.35-42.161-4.675c-4.684-1.362-8.029-6.037-9.364-8.034c-1.348-2.015-20.084-25.445-20.757-30.8
		c-0.662-5.337-6.023,0.681-6.023,0.681s-0.791-1.871-0.882-4.924c10.27-1.324,19.47-2.677,21.635-3.12
		c5.015-0.989,27.106,3.005,27.106,3.005s3.004-30.1,5.015-42.157c2.006-12.036,32.121-130.49,36.138-163.614
		c4.017-33.144-22.091-41.168-36.138-42.176c-10.87-0.768-61.367,2.659-85.08,3.311c5.529-5.739,13.035-7.496,13.035-7.496
		s-18.737-42.829-21.415-52.207c-2.677-9.368-9.373-53.53-9.373-53.53s1.733-47.358-0.13-76.979c1.69,0.298,3.096,0.538,4.147,0.681
		c11.086,1.575,63.614-2.677,68.361-4.27c4.756-1.574,104.527-24.534,106.908-26.924c2.371-2.381,0-10.29,0-10.29
		s20.579-8.705,21.38-11.882c3.168-1.585,20.585-7.132,22.96-8.707c2.37-1.573,22.172-13.457,29.299-15.05
		c7.127-1.585,39.598-20.58,38.009-26.137c7.127-6.326,1.588-13.458,1.588-13.458c3.955-3.954,4.747-12.659,0.787-13.447
		c0.792-2.39-1.593-7.142-1.593-7.142l7.929-3.158c0,0,7.923,0.778,7.923-4.76C645.67,143.031,638.544,143.817,633.788,143.817z"></path>
	<path class="st0" d="M598.571,203.808c0,0-10.294,33.555-12.19,37.75c-1.915,4.195-8.783,22.134-11.067,24.793
		c-2.284,2.668-1.152,7.237,0.763,7.62c1.906,0.384,6.479-8.005,7.626-9.905c1.143-1.91,17.926-44.633,19.073-58.723
		L598.571,203.808z"></path>
	<path class="st0" d="M608.496,201.897c0,0,1.137,69.416-2.674,75.137c-3.811,5.711-4.578,0.375-4.578-2.304
		c0-2.659,1.909-38.884,1.909-43.068c0-4.215-0.763-29.381-0.763-29.381L608.496,201.897z"></path>
	<path class="st0" d="M606.979,192.731c0,0-9.925,85.829-14.124,86.213c-4.19,0.365-4.19,0.749-2.294-8.773
		c1.915-9.541,10.299-72.467,9.915-76.288C600.097,190.082,606.979,192.731,606.979,192.731z"></path>
	<path class="st0" d="M591.329,202.281c0,1.142-3.811,59.875-4.578,64.828c-0.759,4.963,4.578,7.247,6.493,1.526
		c1.901-5.721,3.048-67.506,3.048-67.506L591.329,202.281z"></path>
	<path class="st0" d="M593.998,158.416c0.245-1.19-5.332-28.594-9.152-31.655c0,0,11.447,5.337,11.83,11.45
		c1.521-4.214,2.66-11.834,1.143-19.465c-1.526-7.621-2.29-13.341-5.342-15.636c-3.052-2.285-1.531,2.294-6.484,2.294
		c-4.963,0-4.189-6.479-2.289-10.3c-2.673-3.81-2.673-7.621,0.764-8.773c-1.147-4.185-0.764-9.924,3.052-9.157
		c3.811,0.758,1.906-2.659-0.384-8.014c-2.289-5.327-6.863-13.726-10.299-14.475c-3.431-0.759-11.816,1.91-15.252,0.749
		c-3.431-1.123,0.379-6.095,3.437-7.611c-6.488-0.394-5.346-7.256,0.379-9.925c0.764-2.659,0-9.157,8.383-9.55
		c2.669-5.327,8.399-7.986,12.21-6.854c1.142-0.758,1.142-7.62,6.864-7.995c3.436-3.446,8.773-4.972,13.351-4.213
		c6.867-1.508,14.489-1.891,15.636,1.919c6.862,0,16.03,0,13.736,4.953c6.095-0.374,16.389,0,16.015,3.427
		c6.863-1.901,14.872-3.801,16.773-3.801c-0.754,4.194-4.185,7.237-4.185,7.237s10.294-2.659,11.816,5.327
		c6.867-1.123,16.019,4.224,10.298,6.517c6.868,4.185,9.153,10.664,4.2,10.27c0,0,5.331,6.489,0.758,7.256
		c-4.579,0.758-7.626-2.284-7.626-2.284s-8.009,13.341-9.536,16.393c6.489,0.394,3.816,4.185,0.768,5.721
		c3.048,1.92,0.759,6.479-3.057,6.095c-3.815-0.385-6.867,3.072-6.867,3.072l-4.953,10.664c0,0,7.63-2.66,11.445-0.374
		c-9.161,5.711-19.456,12.209-26.318,23.276l8.005-1.535c0,0-9.916,13.341-13.347,15.251c-3.436,1.901-16.398,19.456-19.831,25.177
		C616.505,159.568,593.618,160.326,593.998,158.416z"></path>
</g>
</svg>
