<!--?xml version="1.0" encoding="utf-8"?-->
<!-- Generator: Adobe Illustrator 22.1.0, SVG Export Plug-In . SVG Version: 6.00 Build 0)  -->
<svg version="1.1" id="_x34_" xmlns="http://www.w3.org/2000/svg" xmlns:xlink="http://www.w3.org/1999/xlink" x="0px" y="0px" viewBox="0 0 727.888 800" style="enable-background:new 0 0 727.888 800;" xml:space="preserve">
<style type="text/css">
	.st0{fill:#040000;}
</style>
<g>
	<path class="st0" d="M481.975,738.785c0,32.692-26.51,59.215-59.215,59.215c-32.702,0-59.223-26.523-59.223-59.215
		c0-32.699,26.521-59.206,59.223-59.206C455.465,679.579,481.975,706.086,481.975,738.785z"></path>
	<path class="st0" d="M308.231,84.804c-4.769,0-1.199,16.666,9.523,19.048c4.756,4.769,2.376,11.899,2.376,11.899l-2.376,5.953
		c0,0-13.106-7.141-26.199-2.381c-13.095,4.769-44.042,28.576-54.76,45.228c-36.902,15.493-41.666,21.436-48.807,23.817
		c-7.143,2.395-45.234,22.623-84.52,38.105c-39.29,15.472-39.29,15.472-39.29,15.472s-13.09-11.907-26.183-9.529
		c-13.097,2.382-22.622,3.569-22.622,3.569s-8.325,8.342-8.325,15.472c-7.148,5.953-5.963,20.234-2.392,16.669
		c3.578-5.946,3.578-5.946,3.578-5.946s6.3-1.838,7.139,2.388c1.191,5.936-7.139,5.936,1.191,5.936
		c8.334,0,14.291-4.759,14.291-4.759s5.946,7.141,9.52,3.575c3.565-3.575,13.089-4.753,25.006-2.388
		c11.904,2.388,16.659-3.559,16.659-3.559s111.898-23.817,124.997-27.389c13.089-3.569,64.284-21.422,71.422-22.616
		c7.145-1.194,33.337,65.48,34.526,76.182c1.185,10.723,0.004,20.252,3.571,23.817c3.574,3.565,17.858,53.577,19.051,65.477
		c1.19,11.9-2.388,21.435,4.756,23.81c7.144,2.388-1.199,13.094,7.144,11.913c8.33-1.201,10.714,9.515,10.714,9.515
		s-5.95,17.85,0,25c5.957,7.137,10.718,25,10.718,25s-3.574,13.087,2.38,17.836c5.954,4.769,28.567,64.303,38.091,65.487
		c9.52,1.194,9.52,1.194,9.52,1.194l22.618,19.047c0,0,8.342,16.67,17.858,21.429c9.528,4.76,27.382,33.318,30.956,35.707
		c3.569,2.381,4.755,11.91,10.709,16.669c5.95,4.766,101.189,76.189,107.143,82.136c5.949,5.953-17.85,16.67-26.192,22.613
		c-8.33,5.964-15.478,16.676,2.384,17.856c17.863,1.201,69.039-8.317,78.563-7.134c9.533,1.187,22.622-2.378,19.053-14.288
		c-3.57-11.907-16.672-28.576-20.239-27.382c-3.569,1.211-5.949-5.954-15.474-11.907c-9.52-5.936-48.81-59.523-65.478-82.136
		c-16.664-22.622-38.087-32.134-44.045-32.134c-10.71-7.147-20.238-30.957-20.238-30.957l-7.14-33.325
		c0,0-7.148-47.624-3.578-46.429c3.578,1.184,41.669,26.177,50.003,33.325c8.334,7.147,32.142,41.67,50,47.616
		c17.854,5.964,41.667-9.529,38.092-27.372c-3.57-17.864-3.57-17.864-3.57-17.864s3.57-28.569-4.764-36.9
		c-8.334-8.334-23.808-29.77-23.808-29.77s-27.377-51.181-40.475-71.416c-13.099-20.231-41.666-50.012-55.941-55.941
		c-14.297-5.97-20.251-22.63-25.006-25.018c-4.761-2.381-22.618-38.094-22.618-45.228c0-7.148,3.565-44.048,3.565-44.048
		l2.389-13.094c0,0,69.047,32.142,74.993,39.289c5.954,7.148,25.002,10.706,47.624,16.669c22.613,5.953,65.46,16.659,73.799,17.853
		c8.338,1.184,20.242-2.371,32.146-3.582c11.899-1.194,23.807-1.194,21.418-8.318c2.389-9.529,2.389-9.529,2.389-9.529
		s-1.19-13.094-8.325-13.094c-7.153,0-13.103-5.96-13.103-5.96s-14.279-8.328-26.187-3.569c-11.904,4.769-15.474,9.529-20.238,7.141
		c-4.763-2.371-71.427-33.329-78.576-40.476c-7.136-7.138-22.618-9.518-22.618-9.518s-38.092-16.67-45.235-27.375
		c-7.144-10.719-32.142-45.259-55.945-47.624c-23.813-2.388-57.14-10.712-57.14-10.712l-8.341-14.288c0,0,3.574-4.759,4.769-11.907
		c1.185-7.141,0-13.087,0-13.087s8.33-28.576-10.719-48.811C368.093-1.584,348.694,1.471,335.604,3.853
		C322.51,6.234,283.228,16.953,308.231,84.804z"></path>
</g>
</svg>
