<!--?xml version="1.0" encoding="utf-8"?-->
<!-- Generator: Adobe Illustrator 22.1.0, SVG Export Plug-In . SVG Version: 6.00 Build 0)  -->
<svg version="1.1" id="_x33_" xmlns="http://www.w3.org/2000/svg" xmlns:xlink="http://www.w3.org/1999/xlink" x="0px" y="0px" viewBox="0 0 744.849 800" style="enable-background:new 0 0 744.849 800;" xml:space="preserve">
<style type="text/css">
	.st0{fill:#040000;}
</style>
<g>
	<path class="st0" d="M739.52,130.822c-3.716-1.353-12.201-5.452-13.681-4.72c-1.484,0.733-10.445,4.823-10.445,4.823l-1.131-1.711
		c0,0,1.493-4.434-0.175-5.659c-1.676-1.226-3.888-1.974-7.474-0.335c-3.585,1.632-1.42,6.686,0.51,6.9
		c2.65,0.303,4.584,1.68,4.584,1.68s-3.378,1.575-4.468,2.093c-1.086,0.518-1.986,0.087-2.333-0.374
		c-0.345-0.469,0.101-1.703-0.039-2.228c-0.143-0.518-2.65-4.433-6.021-4.083c-3.371,0.342-5.209,1.839-4.811,3.302
		c0.394,1.458,2.81,3.383,4.771,3.63c1.978,0.254,3.399,0.994,3.514,1.416c0.111,0.414-0.692,0.74-1.449,1.273
		c-0.744,0.542-5.443,3.033-5.973,2.73c-0.529-0.303-1.194-1.13-0.824-2.244c0.367-1.106,0.47-6.415-3.124-6.2
		c-3.744,0.214-4.672,0.915-5.802,2.109c-1.134,1.209-2.161,4.05-0.601,6.088c1.067,1.409,4.485,0.477,5.046,1.329
		c0.565,0.86,1.047,1.401,0.593,1.752c-0.473,0.341-3.183,1.074-4.139,1.671c-0.963,0.589-2.141,0.797-2.01,0.422
		c0.116-0.366-1.102-2.834-0.978-3.208c0.119-0.366,0.154-3.167-1.281-4.353c-1.437-1.178-3.478-1.298-6.025,0.056
		c-2.546,1.353-4.047,3.128-2.961,5.603c0.871,2.005,2.154,3.446,4.27,2.993c2.113-0.454,3.658-0.088,4.123,0.795
		c0,0-6.901,3.861-7.589,3.821c-0.672-0.032-1.559-2.483-1.52-3.168c0.044-0.676-0.434-4.13-2.964-5.237
		c-2.54-1.114-5.512-0.533-6.038,2.515c-0.529,3.049,0.653,7.426,2.07,7.72c1.421,0.287,2.782,0.366,2.802,1.266
		c0.015,0.883-0.788,2.889-2.137,3.693c-1.349,0.812-3.208-0.255-3.896-1.186c-0.697-0.931-0.414-2.348-0.784-2.921
		c-0.382-0.564-5.285-5.516-6.65-5.595c-1.361-0.08-4.794,1.29-2.328,4.648c2.471,3.367,6.08,5.977,6.753,6.017
		c0.685,0.039,3.068,3.199,3.068,3.199s-1.078,2.531-1.965,2.54c-0.896,0.023-1.118-0.812-2.257-0.064
		c-1.138,0.764,0.422,3.247,0.422,3.247s-6.324,7.282-7.462,8.038c-1.138,0.749-3.43,1.369-3.152,2.412
		c0.056,0.175-5.006,5.865-13.438,15.194c1.461-7.951-4.772-13.101-7.107-7.72c-2.793,6.431-11.862,11.269-21.254,13.713
		c-9.38,2.451-27.868,27.936-27.868,27.936s-18.763,4.894-35.302,8.285c-16.538,3.391-53.73-2.635-74.784-5.93
		c-21.063-3.295-32.926,7.974-45.473,4.767c-1.393-0.358-3.407-0.875-5.831-1.512c-10.429-19.944-25.456-42.54-37.115-54.088
		c-17.789-17.613-57.233-35.186-57.233-35.186c-8.448-4.162-26.005-30.427-26.005-30.427s0.891-8.078-8.075-11.866
		c-4.986-2.109-11.707-17.51-7.994-23.287c3.713-5.778,2.901-14.605-4.736-15.433c-2.837-0.303-9.642-2.523-13.641-5.937
		c-3.999-3.422-11.126,6.366-13.199,2.364c0,0,0.712-10.37-3.853-9.797c-9.344,1.186-0.294-6.447-5.185-10.013
		c-4.891-3.565-15.201,3.399-23.065,6.661c-6.009,2.491-7.493,6.518-12.686,4.736c-1.257-0.43-2.122-0.907-2.798-1.385
		c2.483-5.818,4.163-11.565,4.386-14.979c0.203,0.095,0.195,0,0.059-0.192c-0.02-0.023-0.047-0.064-0.072-0.087
		c0.056-1.353-0.1-2.348-0.581-2.714l-0.206-0.382l-0.187,0.135l0.032,0.469c0.036,0.414,0.072,0.931,0.076,1.504
		c-0.35-0.358-0.847-0.772-1.469-1.186c0.828-6.972-2.196-11.206-4.684-13.578c1.238-2.435,2.257-4.155,2.889-4.791l0.338-0.636
		l-0.155-0.112l-0.466,0.493c-0.652,0.725-1.595,1.664-2.431,2.961c-0.235,0.271-0.564,0.749-0.959,1.353
		c-0.776-0.668-1.444-1.178-1.787-1.488c-0.095-0.055-0.608-0.342-0.963-0.501c-0.346-0.152-0.557-0.183-0.108,0.207
		c0.311,0.239,0.462,0.366,0.773,0.621c0.545,0.461,1.134,1.042,1.731,1.742c-1.536,2.475-3.912,6.781-6.523,12.074
		c-0.485-1.513-1.102-2.771-1.807-3.773c-0.334-1.433-0.765-2.706-1.306-3.789c1.054-4.106,1.624-7.075,2.173-7.926
		c0.558-1.974,0.868-3.772,0.577-4.84l-0.381-0.684c-0.219-0.382-0.224-0.175-0.207,0.127l0.119,0.724
		c-0.489,1.09-1.262,5.452-3.06,11.326c-2.686-4.195-6.578-5.46-7.926-5.89c1.913-1.161,3.382-1.989,4.022-2.435
		c1.907-1.751,3.984-2.913,4.62-4.234l0.609-0.828c0.327-0.486,0.08-0.334-0.254-0.072c-0.35,0.263-0.784,0.669-0.856,0.748
		c-0.322,1.353-4.25,3.351-9.388,6.248l-0.079-0.119c0.068-0.056,0.167-0.135,0.214-0.183c2.261-1.894,3.96-3.82,4.299-5.3
		c0.135-0.414,0.203-0.621,0.346-1.034c0.172-0.605-0.012-0.398-0.259-0.032l-0.609,1.034c-0.378,1.926-5.062,5.516-12.376,9.567
		c-0.577-1.4-0.975-2.658-1.211-3.756c1.636-0.319,3.172-0.557,4.386-0.764c0.53-0.088,0.8-0.128,1.333-0.207
		c0.792-0.151,0.561-0.191,0.076-0.207c-0.494-0.017-1.25,0.016-1.397,0.032c-0.812,0.048-2.372,0.144-4.31,0.43
		c1.161-5.38,1.173-9.503,0.262-10.57l-0.203-0.7c-0.088-0.238-0.171-0.334-0.187,0.127l0.02,0.765
		c0.047,1.051,0.064,2.467-0.017,4.122c0.144,0.478,0.1,1.417-0.099,2.643c-0.107,0.398-0.167,0.62-0.282,1.034
		c-0.088,0.262-0.053,0.629-0.107,0.924c-0.135,0.573-0.303,1.194-0.49,1.847c-4.903,0.891-11.831,3.183-17.274,9.535
		c-0.629,0.644-1.178,1.304-1.68,1.974c0.187-0.844,0.395-1.64,0.625-2.38c1.847-2.444,4.047-4.035,4.728-4.625
		c1.56-1.536,3.374-2.133,4.819-2.57c0.401-0.135,0.6-0.207,1.006-0.342c0.601-0.239,0.438-0.271,0.064-0.255l-1.114,0.143
		c-1.508,0.104-4.723,1.249-7.827,3.741c0.322-0.533,0.652-0.972,0.959-1.226c1.054-1.671,2.081-3.056,2.913-4.099l0.569-0.74
		c0.31-0.461,0.119-0.382-0.18-0.175l-0.799,0.652c-1.775,0.724-4.095,3.733-6.002,7.991c-1.413,1.592-2.689,3.517-3.597,5.873
		c-0.386,1.982-0.589,3.995-0.688,6.049c-1.593,1.584-3.029,3.303-4.29,5.109c-5.197-4.361-8.376-8.309-8.309-10.458l-0.271-1.097
		c-0.12-0.39-0.227-0.621-0.207,0.031c0.036,0.446,0.047,0.677,0.072,1.114c-0.02,1.592,0.931,3.638,2.32,5.635
		c0.605,1.162,2.606,3.311,5.555,6.033c-1.923,3.056-3.252,6.376-3.729,9.877c-1.989,2.539-4.676,10.824-5.603,21.409
		c-3,5.946-4.862,11.954-2.69,18.147c0.072,0.254,0.174,0.469,0.255,0.716c-0.406,1.035-0.64,2.053-0.828,3.072
		c-5.117-10.473-4.851-21.417-3.951-23.526c0.258-1.974,0.541-3.652,0.771-4.935l0.148-0.899c0.064-0.542-0.048-0.398-0.183-0.08
		l-0.342,0.907c-2.097,2.507-4.584,19.054,3.295,32.958c0.028,0.446,0.092,0.86,0.148,1.29c-1.938-1.744-3.327-3.12-3.868-3.741
		c-1.154-1.178-2.105-2.213-2.821-3.008l-0.518-0.549c-0.319-0.319-0.271-0.175-0.123,0.072c0.146,0.239,0.389,0.597,0.437,0.66
		c0.696,1.361,3.31,4.433,7.104,8.086c0.286,1.369,0.684,2.57,1.11,3.645c-2.412,4.21-4.739,10.355-3.904,17.518
		c1.42,9.263,8.437,14.349,13.395,16.809c17.235,28.772,47.491,41.466,65.653,35.895c12.22-3.756,26.654-9.089,36.655-12.32
		c-1.62,4.003-3.116,8.683-4.027,14.118c-2.487,14.844-4.819,44.085-1.751,60.4c-0.418,19.006-7.609,31.939-7.609,31.939
		l11.672,3.167c0,0-1.623,53.396,1.727,69.815c3.352,16.42-3.382,34.796,2.344,44.299c5.726,9.495,28.656,25.532,48.82,36.22
		c3.944,2.094,10.712,5.309,19.109,9.129c-1.126,3.263-2.289,6.733-3.462,10.394c-16.073,9.272-37.307,25.278-34.943,49.505
		c3.251,33.339,17.235,69.17,46.138,95.626c0.052,0.048,0.107,0.087,0.156,0.135c2.896,5.889,5.288,10.704,6.502,13.999
		c6.714,18.195,27.924,73.078,23.877,68.629c-11.122-12.256-31.393-33.722-39.743-38.489c-6.088-3.478-54.327-43.575-70.356-48.899
		c-16.021-5.309-46.237-38.266-49.715-44.101c-3.481-5.857-21.727-41.521-27.278-39.205c-5.555,2.324-37.757,31.374-42.416,30.188
		c-4.664-1.186-13.1-7.051-13.1-7.051s-30.427,22.053-33.663,29.917c-3.239,7.871-19.372,32.312-33.996,41.011
		c-14.62,8.7-31.978,47.729-34.641,58.219c-2.666,10.498,7.21,20.446,19.757,19.913c12.552-0.533,52.947-37.438,61.423-41.481
		c8.472-4.06,9.885,9.948,21.561,7.95c11.68-2.005,23.334,0.964,26.244,4.179c2.901,3.223,2.885,8.181,9.881,9.956
		c6.992,1.783,68.395,43.44,82.939,54.574c14.553,11.143,151.29,100.981,176.018,91.694c24.729-9.28,42.731-22.118,44.136-59.683
		c1.018-27.132,1.759-91.869,2.467-132.555c4.967-5.308,8.473-10.975,9.575-16.141c3.414-16.005,14.923-81.841,23.797-91.256
		c8.874-9.431,38.703-15.766,53.185-28.039c14.485-12.28,15.583-30.689,14.227-31.995c-1.361-1.313-9.081,11.159-12.727,13.818
		c-3.653,2.658-19.407,5.205-31.581,1.106c-12.169-4.122-23.589-19.172-23.224-25.293c0.363-6.145,3.9-10.442,5.508-13.228
		c1.018-1.774,73.492-87.571,127.094-151.027c5.954-1.393,11.605-3.859,14.466-4.242c4.767-0.629,13.685-6.653,13.052-11.421
		c3.737,0.724,8.918-6.024,8.134-11.986c4.613-1.823,4.855-9.137,8.373-19.308c0.565-1.631,0.091-2.937-0.951-4.043
		c7.923-9.384,12.878-15.281,13.471-16.021c3.776-4.704,14.143-9.837,17.915-9.503c3.776,0.319,10.072,5.014,11.739,1.21
		c1.664-3.796,17.554-29.543,24.294-35.704c6.722-6.176,17.415-15.082,19.034-16.522
		C743.734,134.045,743.237,132.175,739.52,130.822z M148.177,38.062c2.197-4.25,6.331-5.89,7.274-6.471
		c0.143-0.072,0.262-0.096,0.402-0.151c-1.715,2.412-3.068,5.046-3.955,7.919c-0.04,0.04-0.072,0.079-0.112,0.119
		c-0.947,1.17-1.854,2.333-2.737,3.478C148.627,40.983,148.313,39.311,148.177,38.062z M148.388,31.448
		c2.606-2.221,5.523-4.035,8.632-5.269c-0.004,0.493-0.004,0.995,0.008,1.504c0.107,0.366,0.155,1.082,0.175,2.021
		c-0.195,0.255-0.417,0.469-0.605,0.716c-2.475,0.596-5.739,1.91-8.409,5.205c-0.103-1.33,0.203-2.491,0.334-3.391l0.124-0.692
		L148.388,31.448z M163.335,22.773c-0.235,0.501-0.486,1.01-0.744,1.52c-0.64,0.558-1.325,1.051-1.934,1.64l0.091-0.366
		c0.044-0.255,0.04-0.414-0.159-0.056l-0.314,0.613c-0.032,0.064-0.08,0.159-0.116,0.223c-0.004,0.016-0.019,0.023-0.032,0.031
		c0-0.015,0.004-0.031,0.008-0.056l0.087-0.684c0.028-0.422-0.095-0.319-0.246-0.096l-0.363,0.684
		c-0.171,0.295-0.322,0.724-0.469,1.202c-0.389,0.422-0.736,0.875-1.105,1.306c-0.004-1.162-0.004-2.165,0.004-3.081
		C159.921,24.651,161.671,23.696,163.335,22.773z M170.669,24.357c0.075,0.318,0.151,0.677,0.23,1.019
		c-1.301-1.115-2.415-2.078-3.211-2.897c0.489-0.422,0.979-0.828,1.464-1.218C169.579,22.191,170.088,23.234,170.669,24.357z
		 M178.593,17.91c0.055,0.191,0.115,0.351,0.171,0.558c0.986,1.361,1.516,7.473,0.235,15.097c-0.295-0.381-0.589-0.771-0.895-1.138
		C179.388,25.869,178.055,20.218,178.593,17.91z M186.678,24.754c0.128,0.183,0.315,0.438,0.542,0.749
		c0.175,0.684,0.314,1.416,0.414,2.196c-0.183,0.51-0.417,1.067-0.688,1.672c-0.255-0.43-0.534-0.733-0.855-0.844l-0.343-0.319
		l-0.151,0.183l0.175,0.437c0.195,0.453,0.437,1.043,0.644,1.719c-0.524,1.242-2.005,4.187-4.003,8.142
		c0.154-1.154,0.302-2.252,0.429-3.302C184.517,31.552,185.771,27.923,186.678,24.754z M187.725,31.711
		c-0.115-0.541-0.259-0.979-0.414-1.401c0.163-0.446,0.314-0.891,0.442-1.273C187.8,29.872,187.781,30.772,187.725,31.711z
		 M198.644,36.614c-0.271-0.414-0.541-0.749-0.812-1.035c0.524-1.672,1.018-3.152,1.448-4.425c0.796-0.04,1.429,0.008,1.87,0.048
		c-0.311,1.393-0.784,2.85-1.671,4.409C199.238,35.976,198.911,36.272,198.644,36.614z M198.803,46.594
		c-0.807-0.676-1.803-1.217-3.693-1.472c0.275-1.099,0.561-2.173,0.848-3.215c0.967-0.74,1.874-1.536,2.69-2.396
		C199.05,41.006,199.46,43.49,198.803,46.594z M186.77,31.798c0.25,1.027,0.238,3.033-0.028,5.707
		c-0.39,0.876-0.773,1.751-1.158,2.643c-0.553,0.827-1.107,1.647-1.644,2.522c-0.251-0.74-0.486-1.488-0.784-2.181
		C184.604,37.17,185.866,34.178,186.77,31.798z M194.012,45.017c-1.205-0.064-2.24,0-3.219,0.152
		c1.357-0.701,2.65-1.473,3.872-2.308C194.45,43.553,194.231,44.278,194.012,45.017z M163.629,26.283
		c0.744-0.772,1.52-1.505,2.3-2.221c0.143,0.215,0.291,0.437,0.434,0.684c-0.593,2.524-2.24,6.941-4.545,12.28
		c-0.517,0.135-1.134,0.303-1.854,0.51c-0.083-1.743-0.131-3.16-0.159-4.378C161.262,30.915,162.551,28.607,163.629,26.283z
		 M167.717,35.619c-0.091,0.342-0.267,0.66-0.379,0.987c-0.29,0.055-0.533,0.119-0.613,0.135c-0.573,0.143-1.556,0.382-2.694,0.732
		c0.072-0.208,0.143-0.413,0.215-0.621c0.004,0,0.008,0,0.012,0c0.708-0.207,0.513-0.255,0.067-0.231
		c1.643-4.919,2.603-8.548,2.642-9.814c0.052-0.238,0.044-0.413,0.072-0.644C168.023,28.447,168.592,31.504,167.717,35.619z
		 M160.028,38.977c-0.012-0.247-0.028-0.501-0.036-0.749c0.561-0.23,1.023-0.358,1.54-0.533c-0.112,0.262-0.231,0.518-0.343,0.78
		C160.808,38.635,160.429,38.794,160.028,38.977z M160.633,39.733c-0.175,0.39-0.342,0.764-0.517,1.162
		c-0.016-0.327-0.024-0.589-0.04-0.9C160.263,39.892,160.442,39.837,160.633,39.733z M162.249,42.495
		c0.135,0.566,0.283,1.202,0.425,1.91c0.004,0.023,0.02,0.095,0.025,0.127c-0.681,0.836-1.413,1.656-2.181,2.476
		C161.13,45.455,161.712,43.943,162.249,42.495z M173.932,46.037c-0.056,0.064-0.124,0.135-0.175,0.199
		c-0.267,0.024-0.526,0.04-0.797,0.064c0.259-0.971,0.505-1.941,0.744-2.881C173.773,44.301,173.888,45.113,173.932,46.037z
		 M170.976,46.594c-0.422,0.079-0.836,0.151-1.262,0.239c0.625-0.549,1.194-1.107,1.735-1.68
		C171.29,45.639,171.139,46.092,170.976,46.594z M173.093,40.179c-1.477,2.244-3.423,4.465-5.974,6.518
		c0.096-0.175,0.192-0.342,0.291-0.526c2.929-3.144,4.859-5.579,5.356-6.804c0.191-0.327,0.342-0.653,0.51-0.972
		c0.04,0.302,0.044,0.668,0.084,0.972C173.279,39.621,173.184,39.909,173.093,40.179z M163.435,47.723
		c-0.609,0.558-1.266,1.131-1.919,1.703c-0.238,0.096-0.48,0.191-0.719,0.287c0.852-0.9,1.663-1.831,2.447-2.777
		C163.307,47.198,163.363,47.429,163.435,47.723z M155.503,41.611c-0.23,0.167-0.465,0.287-0.692,0.462
		c0.08-0.398,0.163-0.797,0.262-1.186c0.255-0.167,0.477-0.311,0.693-0.446C155.674,40.831,155.591,41.222,155.503,41.611z
		 M157.31,42.041c0.044,1.33,0.103,2.698,0.191,4.131c0,0.127-0.008,0.247-0.012,0.374c-0.485,1.018-1.002,2.053-1.508,3.088
		c0.335-2.547,0.692-5.022,1.067-7.379C157.134,42.184,157.223,42.113,157.31,42.041z M181.784,46.259
		c-0.036-0.724-0.088-1.433-0.164-2.133c0.008-0.064,0.02-0.127,0.028-0.191c0.035-0.087,0.079-0.175,0.115-0.254
		c0.171,0.612,0.291,1.257,0.426,1.894C182.054,45.805,181.919,46.028,181.784,46.259z M178.585,46.292
		c-0.239-0.016-0.463-0.025-0.713-0.04c0.023-0.056,0.043-0.12,0.064-0.183c0.406-0.66,0.708-1.273,0.716-1.87l0.135-0.597
		c0.047-0.143,0.076-0.287,0.123-0.429c0.171-0.287,0.298-0.574,0.469-0.868c0.093,0.676,0.093,1.417,0.136,2.117
		C179.213,45.026,178.899,45.662,178.585,46.292z M177.04,41.643c-0.442,0.677-0.879,1.353-1.353,2.029
		c-0.163-1.186-0.346-2.308-0.533-3.415c0.935-1.6,1.632-3.199,2.146-4.783c0.338,0.645,0.605,1.377,0.871,2.094
		C177.851,38.914,177.482,40.274,177.04,41.643z M175.6,35.356c0.135-0.685,0.25-1.321,0.346-1.927
		c0.084,0.112,0.164,0.239,0.243,0.351C176.017,34.297,175.81,34.822,175.6,35.356z M174.385,36.128
		c-0.016-0.072-0.028-0.167-0.048-0.23c0.315-1.059,0.414-2.022,0.227-2.81c-0.019-0.151-0.036-0.262-0.051-0.374
		c0.143-0.318,0.25-0.589,0.37-0.883c0.115,0.192,0.214,0.367,0.33,0.549C175.225,33.08,174.915,34.353,174.385,36.128z
		 M174.016,34.369c-0.036-0.144-0.059-0.271-0.091-0.414c0.032-0.072,0.064-0.143,0.099-0.207
		C174.024,33.955,174.067,34.13,174.016,34.369z M173.049,36.661c-0.51,0.923-1.242,1.974-2.101,3.088
		c0.719-1.329,1.385-2.594,1.989-3.772C172.973,36.208,173.013,36.422,173.049,36.661z M166.1,44.963
		c0.251-0.749,0.526-1.377,0.84-1.664c0.501-0.972,1.165-1.711,1.674-2.324C167.824,42.224,166.977,43.561,166.1,44.963z
		 M164.234,45.981c-0.023-0.056-0.039-0.12-0.067-0.183c0.1-0.127,0.191-0.262,0.287-0.39
		C164.377,45.591,164.31,45.789,164.234,45.981z M163.371,43.665c-0.323-0.836-0.594-1.505-0.816-2.029
		c0.418-1.138,0.835-2.285,1.198-3.343c1.169-0.437,2.252-0.795,3.155-1.138c0.099-0.032,0.167-0.064,0.25-0.095
		C166.3,39.368,164.998,41.564,163.371,43.665z M154.97,44.119c-0.187,0.899-0.37,1.822-0.557,2.769
		c0.003-0.772-0.008-1.537,0.051-2.285C154.636,44.421,154.803,44.286,154.97,44.119z M150.991,50.541
		c0.008,0.135,0.024,0.272,0.032,0.407c-0.143-0.263-0.278-0.534-0.406-0.805c0,0,0,0,0.004-0.008
		C150.744,50.27,150.871,50.398,150.991,50.541z M187.836,44.15c0.107-1.043,0.215-2.077,0.279-3.064
		c0.374-1.004,0.76-2.022,1.15-3.024c-0.453,1.942-0.923,3.963-1.412,6.072C187.848,44.142,187.84,44.142,187.836,44.15z
		 M174.393,31.011c-0.067,0.143-0.099,0.262-0.182,0.398c-0.072,0.325-0.271,0.779-0.558,1.337c-0.37-1.656-0.681-3.025-0.875-4.075
		c0.207,0.206,0.414,0.429,0.62,0.652C173.717,29.88,174.056,30.438,174.393,31.011z M172.698,34.433
		c-0.907,1.543-2.156,3.525-3.641,5.841l-0.108-0.111l-0.577,0.342c-0.406,0.103-0.808,0.358-1.197,0.692
		c1.667-3.104,2.706-6.43,2.646-10.02c-0.322-3.525-1.361-6.009-2.638-7.871c0-0.128,0-0.287-0.004-0.406
		c0.036-0.023,0.072-0.056,0.107-0.087c0.398,0.526,0.828,1.067,1.234,1.719c0.41,0.47,1.452,1.369,2.782,2.643
		C171.751,29.227,172.249,31.662,172.698,34.433z M166.264,21.181c-0.164,0.12-0.311,0.278-0.47,0.398
		c-0.036-0.039-0.075-0.072-0.115-0.119c0.182-0.095,0.39-0.207,0.573-0.319C166.26,21.158,166.26,21.173,166.264,21.181z
		 M196.918,38.555c0.222-0.748,0.446-1.464,0.66-2.165c0.175,0.271,0.327,0.589,0.45,0.955
		C197.665,37.743,197.323,38.173,196.918,38.555z M198.023,32.14c-0.04,0.493-0.35,1.528-0.803,2.913
		c-0.187-0.143-0.378-0.255-0.537-0.311l-0.609-0.279c-0.215-0.08-0.339-0.064-0.076,0.23l0.458,0.454
		c0.179,0.159,0.371,0.334,0.557,0.525c-0.354,1.083-0.792,2.38-1.273,3.837c-1.64,1.321-3.506,2.499-5.575,3.533
		c0.481-2.626,0.831-5.205,1.042-7.719c2.842-2.785,5.273-3.78,7.104-4.059C198.215,31.552,198.116,31.838,198.023,32.14z
		 M132.268,72.818c-0.438,1.298-0.908,2.507-1.365,3.749c-0.004-0.119-0.009-0.239-0.009-0.35
		C131.292,75.102,131.746,73.972,132.268,72.818z M204.41,32.809c-0.008,0.127,0.004,0.222-0.008,0.342
		c0.275,1.233-1.341,5.961-4.047,11.794c0.211-2.722-0.16-4.878-0.776-6.486c1.484-1.799,2.626-3.852,3.267-6.24
		c0.02-0.135,0.012-0.239,0.028-0.382C203.459,32.172,203.969,32.507,204.41,32.809z M201.378,30.191
		c-0.502-0.175-1.059-0.287-1.663-0.334c0.533-1.568,0.915-2.738,1.03-3.271c0.059-0.064,0.334-0.477,0.53-0.835
		c0.007-0.017,0.003-0.017,0.011-0.025C201.538,27.054,201.621,28.543,201.378,30.191z M197.845,18.213
		c0.339,0.445,0.677,0.844,0.999,1.36c0.339,0.78,1.787,2.906,2.412,5.946c-0.036,0.032-0.02,0-0.076,0.064l-0.696,0.732
		c-0.577,0.812-1.139,2.07-1.676,3.534c-1.814,0.08-4.003,0.82-6.637,2.897c-0.271,0.182-0.513,0.469-0.78,0.684
		c0.004-0.111,0.024-0.23,0.032-0.334c-0.012-0.111-0.044-0.207-0.056-0.318C193.654,27.174,195.97,21.969,197.845,18.213z
		 M189.516,31.567c0.004-0.453-0.02-0.899-0.048-1.345c0.084,0.318,0.156,0.653,0.219,0.996
		C189.63,31.328,189.571,31.448,189.516,31.567z M186.129,22.351c-0.044,0.127-0.088,0.255-0.128,0.381
		c-0.875-0.573-1.671-0.875-2.192-0.907l-0.748-0.112c-0.255-0.007-0.37,0.031,0.004,0.247c0.254,0.127,0.382,0.183,0.632,0.311
		c0.633,0.262,1.365,0.621,2.033,1.265c-0.66,1.934-1.429,3.987-2.323,6.104c0.083-1.513,0.072-2.667-0.08-3.295l-0.135-0.645
		c-0.064-0.216-0.132-0.311-0.187,0.087l-0.056,0.669c-0.059,0.931-0.091,2.133-0.398,3.534c-0.048,0.469-0.211,1.4-0.426,2.522
		c-0.497,1.059-1.03,2.126-1.592,3.192c-0.007-0.007-0.015-0.015-0.023-0.032c1.162-8.436,0.143-15.949-1.389-19.427
		c-0.004-0.007-0.004-0.015-0.004-0.015c-0.243-0.541-0.486-1.011-0.744-1.346c0.055,0.033,0.095,0.048,0.154,0.08
		c1.139,0.621,2.766,1.243,4.263,2.587C183.308,18.26,184.876,19.748,186.129,22.351z M177.255,14.082l0.028,0.072
		c-0.107,0.064-0.203,0.12-0.306,0.175C177.08,14.248,177.155,14.17,177.255,14.082z M177.701,15.252
		c0.247,0.66,0.505,1.425,0.776,2.292c-0.334,0.804-0.418,1.783-0.732,2.977c-0.1,1.098,0.341,5.157-0.733,10.195
		c-0.262-0.382-0.529-0.732-0.803-1.083c-0.036-0.406-0.099-0.763-0.219-1.01l-0.095-0.422c0-0.04,0.027-0.127,0.023-0.167
		l0.064-0.668c0-0.222-0.043-0.326-0.199,0.048l-0.222,0.645c-0.064,0.167-0.136,0.381-0.199,0.564
		c-0.208-0.23-0.418-0.477-0.626-0.684c-1.209-1.735-2.26-3.422-3.179-5.03c-0.319-0.867-0.673-1.623-1.094-2.165l-0.136-0.127
		c-0.036-0.064-0.08-0.144-0.111-0.208C172.909,18.323,175.524,16.605,177.701,15.252z M166.343,19.406
		c0.422-1.29,0.788-2.53,1.099-3.74c0.076,0.422,0.087,0.819,0.186,1.257c0.053,0.398,0.207,0.948,0.414,1.576
		C167.49,18.793,166.921,19.095,166.343,19.406z M166.602,14.479c-0.545,1.775-1.265,3.765-2.173,5.881
		c-2.149-1.592-4.29-2.133-5.082-2.467c-0.083-0.016-0.434-0.064-0.752-0.088c2.889-1.639,5.452-2.507,6.475-2.977
		C165.615,14.663,166.081,14.599,166.602,14.479z M148.866,27.604c2.38-4.712,6.088-7.689,9.415-9.623
		c0.032,0.016,0.004,0.016,0.056,0.04c0.325,0.112,0.49,0.175,0.824,0.287c1.154,0.438,2.574,1.226,4.011,2.507
		c0.028,0.032,0.091,0.096,0.127,0.136c-0.768,0.382-1.509,0.756-2.312,1.146c-0.959,0.319-1.95,0.716-2.957,1.146
		c-0.008-0.613-0.023-1.138-0.067-1.416l0.266-0.923c0.08-0.366,0.124-0.629-0.159-0.135l-0.49,0.86
		c-0.199,0.533-0.322,1.249-0.414,2.03c-2.945,1.369-5.993,3.144-8.874,5.3C148.487,28.511,148.631,28.026,148.866,27.604z
		 M147.063,32.666c0.429-0.406,0.86-0.828,1.317-1.21l-0.37,0.66c-0.529,0.581-0.856,1.584-1.027,2.889
		c-0.019-0.653-0.028-1.306-0.016-1.942C146.995,32.936,147.031,32.801,147.063,32.666z M143.29,36.923
		c0,0.382,0.012,0.773,0.02,1.155c-0.168,1.051-0.322,2.117-0.49,3.167c-0.505-0.382-1.026-0.748-1.508-1.122
		C141.925,39.032,142.542,37.942,143.29,36.923z M140.509,41.611c0.625,0.542,1.281,1.115,1.965,1.687
		c-0.732,4.043-1.845,8.047-4.588,11.763C137.429,50.374,138.475,45.782,140.509,41.611z M133.418,54.465
		c0.314-1.003,0.621-1.91,0.911-2.754c-0.02,0.685-0.048,1.377,0.008,2.069c0.446,2.284,0.494,4.529,0.394,6.741
		c-1.162,2.053-2.38,4.107-3.546,6.16C131.706,60.474,132.753,55.921,133.418,54.465z M125.511,121.741
		c-0.617-5.309,0.764-9.965,2.522-13.594c-0.119,8.102,1.282,16.452,5.281,24.37c0.565,1.122,1.198,2.165,1.803,3.256
		C130.744,132.844,126.346,128.371,125.511,121.741z M296.208,354.298c0.6-3.573,1.413-11.134,2.308-20.151
		c1.942,2.697,3.593,4.99,4.819,6.709c7.095,9.956,10.315,22.722,11.91,35.067C303.829,370.503,294.604,363.881,296.208,354.298z
		 M464.175,378.851c-1.676,2.276-9.193,0.94-15.138-2.698c-1.627-11.907-3.68-25.015-5.881-38.059
		c1.138-3.399,2.594-6.423,4.397-8.676c7.533-9.399,14.159-17.215,17.534-18.791c3.382-1.584,1.456-9.566-4.426-8.994
		c-3.581,0.351-13.064,3.407-22.452,8.357c-1.986-10.8-3.912-20.82-5.599-29.224c6.742,1.52,12.568,2.984,15.858,3.955
		c10.629,3.136,99.466-12.503,117.469-17.382C517.603,320.202,465.485,377.069,464.175,378.851z"></path>
</g>
</svg>
