<!--?xml version="1.0" encoding="utf-8"?-->
<!-- Generator: Adobe Illustrator 22.1.0, SVG Export Plug-In . SVG Version: 6.00 Build 0)  -->
<svg version="1.1" id="_x33_" xmlns="http://www.w3.org/2000/svg" xmlns:xlink="http://www.w3.org/1999/xlink" x="0px" y="0px" viewBox="0 0 800 504.219" style="enable-background:new 0 0 800 504.219;" xml:space="preserve">
<style type="text/css">
	.st0{fill:#040000;}
</style>
<g>
	<path class="st0" d="M765.866,290.246c-10.129-36.154-24.577-36.154-37.605-41.943c-12.997-5.783-44.831,10.121-53.5,10.121
		c-8.676,0-11.549,5.783-15.903,5.783c-2.987,0-59.12,6.218-93.54,10.073c13.377-17.038,28.483-37.423,44.996-61.892
		c67.064-99.402,6.803-160.905-16.989-179.029c-9.07-20.405-79.323-26.064-122.376-29.463c-43.054-3.398-212.986-3.209-225.483-1.13
		c-20.392,3.395-54.709,16.16-71.382,31.727c-2.649,2.475-5.382,5.525-8.122,8.967l-0.187-0.337l-35.047,14.451
		c0,0,5.524-6.659,10.514-7.535c5.001-0.88-24.942-5.643-44.299,5.754c4.168-4.069,15.075-10.894,15.075-10.894
		S91.125,53.48,74.734,56.903c-16.399,3.403-58.466,11.625-68.809,46.405c-10.962,23.077,2.225,62.197,24.791,87.282
		c2.915,5.152,6.246,10.256,9.959,14.682c13.516,16.078,9.787,16.918,8.82,18.751c-0.857,1.594,8.975,1.333,4.407-15.059
		c3.458,1.733,6.987,3.105,10.557,4.017c40.175,10.153,48.368-14.253,47.539-16.644c0,0-7.579,9.573-17.43,4.882
		c-2.597-1.245,9.729,1.114,18.719-9.228c0,0,7.167-3.883,13.175-7.389c-1.944,22.566-4.227,44.497-4.227,44.497l11.287-0.729
		c4.589,32.424,13.857,79.508,13.005,86.369c-1.139,9.059-5.668,20.386-5.668,36.257c0,15.872,6.005,95.682-2.269,100.829
		c-3.323,2.078-28.796-6.314-31.417-9.654c-2.606-3.331-3.062-6.068-7.972-5.671c-4.905,0.389-6.631,3.593-5.045,5.282
		c1.575,1.682,4.732,5.037,6.323,6.171c1.59,1.135-7.75,4.649-13.1,1.777c-5.354-2.911-6.77-0.785-11.113-0.92
		c-4.339-0.111-12.747,5.584-12.747,5.584l-8.198,1.388c0,0-4.962,2.538-11.077,6.718c-6.096,4.149-4.652,10.161-1.947,10.256
		c2.708,0.096,8.836-4.608,11.052-5.639c2.201-1.016,11.362,1.443,17.283,3.26c-8.15-0.238-15.375,4.957-21.463,8.574
		c-6.076,3.61-3.97,5.315-2.975,8.059c1.02,2.736,6.604-2.522,10.475-4.56c3.874-2.054,18.037-3.268,21.836-3.118
		c3.803,0.111,9.106,4.07,6.928,4.546c-2.189,0.483-8.344,5.719-13.353,9.906c-5.025,4.212-4.545,6.401-1.36,8.662
		c3.2,2.269,7.178-3.57,9.982-6.211c2.8-2.64,9.919-4.576,14.301-5.536c4.371-0.976,28.614-0.31,35.65,0.421
		c23.771,2.585,45.727-23.09,47.044-30.665c1.317-7.575,4.168-34.749,5.957-61.488c1.534-23.026,3.632-51.105,4.615-64.089
		c3.305-0.991,8.857-0.571,11.141-0.111c2.864,0.555,20.008,5.711,20.008,5.711s-7.429,0-14.29,5.719
		c-6.861,5.687-1.146,11.429,3.994,8.566c5.152-2.88,38.763-3.443,55.337-6.283c16.573-2.855,20.579-19.449,23.427-33.155
		c2.867-13.706,0.57-76.003,0.57-76.003c1.158-10.344,0.044-36.574-2.371-55.012c1.451-0.095,2.875-0.241,4.196-0.448
		c24.165-3.784,79.822-2.836,93.418-4.339c13.599-1.515,69.51,26.433,69.51,26.433c10.573-7.547,12.837-18.882,12.837-18.882
		s11.315-4.537,15.098-2.265c3.788,2.265-11.334,21.138-12.464,23.034c-90.174,150.78-86.113,216.424-55.515,235.698
		c30.589,19.251,246.537-9.328,259.473-13.604c12.913-4.322,21.333-3.783,24.549-7.011c3.241-3.228,20.449,5.378,53.818,32.29
		c33.374,26.913,40.33,17.537,40.916,6.473c1.059-20.456-20.464-75.337-24.767-85.053c-2.142-4.791-4.545-14.126-8.396-24.009
		c22.035,15.038,36.169,20.472,38.898,5.561C800.556,342.302,784.66,322.045,765.866,290.246z M249.437,318.467
		c-4.002,5.711-19.159-4.283-22.011-8.273c-2.863-4.005-12.013-7.456-18.303-7.456c-6.274,0-9.145,5.75-4.564,5.139
		c4.564-0.562,13.147,4.592,9.145,4.038c-3.994-0.602-11.43,1.134-11.43,1.134s-6.294,1.698-9.145,2.856
		c-2.296,0.928-3.827,4.72-4.355,6.21c-0.131-18.941-0.464-80.635,0.797-92.739c9.82,1.515,18.132-3.776,18.132-3.776
		s-0.754-49.855,6.036-50.621c3.153-0.341,14.654,2.352,28.451,4.958c0.594,8.511,1.384,17.676,2.447,21.209
		c1.713,5.711,5.362,46.449,8.796,69.88C256.861,294.473,253.434,312.772,249.437,318.467z M693.972,343.286
		c-5.39,5.386-11.846,9.669-19.393,9.669c-7.523,0-173.036,14.666-171.903,1.055c0.238-2.847,2.371-6.679,6.167-11.739
		c38.719,1.404,149.079-11.549,158.697-11.549c11.573,0,24.572-2.895,30.371-5.774c2.605-1.309,9.367,0.056,18.224,3.514
		C706.127,333.53,696.7,340.573,693.972,343.286z"></path>
</g>
</svg>
