<!--?xml version="1.0" encoding="utf-8"?-->
<!-- Generator: Adobe Illustrator 22.1.0, SVG Export Plug-In . SVG Version: 6.00 Build 0)  -->
<svg version="1.1" id="_x34_" xmlns="http://www.w3.org/2000/svg" xmlns:xlink="http://www.w3.org/1999/xlink" x="0px" y="0px" viewBox="0 0 800 416.89" style="enable-background:new 0 0 800 416.89;" xml:space="preserve">
<style type="text/css">
	.st0{fill:#040000;}
</style>
<g>
	<path class="st0" d="M798,351.22l-5.114-5.32c0,0-133.795-43.32-287.455-93.223c1.781,0.064,2.967-0.092,3.251-0.568
		c2.028-3.516,0.645-35.628-2.395-40.463c-3.045-4.834-7.261-8.414-9.052-9.211c-1.798-0.769-7.65-14.743-12.796-21.371
		c-5.151-6.629-18.804-17.095-40.728-29.887c-21.925-12.8-51.574-19.668-59.536-23.881c-7.957-4.221-36.145-27.698-40.28-31.764
		c-4.134-4.056-7.101-6.473-6.789-8.341c0.316-1.877,9.601,3.04,14.98,2.491c5.389-0.55-8.191-5.695-10.92-6.629
		c-2.728-0.934-8.583-3.36,1.795-2.106c10.379,1.245,11.858-1.877,8.191-2.966c-3.663-1.091-14.046-2.344-12.719-4.524
		c6.794-0.311,8.036-2.024,9.757-3.662c1.717-1.648-9.524-0.632-14.363-0.476c-4.834,0.155-20.437-4.368-20.437-4.368
		s-11.084-8.588-25.515-14.356c-14.435-5.778-35.271-7.802-39.482-8.507c-4.217-0.705-21.66-4.111-21.66-4.111
		s19.243-1.585,26.188,0.045c6.94,1.648,7.801-3.506,11.78-4.285c3.983-0.778,7.179-2.655,9.596-2.728
		c2.422-0.082,6.789,8.351,9.751,10.768c2.972,2.417,2.578-3.91,0.55-6.162c-2.028-2.271-4.373-5.54-5.384-8.122
		c-1.012-2.572,1.095-3.662,1.095-3.662c1.168-1.245,3.356,0.083,8.579,0.467c5.23,0.394,3.824,3.04,9.835,4.523
		c6.007,1.483,3.511-0.852,1.167-4.129c-2.34-3.278-11.47-6.245-13.264-7.024c-1.794-0.778,4.217-2.188,7.102-2.188
		c2.884,0,4.917,2.263,8.895-1.401c3.978-3.672-20.914-4.45-25.981-2.893c-5.078,1.566-23.176,3.36-25.982,2.885
		c-2.811-0.468-27.392-3.124-38.938-3.124c-11.547,0-25.981,2.893-56.724,2.582c-30.744-0.32-63.827,4.753-63.827,4.753
		c-5.699-14.907-28.87-25.986-49.234-7.728c-20.369,18.258-9.212,43.694-1.955,49.234l4.761,0.311c0,0,1.245,6.95,3.356,8.736
		c2.106,1.804,4.211,0.705,4.211,0.705s1.795,3.662,4.45,5.082c2.651,1.401,4.678,6.546,9.986,3.58
		c5.301-2.967,6.712-5.613,8.579-5.301c1.877,0.302,3.594,1.565,5.856-0.467c2.261-2.033,10.845-4.45,14.045-3.433
		c3.197,1.016,28.559,27.854,48.841,33.165c20.286,5.301,58.363,7.81,65.071,7.957c6.712,0.155,48.694,5.238,52.361,6.327
		c3.664,1.09,78.253,58.757,84.653,66.55c5.48,6.692,28.019,23.276,40.202,30.985C221.094,160.223,65.964,109.551,55.397,105.285
		c-23.115-9.294-33.573-28.395-46.9-25.043c-9.151,2.308-7.553,14.339-1.858,22.653c12.682,18.542,36.452,24.841,60.007,32.148
		c11.378,3.525,180.439,59.325,352.178,116.077c10.571,15.813,19.668,31.727,18.464,34.648c-2.422,5.851-4.601,10.301-12.878,10.841
		c-7.958,0.522-22.91,0.33-26.65,3.324c-124.213-34.666-240.218-67.099-266.854-74.662c-62.388-17.754-82.967-31.534-94.935-36.489
		c-11.972-4.954-21.38-2.537-16.995,8.04c4.387,10.566,25.186,21.289,54.225,31.544c29.045,10.264,658.019,188.157,663.193,187.479
		c5.183-0.649,9.546-18.816,9.546-18.816s-116.366-32.432-248.334-69.242c0.123-0.988,0.234-2.014,0.352-3.086
		c1.351-12.233-14.816-31.534-17.617-35.453c-1.612-2.253-7.632-12.334-12.613-21.967
		c166.59,55.049,321.719,106.371,321.719,106.371L798,351.22z M438.822,210.356c-2.696,3.699-4.043-0.677-4.043-0.677
		s-18.51-25.922-36.017-39.218c0,0,40.732,23.396,43.09,27.937C444.211,202.949,441.519,206.657,438.822,210.356z"></path>
</g>
</svg>
