<!--?xml version="1.0" encoding="utf-8"?-->
<!-- Generator: Adobe Illustrator 22.1.0, SVG Export Plug-In . SVG Version: 6.00 Build 0)  -->
<svg version="1.1" id="_x34_" xmlns="http://www.w3.org/2000/svg" xmlns:xlink="http://www.w3.org/1999/xlink" x="0px" y="0px" viewBox="0 0 643.856 800" style="width: 403px;" xml:space="preserve">
<style type="text/css">
	.st0{fill:#040000;}
	.st1{fill:#DE4163;}
</style>
<g>
	<g>
		<path class="st0" d="M54.984,522.742"></path>
	</g>
	<path class="st0" d="M388.106,265.113c84.294,35.066,91.994,124.014,82.787,201.733c-9.207,77.759,7.289,89.464,24.575,120.493
		c30.183,54.389,18.134,169.206-84.568,196.381c-153.247,40.559-261.221-10.805-265.84-84.589
		c-7.87-126.532,93.355-129.032,110.063-191.008c16.698-62.047,7.486-154.132,68.886-187.296"></path>
	<g>
		<path class="st0" d="M112.787,392.273C59.881,417.272,24.117,458.155,9.367,510.52c-20.462,72.791,2.701,155.528,32.925,201.571
			c23.027,35.075,58.689,56.705,103.284,62.705c47.292,6.253,99.961-6.798,128.091-31.737c7.496-6.597,8.179-18.099,1.543-25.566
			c-6.677-7.456-18.104-8.175-25.566-1.538c-17.183,15.196-57.767,28.409-99.313,22.865c-23.582-3.157-56.194-13.79-77.758-46.579
			c-21.525-32.931-46.882-105.814-28.298-171.938c11.979-42.541,40.246-74.572,84.017-95.272
			c8.998-4.289,12.934-15.094,8.624-24.129C132.637,391.878,121.858,388.004,112.787,392.273z"></path>
	</g>
	<g>
		<path class="st1" d="M304.296,286.085c-0.717,23.815,38.572,44.313,87.746,45.829c49.218,1.437,89.661-16.642,90.385-40.417
			c0.718-23.856-38.566-44.323-87.78-45.799C345.468,244.231,305.015,262.31,304.296,286.085z"></path>
		<path class="st1" d="M457.2,303.567c39.193-8.822,86.86-3.045,86.86-3.045c6.778,36.411-8.347,64.04-8.347,64.04
			c-39.669-26.051-85.666-53.731-85.666-53.731"></path>
		<path class="st1" d="M458.231,310.154c35.147,26.991,99.314,116.659,99.314,116.659c-26.593,26.041-58.042,28.782-58.042,28.782
			c-10.916-44.828-51.334-147.363-51.334-147.363"></path>
	</g>
	<g>
		<path class="st0" d="M238.556,203.298c-0.616,72.519,74.781,105.581,168.104,106.37c93.289,0.789,169.231-30.947,169.844-103.497
			c0.623-72.538-74.329-158.482-167.618-159.272C315.562,46.12,239.174,130.749,238.556,203.298z"></path>
		<g>
			<path class="st0" d="M550.013,147.625c39.123-68.826-4.067-143.298-4.067-143.298c-78.983,26.932-106.162,81.108-106.162,81.108"></path>
			<path class="st0" d="M266.04,145.226C228.121,75.682,272.539,2,272.539,2c78.539,28.277,104.756,82.889,104.756,82.889"></path>
		</g>
		<g>
			<g>
				<g>
					<path class="st0" d="M642.244,226.092c-0.167,4.067-3.555,7.264-7.628,7.122l-70.601-2.286
						c-4.007-0.183-7.224-3.531-7.122-7.608c0.106-4.047,3.525-7.264,7.597-7.112l70.641,2.265
						C639.133,218.595,642.35,222.014,642.244,226.092z"></path>
				</g>
				<g>
					<path class="st0" d="M548.07,235.328l73.576,29.714c3.763,1.537,5.614,5.817,4.071,9.54c-1.578,3.834-5.811,5.624-9.585,4.117
						l-73.54-29.744c-3.769-1.507-5.579-5.817-4.107-9.621C540.058,235.571,544.301,233.76,548.07,235.328z"></path>
				</g>
			</g>
			<g>
				<g>
					<path class="st0" d="M172.472,222.054c0.066,4.068,3.461,7.325,7.497,7.254l70.667-1.052c4.036-0.081,7.289-3.43,7.223-7.497
						c-0.035-4.006-3.424-7.295-7.461-7.223l-70.637,1.051C175.69,214.639,172.407,217.988,172.472,222.054z"></path>
				</g>
				<g>
					<path class="st0" d="M266.479,232.9l-74.056,28.438c-3.799,1.477-5.712,5.757-4.244,9.551c1.477,3.804,5.716,5.676,9.515,4.209
						l74.056-28.429c3.799-1.518,5.686-5.756,4.25-9.551C274.492,233.356,270.248,231.433,266.479,232.9z"></path>
				</g>
			</g>
		</g>
	</g>
</g>
</svg>
