<!--?xml version="1.0" encoding="utf-8"?-->
<!-- Generator: Adobe Illustrator 22.1.0, SVG Export Plug-In . SVG Version: 6.00 Build 0)  -->
<svg version="1.1" id="_x31__1_" xmlns="http://www.w3.org/2000/svg" xmlns:xlink="http://www.w3.org/1999/xlink" x="0px" y="0px" viewBox="0 0 800 641.049" style="enable-background:new 0 0 800 641.049;" xml:space="preserve">
<style type="text/css">
	.st0{fill:#040000;}
</style>
<g>
	<path class="st0" d="M99.106,69.019c0,0-13.222-24.33-9.055-25.023c4.167-0.701,20.179,4.159,24.365,8.335
		c4.132,4.168,16.633,13.925,16.633,13.925s38.956-0.729,56.319,15.265c17.363,15.967,100.07,52.141,124.4,52.141
		c24.32,0,148.711,7.642,183.472,9.01c34.725,1.404,113.977,6.976,131.366,15.293c17.354,8.352,44.456-55.599,18.749-81.314
		c-25.715-25.698-77.164-23.601-86.876,20.162c-2.097,5.553-1.394,22.925-1.394,22.925l-4.177-7.642c0,0-2.078,23.618,2.062,28.497
		c-16.66-5.572-44.446-40.306-25.688-75.067c-3.484,1.386-9.028,0-9.028,0s13.907-31.971,40.315-43.078
		c-6.256-2.07-4.861-6.256-4.861-6.256s34.041-11.115,56.985-6.948c1.394-2.07-3.475-7.642-3.475-7.642s35.436,0.675,50.719,21.521
		c0,0-0.701-9.73,2.773-11.089c9.73,12.511,46.579,24.986,46.579,67.389c2.763-4.159,7.633-9.028,7.633-9.028s0,43.816-9.72,66.714
		c-9.748,22.943-35.428,37.525-35.428,37.525s31.943,44.49,34.042,81.331c2.088,36.832,31.97,54.202,27.101,89.657
		c-4.87,35.436-2.089,91.736,13.915,107.02c15.967,15.293,31.961,38.91,31.26,50.721c-0.685,11.827,13.221,82.708,18.064,93.148
		c4.852,10.414-1.404,20.855-1.404,20.855s-9.721,15.967-14.573,15.274c-11.844,7.641-15.301,0-16.678-0.701
		c-11.116-1.396-7.651-11.116-4.878-14.573c2.799-3.483,3.465-72.286-9.037-89.685c-12.502-17.361-95.201-110.475-94.508-132.734
		c-19.469,29.198-36.138,20.171-38.911,49.352c-2.772,29.198,2.773,66.021,9.73,77.136c6.966,11.125-27.804,66.021-29.882,86.876
		c-2.097,20.864-11.818,34.068-20.846,30.576c-9.055-3.465-37.543,4.86-35.464-3.465c-11.107,1.386-5.544-4.176-8.335-4.176
		c-8.326-5.545,1.386-11.8,11.126-15.275c9.72-3.492,15.984,2.755,20.836-6.956c4.86-9.74,21.558-66.723,15.292-91.737
		c-6.238-25.022-38.92-93.833-38.92-118.144c0-24.33,0.712-47.974-13.906-50.738c-14.591-2.773-34.023,0-56.957,10.423
		c-22.933,10.423-76.462,31.98-108.415,31.278c-4.878,15.967-4.185,45.166-4.185,54.897c0,9.729-0.693,105.651-4.851,110.511
		c-4.186,4.852-19.452,49.325-26.409,50.026c-6.975,0.693-17.399-3.474-19.469-2.07c-2.088,1.368-22.951,8.317-23.635-0.702
		c-9.019,1.396-10.414-2.088-9.019-4.887c1.377-2.755,3.456-11.801,9.019-15.257c5.562-3.483,21.548-4.879,21.548-4.879
		s7.651-22.232,9.721-30.585c2.097-8.325-3.465-120.223-10.441-118.153c0,0-45.158,41.7-56.264,49.342
		c-11.143,7.66-35.464,25.023-35.464,33.375c0,8.344,8.361,29.181,11.846,34.735c3.447,5.589,2.763,16.677-0.693,18.082
		c-3.492,1.377-6.274,21.539-11.855,21.539c-2.763,6.265-15.264,7.651-15.264,2.79c-5.563,3.475-8.361,0-9.704-2.106
		c-6.984-2.088-6.984-5.543-4.194-11.808c2.799-6.238,7.642-13.898,5.536-22.908c-2.079-9.064-17.363-50.738-9.001-60.486
		c8.316-9.72,63.923-82.005,63.222-93.806c-0.685-11.845-14.599-29.91-29.189-57.695c-14.573-27.804-48.641-47.254-63.24-83.41
		c-14.591-36.129-18.064-47.93-43.078-43.762c-25.031,4.186-46.588,21.53-54.923,18.056c-8.325-3.475-4.167-9.028-4.167-9.028
		s-13.186,11.115-18.749,10.422c-5.571-0.702-4.869-7.642,4.159-15.986c9.045-8.343,32.673-25.022,29.198-27.785
		c-3.474-2.772-25.715,13.88-31.268,14.573c-5.554,0.702-19.469,0.702-19.469-9.713c-8.344-2.79-12.52-21.548-1.386-22.933
		c4.158-11.125,39.612-29.892,43.087-41.71c3.474-11.8,0-34.059,17.335-45.868C86.586,71.099,99.106,69.019,99.106,69.019z"></path>
</g>
</svg>
