<!--?xml version="1.0" encoding="utf-8"?-->
<!-- Generator: Adobe Illustrator 22.1.0, SVG Export Plug-In . SVG Version: 6.00 Build 0)  -->
<svg version="1.1" id="_x38_" xmlns="http://www.w3.org/2000/svg" xmlns:xlink="http://www.w3.org/1999/xlink" x="0px" y="0px" viewBox="0 0 599.661 800" style="enable-background:new 0 0 599.661 800;" xml:space="preserve">
<style type="text/css">
	.st0{fill:#040000;}
	.st1{fill:#FFFFFF;}
</style>
<g>
	<path class="st0" d="M312.603,798c-13.208,0-26.497-3.438-37.414-9.679c-21.9-12.517-22.945-34.474-21.174-49.306
		c-1.271,0.124-2.587,0.181-3.904,0.181c-8.964,0-16.704-2.996-22.377-8.67c-12.437-12.437-11.257-20.754-8.023-32.057
		c-0.125-5.003-9.328-22.081-18.599-32.681c-0.533-0.624-1.043-1.27-1.553-1.917c0.396,6.139,0.874,12.324,1.396,18.099
		c0.386,4.3,1.531,11.143,2.746,18.406c2.769,16.601,5.9,35.438,4.948,48.692c-1.339,18.849-20.404,28.392-56.67,28.392
		c-11.937,0-25.872-1.01-41.396-2.996c-17.725-2.281-29.889-8.795-36.153-19.359c-9.486-16.035-1.895-35.383,2.179-45.765
		c0.693-1.747,1.532-3.915,1.725-4.698c0.954-3.767-1.589-12.834-4.266-22.423c-1.952-6.979-4.165-14.866-6.06-23.921
		c-1.952-9.26-9.736-28.709-21.878-54.775c-7.49-16.068-14.48-29.991-16.386-33.758c-45.22-56.535-26.503-158.742-9.839-206.334
		c-10.927-46.32-0.953-93.39,9.498-125.038c8.987-27.223,20.675-50.361,28.8-63.069c-6.876-8.335-16.658-23.405-18.564-43.456
		c-3.302-34.531,13.39-74.673,51.654-84.591c10.032-2.598,19.37-3.915,27.756-3.915c16.341,0,29.3,5.056,37.333,14.23
		C180.743,40.264,235.496,2,295.571,2c1.691,0,3.404,0.047,5.106,0.114c52.516,1.934,76.994,13.198,102.9,25.123
		c5.174,2.383,10.518,4.851,16.102,7.229c4.845,2.059,9.317,3.846,13.696,5.441c8.568,3.109,18.418,8.011,28.506,14.167
		c20.085,12.278,58.405,40.438,89.305,91.082c32.102,52.601,47.899,115.093,46.934,185.675
		c-1.873,135.058-30.526,206.128-45.912,244.302c-3.688,9.146-6.605,16.375-8.261,22.128c-0.931,3.245-1.407,5.821-1.407,7.716
		c0,6.014-0.092,12.789-0.182,19.961c-0.363,25.487-0.794,57.238,2.905,72.024c6.287,25.123-9.487,40.545-19.79,45.708
		c-6.604,3.291-33.089,5.389-48.432,5.389c-19.03,0-30.706-2.315-37.332-7.603c-0.159,0.012-0.318,0.012-0.5,0.012
		c-4.164,0-11.779-1.657-15.91-12.698c-3.88-10.349,1.885-18.961,7.467-27.291c4.517-6.752,9.646-14.411,12.153-25.009
		c6.707-28.313-6.094-49.998-10.179-55.944c-3.857-5.64-7.591-9.01-10.122-10.689c-0.033,0.578-0.033,1.248-0.011,2.031
		c1.101,34.065-20.232,69.141-31.671,87.978c-1.997,3.279-4.243,6.979-4.8,8.215c-1.691,5.163-4.891,19.427-6.615,27.427
		c3.346,9.69,4.516,25.509-7.649,37.663C350.515,793.517,327.854,798,312.603,798L312.603,798z"></path>
	<path class="st1" d="M126.06,150.047c-19.654,13.101-33.816,21.424-43.031,29.452c3.11,1.543,0.75,0.557-0.193,0.159
		c-0.215,0.193-0.431,0.374-0.636,0.557c-3.12,7.296-30.298,73.521-27.881,156.869c2.565,88.398,81.975,121.691,93.505,122.974
		c11.529,1.282,24.352,17.928,30.752,20.504c6.4,2.553,19.223,25.612,64.046,26.894c44.834,1.282,49.963-29.47,49.963-29.47
		s0,0,12.812-10.235c137.068-11.541,119.126-158.855,119.126-158.855s44.846,5.129,56.375-76.857
		c9.782-69.663-47.932-161.522-65.498-187.547c-33.045-14.088-54.22-29.248-115.132-31.512
		c-67.088-2.48-130.543,49.259-146.01,59.393c2.417,5.532,7.683,17.492,11.507,25.163
		C170.883,107.783,152.954,132.112,126.06,150.047z"></path>
	<path class="st1" d="M456.195,63.368c4.97,6.479,13.289,18.741,27.269,41.845c33.293,55.081,73.01,106.331,78.14,216.494
		c3.653,78.435-17.93,142.185-19.223,180.631c-1.202,36.119-11.892,74.667-8.896,91.916c9.328-32.431,51.45-98.486,53.731-263.582
		C589.359,175.897,507.883,94.96,456.195,63.368z"></path>
	<path class="st1" d="M32.544,372.954c-0.601-2.769-1.259-5.107-1.941-7.126c-18.87,52.925-32.181,148.597,8.329,197.993
		c0,0,8.124,15.92,17.067,35.098c-10.508-42.396-15.774-76.915-15.774-99.156C40.226,472.869,36.392,390.882,32.544,372.954z"></path>
	<path class="st0" d="M328.455,148.764c-14.094-8.959-33.305-39.7-19.223-65.328c14.094-25.622,57.657-30.735,85.834-14.082
		c28.186,16.652,37.151,79.411,16.657,94.792c-20.493,15.377-11.528,28.187-17.929,35.87c-6.411,7.682-14.094-20.494-29.471-28.182
		C348.949,164.146,328.455,148.764,328.455,148.764z"></path>
	<path class="st0" d="M272.103,320.425c-14.104-12.8-16.658-55.082,3.836-58.916c20.494-3.847,29.459,8.964,44.823,30.741
		c15.377,21.775,43.563,48.68,24.352,66.621c-19.223,17.918-44.844,19.2-51.245,6.389
		C287.468,352.448,272.103,320.425,272.103,320.425z"></path>
	<path class="st0" d="M173.447,267.908c15.433-4.413,25.623,34.588,10.258,48.67c-15.376,14.094-29.47,51.246-37.153,57.657
		c-7.694,6.412-33.316-6.423-30.751-25.623c2.565-19.211,3.846-29.457,21.788-44.834
		C155.518,288.402,164.483,270.473,173.447,267.908z"></path>
	<path class="st0" d="M216.999,439.563c-6.399-3.836-28.165-8.965-30.741-20.494c-2.553-11.529,16.658-14.094,38.434-14.094
		c21.777,0,42.281-2.564,40.988,5.119c-1.272,7.682-26.895,25.633-30.741,30.751c-3.848,5.118-5.129,14.083,1.282,17.929
		c6.4,3.848,34.588-1.271,42.27-8.965c7.683-7.682,11.541-16.659,15.377-17.94c3.835-1.271-3.836,11.53-7.694,20.494
		c-3.836,8.975-25.612,20.504-49.953,21.776c-24.341,1.293-58.928-5.107-52.516-23.047c19.211,7.682,25.611,7.682,33.293,8.965
		C224.693,461.339,216.999,439.563,216.999,439.563z"></path>
	<path class="st0" d="M126.06,150.047c26.893-17.935,44.823-42.264,39.705-52.512c-3.824-7.67-9.09-19.63-11.507-25.163
		c-0.488,0.313-0.919,0.584-1.305,0.823c-5.129-15.381-24.329-24.346-58.928-15.381c-34.587,8.969-46.104,46.116-43.551,73.027
		c2.565,26.9,21.776,43.553,21.776,43.553c5.878,2.74,9.1,4.283,10.779,5.106C92.244,171.47,106.407,163.148,126.06,150.047z"></path>
	<path class="st0" d="M542.38,502.338c1.294-38.446,22.877-102.196,19.223-180.631c-5.129-110.163-44.846-161.413-78.14-216.494
		c-13.98-23.104-22.299-35.365-27.269-41.845c-10.338-6.31-19.495-10.667-26.542-13.237c-5.06-1.832-9.758-3.738-14.252-5.639
		c17.566,26.025,75.28,117.884,65.498,187.547c-11.529,81.986-56.375,76.857-56.375,76.857s17.941,147.314-119.126,158.855
		c-12.812,10.235-12.812,10.235-12.812,10.235s-5.129,30.752-49.963,29.47c-44.823-1.283-57.646-24.341-64.046-26.894
		c-6.4-2.576-19.223-19.223-30.752-20.504c-11.529-1.283-90.94-34.576-93.505-122.974c-2.417-83.348,24.761-149.573,27.881-156.869
		c-3.029,2.722-5.48,5.424-7.387,8.272c1.907-2.848,4.358-5.55,7.387-8.272c0.194-0.443,0.295-0.693,0.295-0.693
		s0.148,0.045,0.341,0.136c0.057-0.045,0.125-0.114,0.193-0.159c-1.679-0.822-4.901-2.366-10.779-5.106
		C62.003,185.923,9.475,279.437,31.263,363.988c-0.228,0.591-0.431,1.226-0.659,1.839c0.681,2.019,1.34,4.357,1.941,7.126
		c3.847,17.929,7.682,99.915,7.682,126.809c0,22.241,5.266,56.76,15.774,99.156c9.532,20.448,20.017,44.584,22.661,57.145
		c5.118,24.33,12.811,40.977,10.247,51.223c-2.565,10.258-26.894,49.963,23.059,56.364c50.269,6.457,84.54,2.576,85.833-15.364
		c1.271-17.93-6.423-51.246-7.694-65.329c-1.283-14.093-6.491-83.451,2.565-65.34c5.129,10.248,7.681,30.752,16.646,41
		c8.976,10.247,23.547,33.453,20.982,42.428c-2.565,8.965-3.836,12.801,5.129,21.776c8.965,8.965,24.352,5.13,30.752,1.271
		c6.399-3.836-15.751,37.538,14.4,54.775c20.187,11.518,54.775,14.411,83.587-14.411c12.153-12.153,4.005-28.971,4.005-28.971
		s5.118-24.34,7.672-32.034c2.564-7.683,37.151-52.529,35.88-92.245c-1.282-39.706,55.717,8.01,41.793,66.781
		c-5.934,24.964-23.864,35.711-20.016,45.957c3.846,10.248,8.965,2.565,11.518,6.412c7.955,11.903,70.468,5.129,75.586,2.564
		c5.117-2.564,19.211-12.822,14.082-33.316c-5.119-20.483-3.041-66.451-3.041-94.628c0-3.132,0.657-6.661,1.838-10.723
		C530.488,577.005,541.178,538.457,542.38,502.338z"></path>
</g>
</svg>
