<!--?xml version="1.0" encoding="utf-8"?-->
<!-- Generator: Adobe Illustrator 22.1.0, SVG Export Plug-In . SVG Version: 6.00 Build 0)  -->
<svg version="1.1" id="_x34_" xmlns="http://www.w3.org/2000/svg" xmlns:xlink="http://www.w3.org/1999/xlink" x="0px" y="0px" viewBox="0 0 800 787.498" style="enable-background:new 0 0 800 787.498;" xml:space="preserve">
<style type="text/css">
	.st0{fill:#040000;}
</style>
<g>
	<path class="st0" d="M66.099,85.419C51.83,98.384,54.427,128.204,29.79,139.876C5.165,151.537-6.519,168.391,9.045,176.173
		c3.89,7.782,10.367,11.661,28.527,7.782c18.148-3.89,72.605-20.746,82.973-23.343c10.367-2.586,38.882,1.293,60.934-6.477
		c22.038-7.781,32.417,15.562,18.148,57.043c-14.27,41.492-37.59,150.384-32.418,215.207
		c5.196,64.825,62.226,160.762,152.993,155.578c27.222,27.222,62.227,70.008,89.449,79.082
		c27.222,9.074,81.668,11.671,79.082-15.551c28.516,20.735,111.5,15.551,172.434-45.383
		c60.934-60.934,54.445-116.683,70.007-128.344c15.563-11.671,73.887-90.753,66.118-138.723c-3.891-6.477-10.38,1.294-15.551,6.477
		c-3.904-5.183-9.086-5.183-14.27,0c-5.183,5.196-6.487-1.293-18.148,3.902c-11.672,5.172-63.531,33.699-95.938,29.809
		c-32.418-3.89-84.278-28.515-141.308-38.894c-68.574-12.472-142.614,7.78-164.653-10.369
		c-31.266-25.753-63.52-70.008-50.567-141.308c12.966-71.312-19.441-172.434-86.864-169.837
		c-44.078-24.636-102.027-0.834-112.793,7.77C71.271,41.341,66.099,85.419,66.099,85.419z"></path>
	<path class="st0" d="M417.431,654.555c0.987,3.985,10.367,55.751,0,63.532c-10.367,7.78-79.081,11.671-89.45,11.671
		c-10.379,0-16.854,9.074-10.379,10.367c5.184,1.292-25.93,10.367-40.187,9.074c-14.27-1.292-7.782,10.379,3.878,9.074
		c11.684-1.293,58.348,5.184,46.687,12.966c-11.683,7.782-12.976,12.964-5.195,14.258c7.782,1.303,94.645-38.883,107.609-47.97
		c12.966-9.074,3.891-51.847,3.891-81.668C434.287,626.04,414.845,644.188,417.431,654.555z"></path>
	<path class="st0" d="M587.267,632.529c0,0,9.074,45.371,14.258,51.847c5.185,6.487-15.562,28.527-28.515,32.417
		c-12.977,3.88-40.2,19.442-38.907,12.966c1.305-6.489,9.074-16.855-12.952-18.16c-9.074-1.293-10.379-9.062,1.293-10.367
		c11.659-1.293,37.589-2.587,29.819-7.782c-7.781-5.184-1.305-7.77,9.063-6.477c10.379,1.293,28.527,9.074,24.636-10.367
		c-3.879-19.453-9.074-29.821-11.66-37.601C571.705,631.224,580.79,627.333,587.267,632.529z"></path>
</g>
</svg>
