<!--?xml version="1.0" encoding="utf-8"?-->
<!-- Generator: Adobe Illustrator 22.1.0, SVG Export Plug-In . SVG Version: 6.00 Build 0)  -->
<svg version="1.1" id="_x31__1_" xmlns="http://www.w3.org/2000/svg" xmlns:xlink="http://www.w3.org/1999/xlink" x="0px" y="0px" viewBox="0 0 491.497 800" style="enable-background:new 0 0 491.497 800;" xml:space="preserve">
<style type="text/css">
	.st0{fill:#040000;}
</style>
<g>
	<path class="st0" d="M1.504,486.381c2.556-54.244,26.639-102.451,40.56-126.073C39.016,259.696,77.413,209,89.013,187.935
		c13.172-23.966,21.568-38.348,15.571-53.929c-5.977-15.59-1.199-38.357,0-46.742s-9.575-29.972-16.77-44.355
		C80.618,28.532,56.652,10.547,49.455,5.76c-7.195-4.801,5.997-5.997,26.366,2.394c20.388,8.38,44.354,45.548,56.346,44.349
		c11.974-1.205,53.654,2.585,70.7,26.375c39.557,55.127,1.199,94.665-1.2,112.655c-2.399,17.979,2.399,21.567,11.993,41.935
		c9.595,20.388,57.527,62.344,88.689,81.513c31.162,19.169,83.892,62.333,127.046,113.853
		c43.154,51.55,65.922,142.637,59.925,155.83c-5.997,13.172-8.375-5.996-26.365-39.557c-17.97-33.56-56.327-68.32-85.11-94.694
		c-28.744-26.356-59.906-33.551-59.906-33.551s3.578,17.969,23.966,52.729c20.368,34.76,22.767,136.631,22.767,136.631
		c13.173,37.158-11.993,59.915-15.571,63.513c-3.597,3.617-5.997,8.394-4.797,11.993c1.2,3.597,4.797,11.993,5.996,20.368
		c1.2,8.395,7.176,27.583,5.977,33.58c-1.18,5.977-15.571-11.993-19.169-13.192c-3.598-1.2-5.997,22.767-14.371,20.388
		c-8.395-2.419-2.419-17.989-5.997-22.786c-3.599-4.798-7.196,3.597-11.993,4.797c-4.797,1.199,8.394-34.76,11.993-40.757
		c3.578-5.996,2.398-23.955-1.2-22.777c-3.598,1.219-59.945,22.777-77.915,19.199c-17.97-3.617-31.162-3.617-31.162-3.617
		c0,14.392-15.571,20.388-15.571,20.388s8.375,33.56,9.575,39.537c1.199,6.016,2.399,17.989-11.973,26.384
		c-14.392,8.375-32.361,34.76-38.357,34.76c-5.997,0-1.2-13.192-1.2-17.989c0-4.778-44.354,20.388-49.151,16.77
		c-4.777-3.578,9.595-22.746,9.595-22.746s-15.572,1.199-19.169-3.598c-3.599-4.797,56.327-32.362,61.124-40.757
		c4.798-8.395-2.399-29.982-2.399-29.982c-14.391-8.375-16.771-58.706-21.567-65.911c-3.735-5.604-40.186-62.098-64.625-148.545
		c-8.67,10.627-19.109,24.752-24.083,34.701c-8.395,16.77,5.997,56.328-1.2,61.125C30.267,585.844-2.074,563.087,1.504,486.381z"></path>
</g>
</svg>
