<!--?xml version="1.0" encoding="utf-8"?-->
<!-- Generator: Adobe Illustrator 22.1.0, SVG Export Plug-In . SVG Version: 6.00 Build 0)  -->
<svg version="1.1" id="_x31__1_" xmlns="http://www.w3.org/2000/svg" xmlns:xlink="http://www.w3.org/1999/xlink" x="0px" y="0px" viewBox="0 0 587.799 800" style="width: 368px;" xml:space="preserve">
<style type="text/css">
	.st0{fill:#040000;}
</style>
<g>
	<path class="st0" d="M581.896,3.665c-7.538,4.132-40.203,29.46-73.164,55.758c-32.961,26.296-63.331,36.466-63.331,36.466
		c-20.76-10.253-38.52-9.08-51.162-9.058C380.006,46.82,341.287,3.933,331.76,2.228c-9.516-1.706-7.748,6.717-7.748,6.717
		s-0.095,5.779,1.294,8.284c1.38,2.511,2.874,8.222,2.874,8.222s-1.136,7.58-0.873,10.291c0.263,2.716-1.021,10.791-1.021,10.791
		s0.126,3.2,0.252,6.4c0.116,3.2-1.526,14.327-1.526,14.327s-1.411,4.864-2.264,7.78c-0.842,2.921-4.358,11.391-4.358,11.391
		s-3.01,4.926-4.147,8.827c-1.126,3.885-4.842,11.248-6.874,12.764c-2.032,1.521-1.126,3.895-2.179,5.695
		c-1.052,1.811-7.285,14.238-8.895,14.296c-1.61,0.068-1.337,2.779-5.178,6.936c-3.843,4.165-17.392,14.459-21.444,17.508
		c-4.043,3.048-24.876,27.591-27.96,30.918c-3.074,3.321-12.465,17.475-15.822,21.78c-3.358,4.296-8.401,14.428-12.728,18.454
		c-4.347,4.011-18.338,23.155-21.696,27.45c-3.358,4.311-8.569,18.618-10.389,21.249c-1.811,2.637-9.381,14.159-13.033,19.434
		c-3.632,5.263-6.58,11.8-8.685,15.406c-2.116,3.605-10.391,21.238-13.623,28.744c-3.232,7.501-6.62,19.17-8.326,25.012
		c-1.695,5.837-22.224,87.439-24.603,92.028c-2.388,4.569-18.98,14.527-18.98,14.527s6.864,19.918,9.717,35.519
		c2.852,15.6,1.631,74.321-4.138,90.575c-5.78,16.254-32.087,16.001-53.015,29.96c-20.939,13.98-35.782,36.024-41.119,47.14
		c-5.338,11.118-4.99,28.087,0.632,16.002c5.62-12.086,23.064-24.949,43.561-33.771c20.486-8.801,48.73-8.001,54.014-4.337
		c5.264,3.621,27.486,14.295,30.403,15.138c2.915,0.842,28.371,36.718,44.698,60.467c16.317,23.708,32.224,77.901,35.582,73.607
		c3.358-4.296-4.148-40.214-13.369-62.931c-9.232-22.739-51.247-88.745-54.762-112.956c-3.516-24.234,16.538-60.616,20.475-66.848
		c3.905-6.253,10.569-0.106,10.569-0.106s0.915-17.665,2.884-24.487c1.99-6.8,31.519-46.761,38.93-54.088
		c7.4-7.348,13.243-5.663,21.833,1.052c8.611,6.717,12.495,40.572,15.253,45.582c2.758,5.012,0,0,3.979-21.012
		c3.991-20.992-2.347-68.195-1.484-71.1c0.843-2.927,41.983-57.43,87.775-91.612c45.793-34.167,83.448-87.576,83.448-87.576
		s27.844,31.282,33.771,43.562c5.927,12.264-3.21,32.818,0,32.697c3.201-0.127,10.444-3.29,19.171-26.076
		c8.726-22.786-30.971-78.627-30.971-78.627c19.739-28.023,44.614-113.625,49.099-121.825c4.495-8.186,1-7.096,7.022-16.939
		c6.042-9.858,55.384-59.884,67.511-69.015C587.443,6.328,589.433-0.482,581.896,3.665z"></path>
</g>
</svg>
