<!--?xml version="1.0" encoding="utf-8"?-->
<!-- Generator: Adobe Illustrator 22.1.0, SVG Export Plug-In . SVG Version: 6.00 Build 0)  -->
<svg version="1.1" id="_x35_" xmlns="http://www.w3.org/2000/svg" xmlns:xlink="http://www.w3.org/1999/xlink" x="0px" y="0px" viewBox="0 0 651.84 800" style="enable-background:new 0 0 651.84 800;" xml:space="preserve">
<style type="text/css">
	.st0{fill:#040000;}
</style>
<g>
	<path class="st0" d="M634.104,133.432c2.538-4.208,5.906-16.835,0-24.422c-5.899-7.604-12.628-32.857-32.859-47.182
		C581.032,47.486,569.235,2,504.359,2c-64.876,0-91.836,69.924-101.962,90.157c-10.107,20.215-49.703,53.071-69.086,58.979
		c-19.372,5.888-62.348,25.271-78.351,48.014c-16.013,22.759-53.93,54.769-69.095,59.828c-15.164,5.057-65.725,3.378-118.797,42.124
		c-53.089,38.765-79.21,97.744-58.139,162.611C29.992,528.6,67.908,579.142,65.379,587.578c-2.529,8.419-1.689,154.193,0,165.989
		c1.68,11.796,10.107,39.597,21.903,42.975c11.796,3.359,16.013,0.83,13.485-6.757c7.586,5.059,21.91,9.286,21.07-3.359
		c7.578,5.889,20.224,4.208,19.365-3.378c7.595,2.529,10.117,2.529,11.805-2.512c13.485,1.682,27.809,4.21,26.121-5.906
		c-1.68-10.116-8.428-14.324-8.428-14.324l-5.897-14.324c0,0,15.164,0.849,26.96,4.208c11.796,3.378,9.267,4.21,21.063,4.21
		c11.796,0,16.853-2.512,9.265-13.477c7.588,3.38,17.694-0.83,9.277-5.888c7.578-2.529,8.427-0.849,6.738-8.436
		c5.897,0,13.485-3.359,9.265-9.265c-4.208-5.908-5.897-18.535-5.057-23.592c0.849-5.059,0-26.12,6.739-37.916
		c6.746-11.796,5.906-53.922,1.689-63.189c-4.21-9.265-13.475-32.857-5.899-37.916c7.588-5.057,44.655-17.683,69.096-32.026
		c24.431-14.325,12.635-5.89,10.947-0.849c-1.689,5.076-6.739,81.757-2.521,107.028c4.21,25.271,38.758,127.226,38.758,133.113
		c0,5.906-2.53,27.8,10.105,26.97c8.428,5.059,26.122,18.534,37.077-2.529c5.059,5.889,25.28,10.947,29.49-8.418
		c7.586,4.21,21.062,4.21,23.592-10.116c2.529-14.324-7.587-18.532-7.587-18.532s-2.529-11.796-6.737-31.179
		c-4.21-19.382-7.588-36.235-5.899-41.294c1.689-5.057,36.237-85.1,48.872-103.632c12.636-18.535,17.692-87.628,15.164-119.638
		c-2.529-32.026,68.246-69.942,59.819-201.376c0,0,13.475-4.208,23.601-8.418c10.098-4.227,24.422,0,43.804-8.454
		c19.374-8.4,15.166-18.516,15.166-18.516s5.897-3.378,0-6.737c2.529-5.059,1.68-13.494-1.689-16.855
		c-3.37-3.377-10.107-7.585-10.107-7.585s5.057-14.326-0.84-18.553c-5.899-4.19-8.427-5.888-8.427-11.778
		C626.526,149.438,634.104,133.432,634.104,133.432z"></path>
</g>
</svg>
