<!--?xml version="1.0" encoding="utf-8"?-->
<!-- Generator: Adobe Illustrator 22.1.0, SVG Export Plug-In . SVG Version: 6.00 Build 0)  -->
<svg version="1.1" id="_x38_" xmlns="http://www.w3.org/2000/svg" xmlns:xlink="http://www.w3.org/1999/xlink" x="0px" y="0px" viewBox="0 0 800 799.009" style="width: 298px;" xml:space="preserve">
<style type="text/css">
	.st0{fill:#E61F19;}
</style>
<g>
	<path class="st0" d="M782.399,653.928l12.084-4.523V618.71l3.517-4.533l-3.02-3.012l-9.052,1.512l-9.057-12.584
		c0,0-6.548-105.675-7.047-107.181c-0.509-1.511,11.064-4.03,11.064-4.03v-29.685l1.52-3.019
		c-0.509-2.517-10.073-10.564-10.073-10.564l-7.547-0.509l-2.008-17.612l14.092-6.536l1-8.556c0,0,16.104-9.056,19.128-13.593
		c-7.047-1.502-53.341-10.558-54.852-10.558c-1.508,0-46.797,17.103-60.889,19.621c8.556,6.538,13.59,6.039,13.59,6.039l8.048,3.525
		v8.55l17.112,2.009l1.003,23.659l-9.559,9.054l0.503,3.52l7.545-0.501c0,0-40.681,10.474-82.484,20.953
		c-8.945-116.137-6.996-115.876-7.832-121.225c19.84,2.747,91.023,6.221,91.023,6.221l-0.685-28.807l2.758-0.833l-0.275-6.053
		c0,0-84.279-7.44-88.137-7.994c-0.27-2.202,0.275-4.951,0.275-4.951l3.304,1.647l4.681-3.025L619,298.45v-7.715
		c0,0,7.159-2.204,7.437-4.128c0.27-1.926,0.824-6.062,0.824-6.062s57.563,9.366,76.013,8.818l16.248-9.092l1.656-15.695
		c0,0,18.729-9.096,19.552-9.096c0.832,0,3.037-16.794,3.037-16.794l27.534,2.477l23.412-16.254l-30.016-7.431
		c0,0,4.127-11.297,3.857-13.498c3.026-1.93,2.202-4.406-0.554-5.786c-2.75-1.378-17.628,4.959-32.775,5.786
		c-15.149,0.833-172.134-14.595-310.948-52.052C285.463,114.473,57.887,52.248,4.222,2.387C1.126-0.488,1.68,13.36,3.376,17.582
		c0.846,6.752,1.687,15.2,1.687,15.2l11.82,10.136c0,0-0.849,5.903,6.752,10.127c-0.838,6.752-9.286,68.388-9.286,68.388
		s80.208,29.557,92.034,29.557l1.69,24.481c0,0,115.674,32.937,140.154,34.621c0,8.44,1.696,17.726,1.696,17.726
		s4.221,6.763,9.286,6.763c0,3.369,0,3.369,0,3.369l-30.395,7.605l0.84,10.135c0,0-68.394-12.672-126.647-27.025
		c-5.917,4.221-5.917,4.221-5.917,4.221v9.289h8.448v39.69c0,0,141.003,27.852,148.606,27.852c0,16.902-7.457,88.466-14.266,159.124
		c-10.519,4.642-18.686,8.127-20.611,8.651c-6.562,1.789-14.309,0-13.718-3.568c0.603-3.585,0.603-15.508,0.603-15.508l6.553-2.385
		l6.562-4.767v-8.937c0,0,13.702-5.962,17.276-10.135c-11.317-1.195-44.701-8.94-44.701-8.94l-31.005,1.787
		c0,0-17.277,14.308-19.666,14.896c0,1.193,17.288,4.769,17.288,4.769l0.594,10.735l7.155,1.784c0,0-7.749,259.915-8.349,262.285
		c-0.594,2.392-4.767,47.7-2.98,50.086c1.784,2.386,39.34,7.147,48.291,0.585c5.357-10.721-1.796-53.642-1.796-53.642v-50.07
		l24.413-1.653c-1.424,30.042-2.042,47.302-2.042,49.348c0,3.374-6.753,63.324-4.218,70.078c2.525,6.749,57.406,9.289,67.541,2.533
		c10.132-6.761,0.847-71.777,0.847-71.777s0.619-21.469,1.516-54.472l18.053-1.222l-2.983,62.006c0,0-3.573,66.767-2.386,69.744
		c1.193,2.982,26.231,5.959,35.77,5.959c9.541,0,32.789-1.789,33.977-5.363c1.193-3.573-5.959-70.936-5.959-70.936l-1.187-63.784
		l4.167-2.982l-0.594-36.366l5.96-1.188l1.193-5.374l-11.919-11.317l-1.792-139.498l7.752-5.366l0.594-36.355l-1.787-4.775
		l-1.193-8.337l-5.96-5.369l-0.594-16.095l5.96-0.594l17.288-11.326l1.187-9.541l23.847-15.502c0,0-53.651-9.533-60.205-12.513
		c-7.755,0-35.176,1.193-35.176,1.193l-17.305,10.698c0.077-17.927-0.099-29.938-0.628-33.224
		c29.554,6.763,254.147,41.377,290.447,44.752c0,10.152,0.838,70.698,1.883,138.973c-18.558,4.491-33.179,7.854-38.423,8.661
		c-2.519-2.505-2.519-5.528-2.519-5.528v-16.1l13.593-4.528l-0.509-9.062c0,0,10.572-2.511,15.101-8.048
		c-23.148,0-45.797-8.556-45.797-8.556s-36.232,14.086-44.279,14.589c7.55,4.531,15.095,6.539,15.095,6.539v8.056l15.601,1.51
		c0,0,0.176,7.9,0.463,20.814l-7.008,5.352c1.517,2.011,3.526,1.511,3.526,1.511v4.528l-5.033,1.506l1.508,28.184l7.869-1.875
		c0.564,25.68,1.23,56.216,1.841,84.759l-4.673,4.67v4.022l-1.511,3.022v25.668h6.976c0.625,29.867,1.071,52.405,1.071,55.847
		c0,11.579-1,35.724,0,37.247c1.011,1.505,31.204,5.027,41.771-1.523c0,0-3.02-43.269-3.02-44.774
		c0-1.511-4.028-46.302-4.028-46.302s14.49-0.676,35.168-1.721c0.488,26.407,0.877,44.359,1.065,47.177
		c0,18.578-2.535,45.598-1.696,48.973c0.849,3.38,24.492,7.608,40.53,7.608c16.05,0,31.059-4.227,31.903-6.767
		c0.841-2.534-7.602-63.33-7.602-63.33c-1.113-12.8-2.172-25.054-3.187-36.877c40.396-2.261,78.961-4.732,82.452-6.136
		c0,0,0,40.757,0,42.269c0,1.516-2.517,63.409-1.512,66.431c1.012,3.017,20.132,7.551,33.717,7.039
		c13.592-0.505,28.684-0.505,29.187-4.022c0.509-3.528-10.564-65.914-10.564-67.425S782.399,653.928,782.399,653.928z
		 M204.356,626.527c-2.98-1.199-3.571-6.562-3.571-6.562l1.193-102.525c0,0,15.123-4.482,34.309-10.595
		c-2.948,32.02-5.437,61.654-6.633,83.197c-0.702,12.63-1.329,24.316-1.892,35.185C216.179,626.124,207.154,626.686,204.356,626.527
		z M311.065,603.273l-4.775,14.908c0,0-6.309,0.614-15.76,1.5c1.042-39.729,2.238-87.146,3.258-132.732
		c7.837-3.108,14.195-5.965,17.871-8.263C311.065,491.798,311.065,603.273,311.065,603.273z M299.146,369.6v9.53l15.493,3.582
		l-1.193,42.926l-9.535,9.533v4.764c0,0-3.562,1.633-9.206,4.207c0.576-28.705,1.031-55.245,1.272-76.896L299.146,369.6z
		 M321.814,274.577c0.372-4.036,0.372-5.504,0.372-5.504l3.303,2.204l3.674-5.508l-29.747-24.245v-5.502c0,0,9.55-5.508,9.55-9.914
		c0-4.411,1.469-5.142,1.469-5.142l97.318,24.049c0,0-0.372,8.26,1.096,10.834c1.471,2.574,0.742,5.877,0.742,7.718
		c0,1.832,0.73,5.136,1.463,6.607c0.738,1.469,1.841,5.502,1.099,7.346c-0.73,1.832,0,4.406,0.372,5.508
		c0.369,1.096,0.369,5.874,0.369,5.874S328.063,277.151,321.814,274.577z M583.282,298.45c0,0-17.26,6.607-19.828,7.346
		c-1.102,1.832-2.205,3.303-2.205,3.303l3.673,2.574l0.37,1.833c0,0-62.429-6.608-81.526-12.116c1.469-5.142,0-7.713,1.838-8.448
		c1.832-0.736,2.934-5.514,1.832-7.715c-1.099-2.198-1.469-7.707,0.372-8.076c1.832-0.372,1.832-8.448,0-12.485
		c-1.841-4.042,0.73-9.365,2.57-8.63c1.835,0.73,77.487,15.607,82.26,15.97c0,0,0,15.794,1.102,16.896
		c1.102,1.1,10.28,3.674,10.28,3.674L583.282,298.45z M589.681,633.805l-34.724,2.517l2.511-2.517l-4.019-4.022l-4.028-90.577
		c0,0,16.3-3.403,38.954-8.17c0.563,35.963,1.151,72.044,1.682,102.547L589.681,633.805z M726.044,614.177v6.538l-66.926,5.54
		h-5.028v-4.528l4.02,1.006l2.017-3.011l-12.533-5.017c-3.11-36.787-5.675-67.994-7.797-94.56
		c42.619-9.084,84.521-18.203,85.748-19.18c0.5,13.072,4.022,104.161,4.022,104.161l-9.059,7.039v3.028L726.044,614.177z"></path>
</g>
</svg>
