<!--?xml version="1.0" encoding="utf-8"?-->
<!-- Generator: Adobe Illustrator 22.1.0, SVG Export Plug-In . SVG Version: 6.00 Build 0)  -->
<svg version="1.1" id="_x32_" xmlns="http://www.w3.org/2000/svg" xmlns:xlink="http://www.w3.org/1999/xlink" x="0px" y="0px" viewBox="0 0 800 703.667" style="enable-background:new 0 0 800 703.667;" xml:space="preserve">
<style type="text/css">
	.st0{fill:#040000;}
</style>
<g>
	<path class="st0" d="M710.103,1.759c3.547,0,8.334,2.201,10.649,4.893l73.915,86.183c2.316,2.693,3.758,7.762,3.221,11.265
		l-4.813,30.995c-0.546,3.503-3.881,6.372-7.419,6.372h-42.99c-3.546,0-9.003,1.372-12.119,3.053l-24.28,13.113
		c-3.124,1.673-8,1.321-10.843-0.809l-17.028-12.717c-2.834-2.12-8.061-3.863-11.608-3.863h-29.622c-3.547,0-6.891,2.87-7.437,6.373
		l-1.021,6.565c-0.537,3.502-3.881,6.371-7.427,6.371h-16.264c-3.538,0-5.993-2.87-5.457-6.371l6.847-44.231
		c0.545-3.494,3.714-7.366,7.032-8.598l45.903-16.985c3.335-1.232,6.487-5.104,7.032-8.607l10.314-66.628
		c0.547-3.502,3.898-6.372,7.437-6.372H710.103z"></path>
	<path class="st0" d="M669.665,201.399c-0.536,3.494-1.416,9.187-1.945,12.646c-0.537,3.441,0.739,8.598,2.842,11.458l0.563,0.793
		c2.103,2.851,3.38,8.052,2.825,11.555l-18.402,118.851c-0.545,3.494-3.141,8.316-5.773,10.692l-8.299,7.488
		c-2.622,2.385-5.228,7.191-5.764,10.694l-8.413,54.298c-0.547,3.502-1.426,9.24-1.972,12.734l-5.139,33.195
		c-0.545,3.503-3.881,6.363-7.427,6.363h-22.723c-3.547,0-6.001-2.86-5.457-6.363l3.02-19.536c0.554-3.502-1.919-6.372-5.457-6.372
		H551.58c-3.538,0-7.11,2.816-7.92,6.275l-3.969,16.677c-0.81,3.459-4.383,6.274-7.92,6.274H495.32
		c-3.547,0-6.003-2.869-5.466-6.363l1.197-7.744c0.555-3.503-1.9-6.373-5.455-6.373H448.21c-3.538,0-6.891,2.87-7.428,6.373
		l-1.197,7.744c-0.546,3.494,0.88,8.581,3.177,11.291l1.118,1.321c2.289,2.701,3.715,7.787,3.168,11.291l-0.044,0.299
		c-0.537,3.502-3.177,8.272-5.853,10.587l-35.422,30.661c-2.675,2.323-7.771,4.225-11.308,4.225h-11.318
		c-3.555,0-7.762-2.578-9.39-5.738l-2.702-5.289c-1.611-3.151-2.491-8.597-1.945-12.101l4.373-28.223
		c0.547-3.502,1.426-9.232,1.972-12.743l2.068-13.324c0.537-3.503-1.91-6.373-5.466-6.373H232.229c-3.546,0-6.002-2.868-5.456-6.371
		l5.246-33.803c0.528-3.502,3.326-8.069,6.196-10.146l23.092-16.66c2.869-2.086,8.132-3.775,11.669-3.775h164.006
		c3.538,0,6.759-2.086,7.163-4.647c0.397-2.569,2.904-6.565,5.589-8.879l10.693-9.258c2.675-2.315,5.315-7.076,5.852-10.579
		l3.943-25.433c0.545-3.502,3.881-6.372,7.427-6.372h15.973c3.546,0,6.002,2.87,5.456,6.372l-0.334,2.147
		c-0.537,3.503-3.89,6.373-7.428,6.373h-0.14c-3.556,0-6.891,2.868-7.437,6.371l-1.487,9.6c-0.546,3.503,1.399,4.735,4.321,2.729
		l84.194-57.872c2.922-2.015,5.747-6.521,6.293-10.015l15.339-98.988c0.537-3.494,3.881-6.363,7.427-6.363h7.604
		c3.538,0,5.993,2.87,5.448,6.363l-1.206,7.753c-0.537,3.494,1.918,6.363,5.465,6.363h23.19c3.538,0,6.881-2.869,7.418-6.363
		l0.547-3.538c0.554-3.502-1.1-6.372-3.662-6.372c-2.561,0-4.216-2.868-3.679-6.371l0.344-2.156
		c0.545-3.502,3.881-6.371,7.427-6.371h17.451c3.556,0,6.003,2.87,5.466,6.371L669.665,201.399z"></path>
	<path class="st0" d="M353.218,493.486c3.529,0.299,5.976,3.406,5.429,6.909l-5.244,33.873c-0.545,3.502-3.177,8.264-5.853,10.587
		l-9.619,8.316c-2.675,2.323-7.771,4.224-11.316,4.224h-9.453c-3.546,0-8.316-2.217-10.604-4.919l-4.277-5.052
		c-2.28-2.719-7.05-4.919-10.596-4.919h-3.872c-3.538,0-8.625,1.893-11.3,4.207l-19.3,16.703c-2.675,2.324-7.77,4.225-11.308,4.225
		H241.1c-3.538,0-8.308-2.218-10.605-4.919l-1.513-1.804c-2.297-2.702-3.723-7.779-3.177-11.283l4.453-28.751
		c0.545-3.503,3.415-7.955,6.381-9.891l29.094-19.018c2.966-1.936,8.29-3.52,11.837-3.52h3.873c3.546,0,6.054,2.508,5.579,5.589
		c-0.475,3.062,2.032,5.579,5.579,5.579h15.032c3.547,0,6.777-2.094,7.172-4.655c0.396-2.56,3.608-4.409,7.137-4.109
		L353.218,493.486z"></path>
	<path class="st0" d="M531.269,306.459c-0.475,3.071-3.767,5.588-7.304,5.588h-4.638c-3.538,0-6.056-2.517-5.571-5.588
		c0.466-3.072,3.757-5.589,7.304-5.589h4.629C529.236,300.869,531.744,303.387,531.269,306.459z"></path>
	<path class="st0" d="M120.718,418.885c-0.475,3.062-3.758,5.579-7.305,5.579h-4.629c-3.538,0-6.055-2.517-5.58-5.579
		c0.476-3.081,3.767-5.597,7.305-5.597h4.637C118.694,413.288,121.202,415.805,120.718,418.885z"></path>
	<path class="st0" d="M197.088,443.182c-2.279-2.71-7.058-4.919-10.595-4.919h-81.017c-3.538,0-6.882,2.851-7.427,6.363
		l-8.273,53.41c-0.545,3.502,1.918,6.371,5.457,6.371h12.717c3.547,0,6.803-2.288,7.225-5.069c0.44-2.781,3.45-5.053,6.715-5.053
		c3.247,0,5.482,2.87,4.936,6.373l-14.221,91.815c-0.545,3.503,1.91,6.372,5.457,6.372h7.26c3.547,0,6.891-2.869,7.437-6.372
		l0.334-2.191c0.546-3.502,3.89-6.371,7.437-6.371h6.31c3.556,0,6.002,2.869,5.457,6.371l-1.479,9.575
		c-0.545,3.502,1.725,5.342,5.025,4.066l23.876-9.161c3.309-1.276,6.46-5.184,7.005-8.686l5.122-33.072
		c0.536-3.494,2.499-8.845,4.338-11.863l7.85-12.867c1.839-3.018,3.784-8.36,4.33-11.863l6.846-44.248
		c0.546-3.502-0.88-8.59-3.159-11.291L197.088,443.182z"></path>
	<path class="st0" d="M56.694,695.536c-0.541,3.502-3.889,6.371-7.427,6.371H7.535c-3.546,0-6.002-2.869-5.46-6.371l1.875-12.083
		c0.545-3.502,3.881-6.371,7.432-6.371h41.731c3.538,0,6.003,2.869,5.457,6.371L56.694,695.536z"></path>
</g>
</svg>
