<!--?xml version="1.0" encoding="utf-8"?-->
<!-- Generator: Adobe Illustrator 22.1.0, SVG Export Plug-In . SVG Version: 6.00 Build 0)  -->
<svg version="1.1" id="_x31__1_" xmlns="http://www.w3.org/2000/svg" xmlns:xlink="http://www.w3.org/1999/xlink" x="0px" y="0px" viewBox="0 0 415.621 800" style="enable-background:new 0 0 415.621 800;" xml:space="preserve">
<style type="text/css">
	.st0{fill:#040000;}
</style>
<g>
	<path class="st0" d="M5.665,510.353c12.437-20.709,2.752-131.133,121.477-189.107c0,0,12.469-16.243,29.422-37.466
		c-3.634,2.017-6.582,3.569-8.501,4.476c-12.445,5.818-57.848,24.89-63.393,28.295c-4.809,2.964-13.816,9.354-20.684,12.628
		c-7.236,3.446-13.555,9.097-19.321,3.801c-2.899-2.658,4.826-5.181,7.93-7.599c3.053-2.368-1.275-2.131-11.384,3.108
		c-10.01,5.178-13.621-1.963-10.362-4.149c5.177-3.45,19.41-5.916,16.919-7.582c-1.028-0.694-7.937,2.241-19.328,4.826
		c-7.586,1.727-9.783-6.177-4.825-8.978c4.948-2.789,21.606-4.046,19.32-5.863c-1.724-1.38,1.028-3.242-12.764,0.698
		c-9.66,2.76-8.983-6.218-6.214-6.908c6.597-1.641,18.438-3.887,23.55-5.067c5.103-1.18,3.674-5.614,3.674-5.614s0,0-7.545-6.753
		c-7.554-6.757-1.397-16.879,2.335-12.347c3.732,4.524,13.425,9.767,13.425,9.767c10.656-1.421,15.996,5.022,15.996,5.022
		c6.835-1.563,44.415-20.288,61.253-29.973c4.393-2.52,11.245-6.749,18.986-11.608c-4.687-3.785-6.451-13.151-2.262-11.065
		c5.529,2.772,19.321-8.272,19.321-8.272c4.01-16.634,14.462-24.436,25.306-27.895c-0.22-3.086,0.041-6.226,0.923-9.387
		c4.703-16.83,36.24-31.998,27.593-74.534c-8.623-42.537,9.522-69.75,24.971-86.033c15.459-16.275,36.119-13.384,36.119-13.384
		c33.717-19.382,82.321-11.968,93.998,6.823c43.263,26.621,22.195,52.515,22.195,52.515c1.02,5.74,0.237,12.792,0.237,12.792
		c0.154,8.533-2.082,14.131,0.98,19.761c2.189,4.021,6.181,6.476,7.987,8.068c1.796,1.605,1.681,5.374-2.271,7.998
		c-3.944,2.617-0.686,5.847,1.102,7.101c1.78,1.265,5.283,2.768-0.204,8.215c0,0,4.948,2.789,1.119,7.452
		c0,0-4.581,3.511-3.291,8.223c1.307,4.699-2.376,17.732-22.276,16.16c-15.924-1.266-34.959,6.28-45.468,21.346
		c0.996,2.16,1.748,4.529,2.139,7.166c0,0-12.42,15.189-13.801,22.085c-1.38,6.904-19.328,74.535-69.018,131.133l-4.14,17.949
		c0,0,24.85,115.655,24.85,167.018c0,8.289-13.801,12.421-23.469,6.909c-9.669-5.528-33.13,1.38-53.847,2.76
		c-0.931,0.065-1.911,0.098-2.891,0.139c3.715,19.901,5.945,41.818,1.518,55.071c-4.793,14.405,4.149,31.741,0,56.599
		c-4.131,24.849-5.504,81.447,2.761,89.711c8.288,8.289,24.857,17.949,41.417,22.098c16.553,4.131,19.329,19.328,6.893,26.212
		c0,0-26.221,8.29-44.171-1.371c-17.94-9.652-57.962,5.528-64.87-11.04c-6.908-16.57,2.761-28.989,5.529-41.41
		c2.76-12.413-29.006-93.86-11.057-140.797c0,0-12.959-28.376-22.636-62.526c-7.799-1.143-15.802-2.434-22.914-3.724
		c-15.18-2.777-31.749,11.04-44.161-1.396c-12.437-12.421-16.57-1.381-28.989-2.752C8.417,528.286-6.756,531.045,5.665,510.353z"></path>
</g>
</svg>
