<!--?xml version="1.0" encoding="utf-8"?-->
<!-- Generator: Adobe Illustrator 22.1.0, SVG Export Plug-In . SVG Version: 6.00 Build 0)  -->
<svg version="1.1" id="_x31_2" xmlns="http://www.w3.org/2000/svg" xmlns:xlink="http://www.w3.org/1999/xlink" x="0px" y="0px" viewBox="0 0 627.026 800" style="enable-background:new 0 0 627.026 800;" xml:space="preserve">
<style type="text/css">
	.st0{fill:#040000;}
	.st1{fill:#FFFFFF;}
</style>
<g>
	<path class="st0" d="M622.451,348.342c-1.59-1.497-2.758-2.94-3.861-4.304c0.645,0.049,1.261,0.123,1.827,0.261
		c3.61,0.887,5.158-3.068,2.72-4.138c-2.069-0.902-8.773-3.078-12.619-2.59c-2.621-1.079-6.132-1.941-11.22-2.513
		c-17.584-1.96-22.868-2.813-27.242-2.729c-4.502,0.089-15.116-2.044-15.116-2.044c-2.587-1.724-16.441-19.75-30.976-40.634
		c-14.53-20.893-46.318-39.053-46.318-45.407c0-6.359-13.821-13.781-13.821-13.781c-14.263-12.589-26.867-12.599-33.576-16.79
		c-13.426-8.394-54.538-13.427-63.773-14.269c-4.871-0.448-18.45,0.842-26.012-7.55c-7.555-8.393-38.594-15.106-44.47-16.785
		c-0.291-0.079-0.582-0.231-0.867-0.335c0.965-0.527,1.925-1.044,2.709-1.572c7.954-5.303,38.861-11.663,52.346-19.218
		c16.564-9.275,9.275-31.137,9.275-31.137c0,10.682-26.277,25.665-55.204,34.89c7.393-4.669,14.751-9.471,16.771-13.909
		c4.418-9.717-3.537-22.966-3.537-22.966s1.763,3.536-2.65,15.903c-3.916,10.96-17.539,17.047-30.429,18.908
		c-0.345-1.639-0.714-3.447-0.999-5.732c-0.837-6.709,0-10.91,0.832-15.101c0.847-4.197,0.847-14.269,1.684-18.465
		c0.837-4.192,0-17.618-1.684-23.494c-1.675-5.877-14.263-29.371-44.466-29.371c-30.207,0-41.117,24.336-41.954,37.758
		c-0.842,13.422-0.842,31.886,1.68,33.571c2.517,1.669,2.517,7.546,0,12.579c-2.517,5.029,10.029,15.071,4.211,12.604
		c-11.727-20.268-27.499-47.885-34.556-60.251c4.802-3.128,9.427-6.329,10.62-7.832c2.729-3.408,7.491-12.255,2.729-10.895
		c-3.34,0.955-12.688,4.905-17.992,7.201c-0.123-0.241-0.246-0.483-0.375-0.729c1.384-0.94,2.679-1.91,3.817-2.852
		c8.23-6.812,2.246-14.963,0.059-18.539c-0.448-4.261,0.547-5.852-6.058-7.314c0.393-4.177-4.462-6.314-12.062-6.191
		c-1.433-2.659,1.463-6.6-8.797-5.033c-0.094,0.015-1.64,0.07-1.729,0.079c-8.866-16.48-19.712-39.25-22.036-42.826
		c-3.718-5.718-8.845-1.216-9.92,0.685c-1.029,1.807-1.866,6.778,0.621,10.353c1.817,2.625,12.259,24.523,19.071,38.151
		c-3.635,3.108-8.122,7.901-9.609,11.565c-1.571,3.886-0.182,10.943-16.762,16.973c-16.406,5.964-37.999,23.316-37.999,23.316
		s-8.403,0.429-10.914,5.462c-1.556,3.094-18.756,34.295-13.712,43.94c8.373,16.012,46.432,44.16,52.307,50.873
		c5.881,6.709,39.438,33.562,46.15,38.595c6.708,5.033,14.145,45.845,14.145,45.845s14.54,50.864,16.347,59.936
		c1.818,9.082,0,30.882,5.453,34.512c5.452,3.636,9.081,39.954,9.081,45.412c0,5.447-1.748,15.597-17.336,16.514
		c-28.528,1.68-78.919,23.44-91.646,25.252C61.9,474.003,10.74,501.087,3.475,528.329c-7.27,27.247,7.57,63.743,22.1,72.816
		c14.534,9.081,26.567,11.934,26.567,11.934s20.662,26.207,36.999,31.664c16.353,5.443,78.11,34.493,81.736,47.22
		c3.635,12.716,1.255,35.221,0.413,58.715c-0.694,19.549-8.387,42.796,1.404,39.368c5.452,10.885,10.899,9.062,18.165,3.635
		c7.265-5.458,27.005-60.351,32.452-85.775c0,0,10.91,0,38.6-37.762c9.239-12.599,18.85-31.882,27.695-36.084
		c17.613-8.393,62.906-30.945,74.708-38.821c16.342-10.895,22.705-19.524,31.788-23.159c9.077-3.631,34.507-1.808,36.325-14.52
		c1.818-12.723-1.813-21.8,1.818-27.247c3.63-5.448,18.879-30.612,18.16-59.941c-0.907-37.231-61.749-83.548-70.837-85.366
		c-2.359-0.473-5.826-0.694-9.658-0.774c-6.25-13.539-18.51-36.639-26.089-50.706c-0.72-4.221,4.191-11.649,2.522-14.963
		c-1.685-3.364,7.545-33.571,5.033-35.25c-2.512-1.675,18.465-3.359,26.011-5.034c7.555-1.68,13.427,3.359,20.972,2.522
		c7.56-0.846,17.628-1.68,20.987-0.846c3.359,0.846,10.555,5.225,20.617,6.062c0,0,2.882,8.216,10.442,6.531
		c7.54-1.664,17.618-1.674,20.13,0c2.522,1.684,15.105,17.632,29.37,25.178c14.269,7.55,34.797,20.47,36.388,26.848
		c0,0-6.373,10.728-7.24,15.899c-0.857,5.177-4.304,21.572-6.9,23.296c-2.581,1.729,1.724,9.497,6.043,6.044
		c4.314-3.453,6.901-9.487,6.033-12.939c-0.856-3.458,7.772-12.944,12.082-14.678c4.32-1.724,15.524-4.311,18.982-2.582
		c3.453,1.724,14.673,5.177,16.397,11.21c1.724,6.05,2.586,15.535,6.895,14.673c4.31-0.861,4.748,1.724,3.019-6.472
		c-1.724-8.201,0.434-13.372-3.019-17.248c-3.448-3.892-12.939-8.634-12.505-10.359c0.432-1.724,15.958,1.29,19.41,3.019
		c3.453,1.729,8.629,10.462,10.343,11.324c0,0,3.373,7.91,4.408,8.801c2.384,2.039,12.85,3.596,5.305-10.747
		c-6.472-12.288-9.058-13.584-9.058-13.584l-10.136-6.146c0,0,5.674,0.66,9.122,1.531c3.448,0.857,7.728,4.738,9.019,6.029
		c1.29,1.295,2.447,4.772,4.6,5.211C623.249,357.287,628.929,354.376,622.451,348.342z M158.702,154.097
		c-4.192,0.837-12.58-2.522-15.096-5.876c-2.517-3.354-14.259-1.261-17.613,1.251c-3.354,2.522-6.718-6.708-10.905-5.028
		c-4.196,1.669-2.522-5.039-5.88-9.236c-3.354-4.197-10.909-8.801-10.909-8.801c2.507-1.675,22.913-25.292,27.331-27.41
		l11.649-7.333c5.501,1.32,10.116,1.521,14.15,1.128c1.339,1.944,2.467,3.501,3.315,4.55c-2.477,2.655-4.688,5.172-5.659,6.137
		c-2.039,2.049-6.128,7.491-2.039,8.171c4.088,0.685,11.58-4.083,11.58-4.083s2.059-1.246,4.901-3
		c7.131,12.2,21.942,37.541,33.557,57.391c-1.049,0.738-2.055,1.369-3.128,1.369C190.588,163.327,162.904,153.26,158.702,154.097z
		 M296.197,553.015c0,0.005-0.014,0.014-0.024,0.024c-1.453,2.522-5.236,10.466-1.335,16.318c5.457,8.181-19.067,32.7-27.238,35.423
		c-8.181,2.723-17.712-8.176-29.966,1.365c-12.264,9.535-31.34,44.948-31.34,44.948c-4.082,0-10.894-1.36-16.342,1.365
		c-5.447,2.723-27.247-23.159-35.418-32.694c-8.177-9.537-29.976-25.884-25.877-28.607c4.082-2.723,12.254,0,17.701-4.088
		c5.458-4.082,14.983-6.807,14.983-6.807s13.624,4.083,20.435-1.364c6.817-5.452,29.971-6.816,38.141-5.452
		c8.177,1.359,27.248-1.364,31.336-5.448c4.083-4.083,9.53-2.723,19.07-6.812c9.506-4.073,23.085-4.087,25.848-8.146
		C296.754,552.044,296.976,551.857,296.197,553.015z M355.651,384.525c-4.98,0.225-8.59,0.482-8.59,0.482
		s-2.394-12.805-4.009-24.075c3.772,7.698,7.988,15.771,12.445,23.346C355.552,384.366,355.597,384.436,355.651,384.525z"></path>
	<path class="st1" d="M215.151,117.103c0,0,20.434,4.763,57.902-1.699c0,0,1.36,17.588-0.911,22.129
		c-0.941,1.876-9.836,2.827-20.184,3.133c-2.339,0.058-4.758-1.429-7.181-1.424c-2.645,0.005-5.284,1.508-7.826,1.449
		c-9.762-0.217-18.052-0.906-19.303-1.793C214.476,136.632,212.881,118.468,215.151,117.103z"></path>
</g>
</svg>
