<!--?xml version="1.0" encoding="utf-8"?-->
<!-- Generator: Adobe Illustrator 22.1.0, SVG Export Plug-In . SVG Version: 6.00 Build 0)  -->
<svg version="1.1" id="_x33_" xmlns="http://www.w3.org/2000/svg" xmlns:xlink="http://www.w3.org/1999/xlink" x="0px" y="0px" viewBox="0 0 800 621.221" style="enable-background:new 0 0 800 621.221;" xml:space="preserve">
<style type="text/css">
	.st0{fill:#040000;}
</style>
<g>
	<path class="st0" d="M225.321,241.318c-1.245-1.432,0.733-4.084,2.722-3.431c1.987,0.659,4.616,1.122,8.012,2.339
		c3.393,1.207,4.592,2.923,7.254,4.907c2.653,1.975,4.154,7.066,4.167,10.376c0.007,3.317,2.306,10.652,2.306,10.652l9.569,5.429
		c1.621-2.267,2.797-3.827,2.797-3.827l4.539,3.389c1.038-1.214,1.887-1.942,2.405-1.849c2.63,0.474,49.799,29.672,55.77,31.64
		c5.977,1.97,9.159,4.345,12.351,6.723c3.187,2.38,34.074,11.508,37.42,13.002c3.342,1.504,15.501-0.843,15.501-0.843
		s2.797,0.336,6.184,0.746l-0.774-0.679c0,0,4.249-1.045-3.955-5.674c-8.202-4.627-11.971-13.881-13.676-24.572
		c-1.698-10.691-2.046-31.528,15.272-37.466c23.591-10.689,39.375,2.065,41.74,6.55c2.357,4.486,0.31,10.896,0.31,10.896
		s-0.828,2.109,2.046,6.236c2.877,4.127,4.207,9.333,4.373,13.425c0.174,4.097,0.61,16.822,0.61,16.822l-0.052,4.937
		c6.136-2.111,11.07-3.756,12.544-4.063c4.688-0.966,21.85-6.031,26.226-5.25c4.381,0.784,4.381,0.784,4.381,0.784l50.265,1.753
		c9.376-1.94,18.258-36.483,18.258-36.483s0.912-0.054,2.35-0.095l1.216-4.69c0,0,1.696,0.079,4.246,0.34
		c0.858-3.551,1.575-7.035,1.298-7.783c-0.622-1.609-2.516-6.164-2.516-6.164c-4.757-5.37-5.228-11.17-7.624-14.608
		c-2.397-3.435-4.664-9.267-6.138-12.841c-1.472-3.566,0.885-4.957,2.588-4.355c1.977,0.704,3.22,3.886,4.309,6.192
		c1.096,2.303,3.615,3.351,4.787,3.558c1.169,0.21,2.273-2.606,1.196-6.699c-1.073-4.112-2.948-10.468-2.376-13.679
		c0.574-3.215,3.684-2.052,4.564,1.42c0.882,3.469,1.998,12.397,5.814,11.275c0.903-0.267,1.025-12.464,1.717-18.059
		c0.7-5.598,4.763-3.069,4.781,0.251c0.005,3.313-1.037,17.575-1.037,17.575s1.098,2.306,2.469,1.348
		c1.377-0.959,3.047-10.294,3.276-13.269c0.226-2.972-0.63-4.924,1.915-5.675c2.543-0.753,3.639,1.55,3.169,4.176
		c-0.472,2.628-1.842,12.013-1.998,12.894c-0.159,0.869,0.002,3.307,1.461,3.569c1.461,0.259,2.827-4.009,4.294-8.867
		c1.475-4.852,4.744-1.26,3.746,0.971c-0.997,2.234-2.73,8.544-3.436,10.819c-0.713,2.283-3.042,13.614-2.945,18.146
		c0.096,4.533-4.373,16.079-4.373,16.079l-0.423,8.098c1.82,0.817,3.467,1.783,4.775,2.918c-0.008,1.261-0.233,2.486-0.539,3.63
		c0.267,0.546,0.433,1.138,0.475,1.778c0.251,3.656-19.785,55.174-23.195,59.081c-3.406,3.907-37.11,10.535-42.517,10.469
		c-5.404-0.056-8.66,2.972-8.66,2.972l-5.094-1.817l9.251,34.172l6.377,4.755l30.979,13.658c0,0,2.004,3.976,0.343,8.193
		c-1.656,4.217-5.686,11.629-5.686,11.629s19.508,7.096,21.974,8.434c2.468,1.353,6.471,9.297,6.471,9.297l49.232,27.759
		c0,0,63.554,28.511,66.027,29.854c2.464,1.343,54.924,41.427,54.924,41.427l11.939,3.943l15.317,15.379
		c0,0,16.882,6.628,22.69,9.472c5.818,2.844,2.13,18.446-9.872,19.914c-12.008,1.458-19.165,1.089-19.165,1.089l-6.595,1.532
		l-14.503-9.82c0,0-12.816-4.091-15.379-9.969c-2.563-5.875-17.537-13.074-17.537-13.074s-50.431-26.163-53.207-25.76
		c-2.785,0.412-78.028-28.381-77.055-23.688c0.967,4.681,36.008,46.172,36.008,46.172s77.278,17.408,80.778,18.031
		c3.498,0.625,8.504-2.091,8.504-2.091s1.875,2.885,4.095,6.659l6.655-1.119c0,0,9.228-1.069,11.543,1.15
		c2.31,2.221,7.5,8.562,7.5,8.562s20.723,15.444,23.909,17.834c3.193,2.367,11.659,15.623-2.404,18.528
		c-14.064,2.908-11.538-1.15-17.352-4.005c-5.813-2.844-19.914-9.874-23.412-10.496l-5.35-0.964
		c-2.911,3.953-6.363,6.999-9.186,6.49c-6.13-1.087-12.192-7.588-14.82-8.065c-2.625-0.464-75.716-0.876-83.842-5.938
		c-5.291-3.3-50.87-39.767-82.105-64.871c-4.905-2.739-11.846-7.009-14.27-7.443c-1.649-0.295-4.358-4.799-6.76-9.482
		c-5.217-4.207-8.4-6.774-8.4-6.774s-14.532,5.526-18.193,5.78c-3.657,0.253-20.789-35.324-22.064-38.266
		c-1.285-2.936-62.897-72.649-65.62-77.655c-2.72-4.998-22.695-34.761-22.695-34.761s-55.827-26.231-60.613-29.795
		c-4.781-3.561-55.3-34.258-51.735-39.047l0.159-0.226c-1.323-1.137-2.574-2.434-3.086-3.604c-0.249-0.577,0.105-1.772,0.818-3.305
		c-4.947-3.766-9.997-7.668-9.997-7.668s-8.012-2.331-12.099-3.064c-4.085-0.732-7.317-7.931-8.009-10.768
		c-1.252-1.427-2.963-5.344-2.336-8.844c-2.262-2.513-1.242-6.541-0.082-9.648C214.399,241.771,219.75,238.817,225.321,241.318z" style="fill: rgb(221, 221, 221); opacity: 1;"></path>
	<path class="st0" d="M46.301,100.703c0,0,71.728-64.343,78.053-71.727c6.33-7.383,6.33-7.383,6.33-7.383l84.384-20.039
		c0,0,15.821,46.409,20.041,52.738c-6.331,20.045-6.331,47.465-6.331,47.465s-35.861,60.123-36.915,63.285
		c-1.057,3.175-33.751,10.556-35.866,13.72c-2.106,3.164-34.806,42.187-40.079,44.299c-5.276,2.111-40.084,2.111-40.084,2.111
		l-63.287,8.436L2,177.702L46.301,100.703z" style="fill: rgb(221, 221, 221); opacity: 1;"></path>
	
		<rect x="189.226" y="141.411" transform="matrix(0.7632 -0.6462 0.6462 0.7632 -87.7928 172.8079)" class="st0" width="5.274" height="129.534" style="fill: rgb(221, 221, 221); opacity: 1;"></rect>
	<polygon class="st0" points="117.741,209.383 151.085,200.001 166.695,173.993 168.502,175.082 152.467,201.805 118.306,211.412 
		118.306,211.418 	" style="fill: rgb(221, 221, 221); opacity: 1;"></polygon>
	
		<rect x="125.715" y="184.558" transform="matrix(0.9674 -0.2534 0.2534 0.9674 -42.1791 43.7099)" class="st0" width="45.794" height="2.111" style="fill: rgb(221, 221, 221); opacity: 1;"></rect>
	<path class="st0" d="M211.411,282.109L211.411,282.109c-0.978-1.266-0.751-3.085,0.517-4.063c1.266-0.979,3.083-0.751,4.06,0.525
		c4.167,5.37,11.886,6.349,17.274,2.198c5.367-4.168,6.345-11.885,2.202-17.267l-14.181-18.326c-0.98-1.268-0.746-3.085,0.517-4.06
		c1.263-0.982,3.084-0.746,4.065,0.52l14.18,18.325c6.118,7.904,4.661,19.271-3.237,25.394
		C228.896,291.468,217.525,290.016,211.411,282.109z" style="fill: rgb(221, 221, 221); opacity: 1;"></path>
</g>
</svg>
