<!--?xml version="1.0" encoding="utf-8"?-->
<!-- Generator: Adobe Illustrator 22.1.0, SVG Export Plug-In . SVG Version: 6.00 Build 0)  -->
<svg version="1.1" id="_x31_1" xmlns="http://www.w3.org/2000/svg" xmlns:xlink="http://www.w3.org/1999/xlink" x="0px" y="0px" viewBox="0 0 545.495 800" style="width: 341px;" xml:space="preserve">
<style type="text/css">
	.st0{fill:#040000;}
	.st1{fill:#FFFFFF;}
</style>
<g>
	<path class="st0" d="M542.144,502.483c-8.503-16.99,1.094-23.762-59.499-64.804c-32.932-22.317-41.46-29.622-57.371-41.435
		c-2.597-1.924-4.623-12.81-8.503-15.936c-4.124-3.335-22.31-10.62-24.433-12.754c-2.124-2.123,3.191-39.307,3.191-39.307
		s11.685,5.316,12.744-12.743c0.376-6.374,0.081-38.818,0.779-49.342c6.262,4.572,11.939,7.607,15.162,10.031
		c4.246,3.187,5.311-1.065,12.744,0c7.438,1.058,7.438-4.252,7.438-4.252s10.626,5.31,18.065,3.188
		c7.429-2.123,10.615-8.497-1.064-12.749c0,0,0.499-1.008,1.038-2.485c14.577-0.148,30.04-0.408,36.898-0.5
		c0.087,0.53,0.209,0.876,0.387,0.943c1.574,0.574,14.23,3.13,15.947,0.147c1.72-2.989,0.819-19.831-0.687-21.929
		c-1.512-2.103-14.378,0.428-14.378,0.428s-0.036,0.326-0.102,0.906c-2.796,0.108-6.828-0.056-8.437-0.117
		c-1.044-0.046-4.678-0.199-8.1-0.341c1.664-4.496-0.403-13.279-3.442-15.3c-3.187-2.123-18.059,3.182-21.246,1.058
		c-3.188-2.123-12.755-2.123-12.755-2.123s-16.994,0-25.497,0c-3.136,0-6.421,0.729-9.582,1.742
		c0.712-4.852,1.731-9.485,3.207-13.426c6.374-17.005-4.251-40.374-5.316-47.808c-1.058-7.439-8.492-20.198-9.556-24.445
		c-1.059-4.246,2.128-10.136,2.128-10.136c0.943-3.778-2.84-6.624-3.783-10.402c-0.947-3.783,13.916-21.069,14.899-24.994
		c0.982-3.935,5.895-28.522,5.895-28.522c8.849-36.379-10.814-60.96-38.344-62.926c-27.54-1.96-45.237,15.727-51.139,29.5
		c-5.9,13.767-4.908,43.267-4.908,51.133c0,7.861-0.992,22.617-5.901,25.559c-4.919,2.953-1.818,5.525-1.818,8.365
		c0,0-11.588,5.428-14.775,10.738c-3.188,5.316-20.182,6.375-28.686,19.118c-8.497,12.76-15.936,21.257-14.871,28.691
		c1.063,7.439,1.063,13.813-3.188,19.124c-4.251,5.31-8.497,15.941-7.439,20.192c1.065,4.251,9.562,19.119,7.439,25.493
		c-0.046,0.127-0.097,0.27-0.138,0.408c-89.737-0.331-228.357,0.723-241.035,10.219c-10.416,7.805-12.749,11.69-12.749,11.69
		s24.118-2.995,59.55-4.038c51.775-1.517,127.694-2.591,187.778-2.067c-2.414,6.553-4.043,12.994-1.904,15.666
		c4.246,5.31,10.62,16.995,8.497,23.371c-2.123,6.374,2.764,11.975,7.439,24.438c3.187,8.497,0,23.375-3.188,29.744
		c-3.187,6.375-15.936,22.316-28.689,44.622c-12.744,22.311-14.872,35.065-12.744,40.375c2.123,5.311,3.187,21.247,6.374,24.435
		c3.182,3.187,6.37,10.62,8.498,13.808c2.123,3.188-3.193,41.439,5.31,47.813c8.503,6.375,53.883,15.021,52.06,22.311
		c-2.123,8.503-4.251,23.37-9.562,49.938c-5.311,26.556,0,97.74-3.187,111.554c-3.188,13.807-7.439,26.557,1.063,52.065
		c8.498,25.498,16.996,43.552,40.371,41.413c12.8-1.15,16.353-1.68,16.955-1.904c2.454,0.398,9.017,1.039,14.918-2.331
		c7.439-4.257,4.251-18.055-2.123-22.311c-6.369-4.256-27.626-43.562-30.814-49.937c-3.354-6.716,6.41-41.863,8.503-46.739
		c6.374-14.878,22.31-44.627,30.808-72.249c7.454-24.22,38.252-14.877,33.996-45.69c0,0,38.253,24.44,45.686,27.627
		c7.438,3.187,44.626,11.69,54.187,6.375c9.557-5.316,29.745-10.627,33.996-20.188C529.39,560.917,550.641,519.483,542.144,502.483z
		"></path>
	<path class="st1" d="M353.026,53.08c0,0-3.186,25.493,0,28.68c3.188,3.187,28.686,4.251,34.001,3.187
		c5.311-1.063,7.434-2.123,12.749,0c5.316,2.124,11.685,1.065,11.685,1.065s7.439-22.311,5.31-27.621
		C414.649,53.08,362.588,53.08,353.026,53.08z"></path>
</g>
</svg>
