<svg aria-hidden="true" style="position: absolute; width: 0; height: 0; overflow: hidden;" version="1.1" xmlns="http://www.w3.org/2000/svg" xmlns:xlink="http://www.w3.org/1999/xlink">
<defs>
<symbol id="border" viewBox="0 0 32 32">
<path d="M29.834 10.647l-8.753-0.76-3.418-8.047c-0.615-1.465-2.712-1.465-3.327 0l-3.418 8.065-8.734 0.741c-1.591 0.126-2.242 2.116-1.031 3.165l6.637 5.751-1.989 8.536c-0.362 1.555 1.32 2.785 2.695 1.953l7.505-4.521 7.505 4.539c1.374 0.832 3.056-0.398 2.695-1.953l-1.989-8.553 6.637-5.751c1.212-1.049 0.579-3.038-1.012-3.165zM16 22.148l-6.8 4.105 1.809-7.74-6.004-5.208 7.921-0.687 3.074-7.288 3.092 7.306 7.921 0.687-6.004 5.208 1.809 7.74-6.818-4.123z"></path>
</symbol>
<symbol id="half" viewBox="0 0 33 32">
<path d="M30.447 10.561l-8.894-0.772-3.473-8.177c-0.625-1.488-2.756-1.488-3.381 0l-3.473 8.196-8.876 0.753c-1.617 0.129-2.279 2.15-1.048 3.216l6.744 5.844-2.021 8.674c-0.367 1.58 1.341 2.83 2.738 1.985l7.626-4.594 7.626 4.612c1.397 0.845 3.106-0.404 2.738-1.985l-2.021-8.692 6.744-5.844c1.231-1.066 0.588-3.087-1.029-3.216zM16.389 22.248v-17.090l3.142 7.424 8.049 0.698-6.101 5.292 1.838 7.865-6.928-4.19z"></path>
</symbol>
<symbol id="full" viewBox="0 0 32 32">
<path d="M16 25.532l7.506 4.54c1.375 0.832 3.057-0.398 2.695-1.953l-1.99-8.537 6.638-5.752c1.212-1.049 0.561-3.039-1.031-3.165l-8.736-0.742-3.418-8.067c-0.615-1.465-2.713-1.465-3.328 0l-3.418 8.049-8.736 0.742c-1.592 0.127-2.243 2.116-1.031 3.165l6.638 5.752-1.99 8.537c-0.362 1.555 1.32 2.785 2.695 1.953l7.506-4.522z"></path>
</symbol>
</defs>
</svg>
