<svg aria-hidden="true" style="position: absolute; width: 0; height: 0; overflow: hidden;" version="1.1" xmlns="http://www.w3.org/2000/svg" xmlns:xlink="http://www.w3.org/1999/xlink">
<defs>
<symbol id="border" viewBox="0 0 32 32">
<path d="M26.2 12.053l-6.453-0.56-2.52-5.933c-0.453-1.080-2-1.080-2.453 0l-2.52 5.947-6.44 0.547c-1.173 0.093-1.653 1.56-0.76 2.333l4.893 4.24-1.467 6.293c-0.267 1.147 0.973 2.053 1.987 1.44l5.533-3.333 5.533 3.347c1.013 0.613 2.253-0.293 1.987-1.44l-1.467-6.307 4.893-4.24c0.893-0.773 0.427-2.24-0.747-2.333zM16 20.533l-5.013 3.027 1.333-5.707-4.427-3.84 5.84-0.507 2.267-5.373 2.28 5.387 5.84 0.507-4.427 3.84 1.333 5.707-5.027-3.040z"></path>
</symbol>
<symbol id="half" viewBox="0 0 33 32">
<path d="M26.2 12.053l-6.453-0.56-2.52-5.933c-0.453-1.080-2-1.080-2.453 0l-2.52 5.947-6.44 0.547c-1.173 0.093-1.653 1.56-0.76 2.333l4.893 4.24-1.467 6.293c-0.267 1.147 0.973 2.053 1.987 1.44l5.533-3.333 5.533 3.347c1.013 0.613 2.253-0.293 1.987-1.44l-1.467-6.307 4.893-4.24c0.893-0.773 0.427-2.24-0.747-2.333zM16 20.533v-12.4l2.28 5.387 5.84 0.507-4.427 3.84 1.333 5.707-5.027-3.040z"></path>
</symbol>
<symbol id="full" viewBox="0 0 32 32">
<path d="M16 23.027l5.533 3.347c1.013 0.613 2.253-0.293 1.987-1.44l-1.467-6.293 4.893-4.24c0.893-0.773 0.413-2.24-0.76-2.333l-6.44-0.547-2.52-5.947c-0.453-1.080-2-1.080-2.453 0l-2.52 5.933-6.44 0.547c-1.173 0.093-1.653 1.56-0.76 2.333l4.893 4.24-1.467 6.293c-0.267 1.147 0.973 2.053 1.987 1.44l5.533-3.333z"></path>
</symbol>
</defs>
</svg>
