<!--?xml version="1.0" encoding="utf-8"?-->
<!-- Generator: Adobe Illustrator 22.1.0, SVG Export Plug-In . SVG Version: 6.00 Build 0)  -->
<svg version="1.1" id="_x31_0" xmlns="http://www.w3.org/2000/svg" xmlns:xlink="http://www.w3.org/1999/xlink" x="0px" y="0px" viewBox="0 0 800 749.807" style="enable-background:new 0 0 800 749.807;" xml:space="preserve">
<style type="text/css">
	.st0{fill:#040000;}
	.st1{fill:#FFFFFF;}
</style>
<g>
	<path class="st0" d="M796.357,255.783c6.351-14.812-6.323-71.909-27.494-93.052c-21.127-21.141-62.361-42.297-92-48.634
		c-29.596-6.351-119.45-16.923-151.177-12.696c-11.679,1.563-53.221,9.997-86.925,15.87c14.006-21.54,35.597-52.042,37.139-59.971
		c0.73-2.054,0.897-3.905-0.084-5.145c-0.266-0.35-0.603-0.505-0.925-0.73c-1.697-7.935-3.73-19.923-10.852-18.142
		c-8.635,2.159-0.659-15.933-15.927-15.933c-7.962,0-6.644-17.267-16.052-15.324c-15.38,3.183-21.578,17.265-21.578,17.265
		s-10.795-2.152-15.113,8.644c-4.318,10.794-6.464,32.385-6.464,49.659c0,17.265-2.172,30.221-10.809,41.023
		c-0.084,0.112-0.28,0.372-0.406,0.518c-15.241-2.131-37.196-3.589-44.431-5.039c-10.585-2.125-24.871-8.461-33.844-8.461
		c-14.805,0-54.993,31.721-65.565,31.721c-29.379,0-93.043,57.096-101.505,65.558c-8.455,8.453-69.791,71.895-74.013,93.043
		c-4.233,21.15-31.719,74.019-31.719,74.019s-12.695,40.174-19.032,63.44c-6.351,23.26,0,57.098-4.233,67.675
		c-4.235,10.571,2.116,21.136,10.571,29.603c8.46,8.448,10.578,19.032,8.46,25.37c-2.116,6.344,4.235,12.688,4.235,21.15
		c0,8.467,1.479,40.713,1.479,40.713c0,6.022-9.766,18.128-13.943,26.498c-7.003,13.992-5.664,14.189,8.363,36.242
		c14.028,22.047,18.585,25.313,16.565,33.319c-2.005,8.026-2.958,16.691,5.047,18.682c8.02,2.011,39.306-9.204,45.312-3.19
		c6.015,5.994,29.289,15.331,52.99,18.113c36.024,4.228,73.009-31.594,83.027-65.655c10.017-34.069,4.01-48.103-4.003-58.121
		c-8.026-10.009-29.849-9.904-41.871-19.935c-6.351-5.286-19.544-12.661-33.845-18.767c10.256-1.45,22.923-5.433,35.072-16.57
		c21.534-19.74,55.631-59.221,78.961-48.453c20.862,9.63,53.837,17.945,77.167-8.973c0,0,1.794,0-10.768-3.589l-1.794-21.535
		c0,0-25.124,26.919-37.686,14.357c-12.562-12.562-43.07-14.357-68.193,1.795c-7.76,4.99-17.757,13.234-28.49,22.039
		c1.248-2.019,2.553-3.932,3.674-6.176c3.862-7.752,6.602-13.754,8.65-18.975c8.131-4.929,15.338-10.677,18.835-16.98
		c4.235-10.57,14.434-9.343,16.593-22.299c2.159-12.954,19.432-25.909,19.432-25.909s6.127-6.687,12.618-11.005
		c6.477-4.324,13.277-19.221,19.755-25.698c6.491-6.478,19.32-26.386,24.647-33.508c6.351-8.467,10.585-10.571,19.052-21.148
		c4.809-6.016,2.567-11.188-0.251-14.595c12.589-8.763,27.395-19.025,34.068-23.47c12.688-8.461,33.831,8.461,63.454,6.344
		c42.383-3.035,72.947-29.603,72.947-29.603c33.83,10.57,26.442,25.369,26.442,25.369l5.285,14.797
		c-7.711,24.647-19.052,63.454-25.375,71.909c-6.351,8.461-12.703,12.681-19.04,14.799c-6.352,2.123-8.467,16.922-14.792,27.485
		c-6.351,10.578-19.052,6.351-35.961,19.04c-16.922,12.688-6.337,48.636,2.117,54.987c8.455,6.344,14.792,27.485,23.259,48.636
		c8.455,21.148,40.181,65.558,40.181,65.558s6.351,14.797,19.025,10.578c12.688-4.234,2.117-38.072,6.337-63.447
		c4.248-25.376-2.102-101.499,4.248-118.421c48.623-35.948,95.155-131.123,103.623-120.538c8.44,10.572,31.713,4.228,31.713,4.228
		s2.426,131.753-3.183,152.256c-6.322,23.266-33.829,52.87-38.05,63.449c-4.234,10.564-16.922,35.94-2.102,50.752
		c12.322,12.331,33.83,23.259,48.621,29.603c14.805,6.344,23.245,16.916,38.078,42.292c14.806,25.376,52.857,44.409,52.857,44.409
		s6.35,12.695,14.804,0c8.468-12.688-6.351-42.291-16.922-57.097c-10.571-14.798-40.182-84.589-40.182-112.076
		c0-27.493,48.649-226.269,48.649-226.269C796.357,312.873,790.034,270.588,796.357,255.783z"></path>
	<path class="st1" d="M81.067,722.496c0,0,2.798-6.961,1.403-13.943c-1.403-6.969,20.91-43.224,25.095-44.619
		c4.185-1.388,33.452,13.943,40.434,16.733c0,0-20.91,52.988-26.491,55.772c-5.579,2.79-22.305-4.185-25.095-8.363
		C93.616,723.898,81.067,722.496,81.067,722.496z"></path>
</g>
</svg>
