<!--?xml version="1.0" encoding="utf-8"?-->
<!-- Generator: Adobe Illustrator 22.1.0, SVG Export Plug-In . SVG Version: 6.00 Build 0)  -->
<svg version="1.1" id="_x37_" xmlns="http://www.w3.org/2000/svg" xmlns:xlink="http://www.w3.org/1999/xlink" x="0px" y="0px" viewBox="0 0 593.931 800" style="enable-background:new 0 0 593.931 800;" xml:space="preserve">
<style type="text/css">
	.st0{fill:#040000;}
</style>
<g>
	<path class="st0" d="M441.66,677.517c0,0-39.5-21.342-60.838-61.643c-26.227-49.541-24.757-85.127-19.77-96.414
		c24.513-55.322,110.176-131.578,128.816-216.534c21.348-97.204-35.556-241.825-203.882-237.083
		C117.055,70.602,43.142,193.019,52.847,257.091c7.908,52.162,1.582,75.866-31.608,113.798
		c-17.661,20.189,1.583,31.617,9.486,36.355c7.898,4.743,12.651,23.705,4.738,31.608c-7.899,7.907,0,12.645,6.326,17.388
		c6.315,4.743-6.667,17.886,0,22.132c17.383,11.058,9.476,30.03,11.059,42.671c1.582,12.64,13.01,32.712,58.486,17.383
		c72.705-24.498,99.575,39.516,116.958,96.42c17.394,56.899-60.848,149.354-60.848,149.354
		c-33.191,37.934,120.918-11.851,182.554-35.561C383.852,735.62,462.21,698.86,441.66,677.517z"></path>
	<path class="st0" d="M60.755,288.698c0,0-35.562,16.601-59.27,14.229c0,0,23.709,18.966,56.903,16.595L60.755,288.698z"></path>
	<path class="st0" d="M173.687,46.878C89.65,61.102,1.411,113.258,22.419,198.609c15.3,62.144,113.448,99.575,113.448,99.575
		l12.601-90.089c0,0,180.68,118.536,155.477,232.34c-25.215,113.798-25.215,28.447-25.215,28.447s76.275,141.52,185.068,56.899
		C762.517,293.441,488.817-138.049,173.687,46.878z"></path>
</g>
</svg>
