<!--?xml version="1.0" encoding="utf-8"?-->
<!-- Generator: Adobe Illustrator 22.1.0, SVG Export Plug-In . SVG Version: 6.00 Build 0)  -->
<svg version="1.1" id="_x31__1_" xmlns="http://www.w3.org/2000/svg" xmlns:xlink="http://www.w3.org/1999/xlink" x="0px" y="0px" viewBox="0 0 543.85 800" style="enable-background:new 0 0 543.85 800;" xml:space="preserve">
<style type="text/css">
	.st0{fill:#040000;}
</style>
<g>
	<path class="st0" d="M526.937,485.802c0,0-9.596-23.981-14.391-47.972c-13.066-65.343,87.355-192.37-20.784-343.762
		C395.83-40.246,248.598,11.11,235.927,14.115C85.096,4.932,28.484,132.397,16.882,178.813c-7.612,30.441,0.629,52.901,9.231,68.169
		c1.372,26.343,5.808,46.7,7.58,63.697c-7.195,2.866-18.567,4.872-29.352-3.955c3.393,11.333,20.409,14.621,30.052,15.58
		c0.048,6.385-0.552,12.341-2.289,17.995c-4.8,15.591-15.082,33.576-25.474,45.572c-11.112,12.816-3.888,29.577,14.496,30.379
		c19.761,0.859,26.386,19.19,21.586,26.386c-4.795,7.19,2.4,19.982,9.594,22.382c-2.4,2.395-4.794,18.389,7.196,20.785
		c11.99,2.4,10.368,20.021,14.285,28.78c5.885,13.191,10.963,26.684,52.762,23.987c37.176-2.396,66.547-19.326,82.853-23.987
		c8.39-2.4,9.346,77.948,6.946,92.339c-4.795,28.78-60.759,75.556-86.343,107.535C95.439,757.666,85.633,798,97.628,798
		c11.99,0,75.552-37.177,137.904-51.566c62.362-14.391,201.467-54.365,207.466-85.547c0.514-2.682,0.423-5.673-0.091-8.898
		c14.515-2.213,32.525-9.874,50.454-30.279c46.368-52.762,4.795-145.503,4.795-145.503L526.937,485.802z"></path>
</g>
</svg>
