<!--?xml version="1.0" encoding="utf-8"?-->
<!-- Generator: Adobe Illustrator 22.1.0, SVG Export Plug-In . SVG Version: 6.00 Build 0)  -->
<svg version="1.1" id="_x34_" xmlns="http://www.w3.org/2000/svg" xmlns:xlink="http://www.w3.org/1999/xlink" x="0px" y="0px" viewBox="0 0 627.328 800" style="enable-background:new 0 0 627.328 800;" xml:space="preserve">
<style type="text/css">
	.st0{fill:#040000;}
</style>
<g>
	<path class="st0" d="M625.6,428.849c-24.916,0-34.875-67.272-74.741-87.208c-26.667-13.324-54.356-13.271-69.839-11.788
		l-2.411-10.63l-4.095,3.321c63.575-173.338-18.556-279.01-142.917-292.349C112.356-69.461,9.373,123.215,2.731,173.04
		c-4.551,34.156,4.94,52.124,16.708,68.997c0.652,32.177,9.172,53.213,13.752,70.603c-7.45,2.358-17.885,3.107-27.854-5.043
		c3.414,11.346,19.966,14.933,30.13,16.072c0.885,6.404,0.759,12.522-1.177,18.808c-4.969,16.198-15.657,34.881-26.463,47.335
		c-11.535,13.314-4.045,30.732,15.075,31.559c20.511,0.895,22.417,19.933,17.428,27.407c-4.979,7.479,2.49,20.763,9.978,23.253
		c-2.5,2.495-4.989,19.106,7.459,21.595c12.458,2.49,10.786,10.835,14.842,19.933c6.117,13.703,11.388,27.718,54.823,24.912
		c38.6-2.485,74.098-10.11,91.04-14.948c8.723-2.49,26.171,61.042,23.671,75.985c-4.989,29.907-63.119,78.49-89.698,111.712
		C116.548,756.103,106.356,798,118.814,798c12.448,0,78.475-38.616,143.257-53.563c64.782-14.953,209.283-56.476,215.517-88.868
		c6.234-32.385-74.741-108.376-69.77-144.506c3.219-23.298,3.588-35.036,4.347-49.187c7.022-13.425,18.508-37.205,32.396-72.912
		c1.78-3.35,3.512-6.682,5.194-9.998l3.18,27.027l8.442,109.835l25.354,8.451l8.451,97.168l42.237-16.903l-12.672-42.243
		l21.124-4.225l-38.018-59.146l21.124-16.898l-51.75-107.481c0.457-0.165,0.885-0.307,1.381-0.516
		c17.428-7.474,42.354,29.896,54.802,77.235c12.459,47.334,74.741,89.693,87.2,92.183c7.478-14.943-19.928-64.777-19.928-64.777
		l14.957,17.438c14.938-29.891-14.957-54.813-14.957-54.813S628.09,443.798,625.6,428.849z M484.62,488.37l-8.452-65.477
		l21.124,61.255L484.62,488.37z"></path>
</g>
</svg>
