<!--?xml version="1.0" encoding="utf-8"?-->
<!-- Generator: Adobe Illustrator 22.1.0, SVG Export Plug-In . SVG Version: 6.00 Build 0)  -->
<svg version="1.1" id="_x35_" xmlns="http://www.w3.org/2000/svg" xmlns:xlink="http://www.w3.org/1999/xlink" x="0px" y="0px" viewBox="0 0 529.237 800" style="enable-background:new 0 0 529.237 800;" xml:space="preserve">
<style type="text/css">
	.st0{fill:#040000;}
</style>
<g>
	<path class="st0" d="M265.098,2.746c-8.397,2.293-30.967,8.455-35.186,21.813c-4.228,13.39-2.824,26.751-2.824,26.751
		s-6.327,2.116-5.627,7.048c0.708,4.931,1.408,16.885,3.516,19.701c2.111,2.816,6.335,9.147,6.335,11.262
		c0,2.116,2.82,16.177,2.112,21.108c-0.7,4.932-28.148,12.671-32.375,16.886c-7.031-6.315-23.22-16.178-33.783-14.062
		c-10.554,2.107-16.885,2.107-19.001,2.107c-2.112,0-20.404,4.923-25.339,4.923c-4.919,0-5.619-13.371-20.405-13.371
		c-14.782,0-17.594,2.116-15.482-3.523c2.116-5.615,11.967-33.071,14.782-39.41c2.811-6.331,11.259,0.708,16.186,0.708
		c3.52,2.815,6.335,11.953,11.962,10.553c7.039,0,14.782-0.708,18.297-3.524c5.631,2.116,9.16,3.524,11.967,0
		c2.815-3.516,2.815-7.738,2.815-7.738s6.336-8.447,5.636-14.778c-0.704-6.33-9.854-14.786-14.786-17.597
		c-4.927-2.803-30.971-11.258-40.817-12.661c-9.854-1.399-13.37,4.919-16.19,5.614c-2.816,0.716-14.778,9.858-14.778,9.858
		c-1.404,4.232-23.928,17.61-38.71,26.748c-14.778,9.155-23.224,46.457-29.56,54.895c-6.335,8.447-14.782,13.378-11.958,23.233
		c2.807,9.863,15.477,19.709,23.92,28.855c8.446,9.138,42.932,37.994,71.797,35.186c28.851-2.815,26.032,0,26.032,0
		s-2.107,27.448,15.482,47.857c17.597,20.409,26.039,27.456,31.675,36.603c5.623,9.138,15.296,13.789,15.296,21.133
		c0,7.344,4.89,25.094,4.288,28.156c-0.613,3.063-9.792,26.921-7.965,42.233c-25.089,19.569-65.474,64.857-76.498,105.255
		c-11.008,40.389-12.238,54.467-13.46,56.92c-1.223,2.454-6.117,11.617-5.512,17.133c0.614,5.507-26.311,34.889-27.534,74.053
		c-1.223,39.163-11.015,106.489-14.691,112.606c-3.672,6.117-9.793,8.562-11.011,11.015c-1.227,2.462-4.289,18.359-10.406,20.813
		c-6.121,2.445-2.445,0.601-6.121,2.445c-3.671,1.828-6.121,4.289,0.618,7.945c7.339,3.688,15.295-0.61,15.295-0.61
		s22.031-7.945,34.273-7.945c12.238,0,21.422-6.743,20.808-18.358c-0.617-11.625-2.449-13.46-2.449-16.531
		c0-3.055,7.952-47.733,17.132-60.585c9.188-12.859,31.827-40.397,33.668-59.975c1.831-19.586,5.499-40.397,7.339-44.07
		c1.836-3.671,43.452-45.287,54.467-48.951c11.012-3.68,47.729-35.491,54.476-55.085c-3.68,18.359,35.487,57.522,43.443,70.99
		c7.962,13.469,22.031,43.452,16.523,52.014c-5.512,8.57-18.355,40.406-14.074,70.998c4.285,30.609-1.223,56.913-2.45,66.718
		c-1.231,9.788-3.059,29.974-7.957,37.327c-4.89,7.335-4.281,18.976,3.059,21.413c7.348,2.453,24.484,0.617,32.436,1.836
		c7.953,1.235,15.297,2.453,22.645-0.617c6.12,0,6.12-3.656-0.613-7.335c-6.734-3.664-12.851-11.024-14.687-21.414
		c-1.836-10.414-0.613-34.898,3.063-41.624c3.668-6.726,38.554-75.88,36.109-110.77c-2.449-34.89,3.058-36.718,2.445-42.835
		c-0.609-6.117-1.219-16.531,3.058-22.648c4.289-6.125,9.18-69.154-7.952-108.926c-17.132-39.788-20.19-62.428-33.046-65.49
		c0-18.977-0.614-27.538-0.614-27.538s10.406-44.07,13.469-45.906c3.058-1.828,15.971-24.352,27.23-33.507
		c11.253-9.146,33.782-40.818,30.971-57.694c16.893,7.738,47.852,2.807,65.446-9.155c17.593-11.962,33.783-29.563,41.529-32.379
		c7.743-2.816,20.405-23.94,12.662-37.294c-4.919-21.825-24.628-54.912-44.337-76.729c-19.705-21.808-24.633-27.435-29.559-30.963
		c-4.923-3.515-23.928-7.739-34.487-4.919c-10.554,2.811-23.223,10.553-25.336,11.958c-2.107,1.407-6.327,29.564-6.327,29.564
		s-0.708,8.446,5.628,9.162c7.038,7.014,10.549,2.799,14.781,1.399c4.215,2.807,7.039,1.399,12.662-1.399
		c6.335,1.399,9.859,1.399,14.082-2.124c4.215-3.523,0-7.738,4.215-9.854c4.228-2.116,12.675,4.224,11.975,15.485
		c-0.708,11.254,2.807,42.925,3.507,45.749c-26.036-13.387-42.226,0.699-42.226,5.623c-14.07-11.963-34.486-11.963-49.964-6.331
		c-15.481,5.631-35.898,15.477-42.929,10.554c-7.038-4.923-10.566-9.146-10.566-12.67c0-3.516,2.82-30.263,2.82-30.263
		s7.043-5.615,7.043-14.77c0-9.154,0.704-18.31-2.819-19.717c1.404-9.854-2.816-30.259-14.779-39.401
		C286.918,2.746,272.841,0.651,265.098,2.746z"></path>
</g>
</svg>
