<!--?xml version="1.0" encoding="utf-8"?-->
<!-- Generator: Adobe Illustrator 22.1.0, SVG Export Plug-In . SVG Version: 6.00 Build 0)  -->
<svg version="1.1" id="_x36_" xmlns="http://www.w3.org/2000/svg" xmlns:xlink="http://www.w3.org/1999/xlink" x="0px" y="0px" viewBox="0 0 291.121 800" style="enable-background:new 0 0 291.121 800;" xml:space="preserve">
<style type="text/css">
	.st0{fill:#040000;}
</style>
<g>
	<path class="st0" d="M289.061,258.497c-5.061-11.812-5.061-20.241-6.748-24.459c-1.688-4.204-4.211-21.919-22.768-41.324
		c-6.747-22.761-7.583-53.958-57.341-60.706c-16.868-0.849-19.395-0.849-24.452-1.688c-5.054-0.843-9.282-13.49-9.282-13.49h-0.129
		c-0.919-7.615,3.714-4.082,6.574-10.685c3.536-8.151,5.444-23.109,5.986-23.927c0.539-0.825,2.714-7.347,4.618-12.226
		c1.907-4.914,1.089-7.353-0.269-8.718c-1.364-1.358-3.271,1.907-3.271,1.907s0,0,0.275-6.522
		c1.089-18.226-2.989-24.476-10.608-32.634c-7.604-8.157-6.793-11.694-7.061-13.597c-0.275-1.904-0.825-3.811-0.825-3.811
		s0,0-1.9,2.451c1.361-3.533-1.09-7.068-1.09-7.068s-0.814,4.618-3.536,6.25c0.818-1.357,0.55-4.072-0.536-4.35
		c0.818,1.907-2.721,4.078-20.13,7.069c-17.401,2.996-25.015,17.414-25.015,17.414s-3.804,4.072-6.526,9.787
		c-2.721,5.714,1.629,27.734-0.274,31.548c-4.343,2.715-0.815,14.684,0.274,18.491c1.086,3.804,4.894,6.794,5.168,9.511
		c0.272,2.715,0.547,8.976,0,12.24c-0.372,2.245-0.508,6.271-1.259,9.112c-0.717,0.612-1.476,1.263-2.297,1.956
		c-5.99,5.102-14.238,12.344-18.268,16.878c-6.748,7.601-22.767,19.392-22.767,19.392c-3.379,0.85-29.516,3.383-35.419,34.587
		c-15.18,21.076-22.768,26.129-23.61,53.95c-8.432,21.939-0.842,20.248-4.221,25.301c-3.369,5.061-1.685,13.503,6.748,21.926
		c8.436,8.436,5.06,16.865,32.881,21.932c27.832,5.054,52.288,2.534,53.13,7.587c0.846,5.06-0.842,10.113-3.376,14.331
		c-2.531,4.218-8.429,19.399-5.903,45.536c2.537,26.136,8.436,37.106,16.865,45.529c8.44,8.443,8.44,16.03,8.44,20.241
		c0,4.218,0.835,28.663,10.956,55.656c10.121,26.986,20.237,53.972,16.869,59.032c-3.38,5.052-35.419,40.475-31.204,67.454
		c4.215,26.986,6.748,32.881,6.748,32.881s0.846,35.422-4.222,39.634c-5.053,4.224-20.233,8.442-10.959,24.452
		c9.278,16.03,10.12,18.556,9.278,21.939c-0.846,3.362-10.966,17.7-3.372,24.445c7.591,6.745,17.7,5.903,17.7,5.903
		s5.071,11.805,10.131,13.496c5.05,3.369,9.268,6.738,12.641,1.684c7.59,5.054,6.64,3.174,10.962,0.843
		c10.959-5.91,5.06-4.218,1.689-10.963c-3.377-6.751-0.846-10.963-0.846-10.963s17.711,10.963,28.674,7.587
		c10.959-3.376,17.707-2.527,17.707-2.527s3.369-6.737-3.372-9.285c-6.752-2.52-32.892-18.55-32.892-18.55
		s-11.801-13.482-12.647-19.385c-0.842-5.909,19.392-53.129,29.519-61.558c10.114-8.429,66.609-72.515,73.357-83.484
		c14.342-10.115,18.551-26.98,5.061-42.16c0-23.603-14.332-86.838-26.983-110.47c-12.647-23.602-25.294-37.099-25.294-37.099
		s-10.967-42.995-10.967-46.37c0-3.376,3.377-26.144,5.064-29.519c1.684-3.362,6.745-9.272,6.745-9.272s27.824-8.436,51.435-16.872
		c23.614-8.422,20.237-17.701,20.237-17.701S294.117,270.295,289.061,258.497z M207.268,554.478
		c-0.846,1.685-5.906,6.731-5.906,6.731s-1.689-5.046-2.534-8.429c-0.838-3.376-0.838-11.805-0.838-11.805L207.268,554.478z
		 M215.697,272.829c-5.898,6.745-10.959,5.91-10.959,5.91l2.53-16.865c0,0,3.372-10.963,5.054-16.037
		c4.385-4.378,9.396-13.816,10.656-16.253c0.174-0.396,0.309-0.605,0.309-0.605s-0.111,0.222-0.309,0.605
		c-1.009,2.318-3.063,11.081,17.178,20.478C232.566,250.061,221.599,266.091,215.697,272.829z"></path>
</g>
</svg>
