<!--?xml version="1.0" encoding="utf-8"?-->
<!-- Generator: Adobe Illustrator 22.1.0, SVG Export Plug-In . SVG Version: 6.00 Build 0)  -->
<svg version="1.1" id="_x34_" xmlns="http://www.w3.org/2000/svg" xmlns:xlink="http://www.w3.org/1999/xlink" x="0px" y="0px" viewBox="0 0 623.451 800" style="enable-background:new 0 0 623.451 800;" xml:space="preserve">
<style type="text/css">
	.st0{fill:#040000;}
</style>
<g>
	<path class="st0" d="M53.266,680.788c22.247,9.218,67.175,16.648,83.097,8.677c15.917-7.947,54.144-7.947,84.392,12.744
		c-30.248-46.181-12.737-95.542-12.737-95.542s-17.511-15.917-27.072-62.106c-25.482-78.008,17.512-116.235,19.105-128.963
		c1.598-12.745,1.598-49.362,0-63.701c-4.778-9.541,0-30.248-4.778-58.902c-9.549-27.068,1.59-85.986,1.59-85.986
		s-50.947-23.887-62.094-44.587c-11.144-20.699-15.922-36.632-15.922-36.632s-22.29-25.459-12.737-39.802
		c12.737-30.244,20.7-42.985,58.915-54.132c38.206-11.147,54.136-22.293,62.094-25.482c7.959-3.188,31.843-11.135,52.546,7.971
		c20.707,19.098,22.517,26.303,21.477,33.554c-1.033,7.24-1.033,25.887-5.179,27.96c-4.146,2.081-19.682,7.244-24.862,3.118
		c-5.186-4.154-12.43-8.289-12.43-8.289l-3.11-9.332c0,0-10.361-5.179-12.431-13.456c-2.069-8.304-9.324-4.154-9.324-4.154
		s-19.679,6.216-27.971,19.683c-8.28,13.467-16.577,26.943-24.861,26.943c34.187-6.224,39.365,8.28,44.548,15.536
		c5.175,7.24,5.175,7.24,5.175,7.24s24.865-7.24,43.512,4.154c18.641,11.394,23.825,27.971,27.975,30.052
		c14.496,2.065,29.004,7.24,32.117,6.203c3.098-1.044,18.642-8.285,18.642-15.533c0-7.263-3.11-6.219-2.077-12.446
		c1.036-6.212,11.395-38.325,16.573-49.719c5.183-11.394,21.76-34.182,50.763-35.211c29.007-1.053,43.515,12.422,58.011,23.817
		c14.508,11.394,16.573,43.507,12.434,50.755c-4.142,7.263-9.324,13.475-9.324,13.475s-5.184,25.898-10.366,32.117
		c-5.168,6.212-9.317,12.423-9.317,12.423s-2.073,21.751-19.678,30.036c-17.61,8.308-32.11,12.439-32.11,12.439
		s13.459,8.284,16.565,18.65c27.975-4.146,56.978,10.358,70.442,41.438c17.609-8.284,34.19-7.256,46.624,19.679
		c3.102-9.321,8.28-19.679,16.573-33.154c8.281-13.451,10.354-32.109,3.106-33.145c-7.248-1.03-13.471,1.036-18.645,1.036
		c-5.179,0-12.435,2.073-17.618-4.146c-5.166-6.212-7.247-12.431-8.28-20.724c-1.036-8.277,0-9.313,6.215-16.568
		c6.216-7.248,15.536-16.57,27.967-12.431c12.439,4.146,42.479,17.605,45.577,21.759c3.118,4.146,5.187,18.642,9.33,32.11
		c4.146,13.475,6.211,52.841,14.503,74.584c8.284,21.759-16.577,47.657-18.646,58.015c-3.106,13.475-17.606,20.716-30.04,14.504
		c-17.61,8.285-53.873,7.248-81.836-3.109c-27.971-10.358-45.588-21.752-48.698-26.935c-12.427,6.212-17.61,24.861-41.431,31.089
		c-23.824,6.204-32.121,12.422-33.149,16.561c-1.041,4.154-5.182,17.613-11.394,22.796c-1.04,5.175-7.256,20.724-10.361,26.927
		c37.296-8.285,102.555,16.576,119.135,24.869c16.566,8.301,45.581,17.606,45.581,41.439c13.463,19.678,9.317,42.483,4.138,56.97
		c-5.182,14.504-29.003,93.242-35.215,126.388c-6.219,33.146-14.504,44.547-2.08,55.95c12.434,11.394,34.182,17.606,39.369,21.752
		c9.317,0,10.361,2.057,13.467,4.154c7.247-1.06,11.39,12.414,0,12.414c-11.398,0-33.146,12.431-51.796,7.256
		c-18.647-5.19-33.154,3.109-48.69,2.073c-15.548-1.044-23.829-7.263-19.687-22.804c4.139-15.533,10.366-26.919,10.366-40.386
		c0-13.475,3.11-31.089-2.073-50.767c-5.179-19.671-13.467-39.365-9.317-61.117c4.138-21.751,22.785-53.869,22.785-53.869
		s-18.647,0-38.333,2.065c-21.728,2.293-32.114,13.475-45.581,14.512c2.07,11.394,6.22,63.19,0,89.088
		c-6.215,25.891-23.821,47.65-25.89,58.007c-2.081,10.358-13.475,46.613-43.515,44.547c-27.967,5.184-75.624,15.541-105.664,0
		c-30.041-15.532-94.373-40.982-99.143-40.982c-4.759,0-23.821-5.945-27.398,3.58c-3.574,9.533,1.189,30.978,13.11,35.745
		c3.565,1.193,8.335,0,11.912,4.767c3.573,4.766,3.573,14.291-9.533,13.105c-13.106-1.193-16.679,8.332-30.978-4.774
		C15.334,775.53,4.607,774.336,4.607,746.946c0-27.413-4.762-54.803-2.383-64.352C4.607,673.068,31.628,671.82,53.266,680.788z"></path>
</g>
</svg>
