<!--?xml version="1.0" encoding="utf-8"?-->
<!-- Generator: Adobe Illustrator 22.1.0, SVG Export Plug-In . SVG Version: 6.00 Build 0)  -->
<svg version="1.1" id="_x32_" xmlns="http://www.w3.org/2000/svg" xmlns:xlink="http://www.w3.org/1999/xlink" x="0px" y="0px" viewBox="0 0 515.214 800" style="enable-background:new 0 0 515.214 800;" xml:space="preserve">
<style type="text/css">
	.st0{fill:#050000;}
</style>
<g>
	<g>
		<path class="st0" d="M157.244,424.466c0,0-3.294,135.103-3.294,146.626c0,11.534-23.913,142.222-25.565,152.103
			c0,0,12.997,6.214,24.536,11.155c11.544,4.946,24.091-10.033,24.091-18.279c0-8.23,19.78-125.206,21.421-135.098
			c1.647-9.882,46.13-144.974,46.13-144.974s28.003,128.499,29.656,140.033c1.647,11.539,9.258,142.801,12.558,149.4
			c3.283,6.582,41.813,7.119,41.813-2.763c0-9.887-1.647-148.284-1.647-158.177c0-9.871,3.294-130.146,3.294-140.028
			c0-9.887-46.136-70.846-46.136-70.846L157.244,424.466z"></path>
		<path class="st0" d="M373.579,231.676c0,0,49.289-48.444,51.673-47.29c2.384,1.149,16.941,19.059,16.941,19.059
			s-56.592,78.706-61.609,84.812C375.578,294.358,373.579,231.676,373.579,231.676z"></path>
		<path class="st0" d="M124.484,231.498l-40.599-66.961c0,0-26.751,15.906-27.234,20.907
			c-0.482,4.992,46.646,108.719,46.646,108.719L124.484,231.498z"></path>
		<path class="st0" d="M80.342,175.125l-3.9-20.551c0,0,3.63-11.415,0.027-17.645c-3.597-6.233-6.479-19.956-5.986-24.954
			c0.472-4.995-9.009-2.549-7.384,6.848c1.604,9.405-8.874,13.435-15.37,11.122c-6.501-2.306-17.407-2.519-24.422-8.235
			c-6.999-5.723-8.944-11.794-12.357-11.285c-3.408,0.512-3.408,0.512-3.408,0.512l0,0c0,0-6.739,0.189-6.225,3.602
			c0.515,3.408,4.421,6.309,4.421,6.309s12.547,18.024,21.979,24.812c9.427,6.797,32.105,15.708,36.341,41.331
			C78.24,196.771,80.342,175.125,80.342,175.125z"></path>
		<path class="st0" d="M419.606,195.46c0,0,14.833-23.382,20.966-25.121c6.128-1.734,21.275-1.457,25.235-6.002
			c3.96-4.548,10.099-6.285,11.437-3.584c1.338,2.706-6.701,12.629-6.701,12.629l16.485,2.977c0,0,11.968-7.723,15.397-8.121
			c3.321,0.428,3.321,0.428,3.321,0.428l0,0c0,0,3.846-3.717,6.024-0.907c2.156,2.808,2.156,2.808,2.156,2.808l-4.172,6.206
			c0,0-17.049,7.915-29.417,12.214c-12.374,4.307-28.637-0.33-28.637-0.33l-19.823,22.732L419.606,195.46z"></path>
		<path class="st0" d="M169.651,714.273c0,0,7.818,52.421-6.68,59.117c-21.204,2.232-35.778,14.779-58.363,22.315
			c-22.58,7.525-30.116-5.017-22.58-15.056c7.519-10.039,45.247-37.376,45.247-37.376l13.387-44.608L169.651,714.273z"></path>
		<path class="st0" d="M288.729,712.897c0,0-5.499,33.004,5.51,41.266c10.998,8.251,13.24,4.263,13.24,4.263l6.116,6.111
			c0,0,13.447,13.457,33.015,19.568c19.557,6.117,17.114-4.897,17.114-4.897l-22.012-22.006c0,0-19.563-17.119-19.563-23.23
			c0-6.116-4.897-18.349-4.897-18.349L288.729,712.897z"></path>
		<path class="st0" d="M166.313,761.119c0,0,1.116,14.503-3.343,16.735c-4.47,2.226-22.31,8.923-26.768,1.111
			C131.733,771.158,166.313,761.119,166.313,761.119z"></path>
		<path class="st0" d="M409.313,327.258c-1.641-4.946-26.351-100.496-26.351-100.496s-18.127-23.071-18.127-29.664
			c0-6.59-8.24-52.718-57.67-56.014c3.83-7.506,7.487-15.939,0.802-22.153c-9.313-8.652-40.16-15.89-69.99-7.503
			c0,0-32.023,10.978-28.719,19.219c4.942,8.238,5.651,8.79,5.651,8.79s-28.009,0-41.196,14.825
			c-13.17,14.833-47.772,54.37-60.953,57.667c-13.181,3.299-14.828,75.792-37.891,100.496c0,0,5.569,6.311,19.764,14.833
			c16.48,9.876,44.484,11.535,44.484,11.535s-11.594,100.874-14.601,127.979c-2.167,19.514-14.822,17.417-6.024,27.109
			c14.66,16.145,57.068,15.001,71.49,16.036c23.062,1.647,75.781,3.294,75.781,3.294s32.95-11.528,57.675-16.469
			c26.492-5.309,45.02-11.903,45.02-11.903s-23.399-126.283-25.046-132.866c0,0,11.539-11.539,24.715-8.24
			C381.298,347.027,410.971,332.199,409.313,327.258z M259.441,216.805c-8.365,3.351-30.116-78.633-30.116-78.633
			c43.509-13.384,68.608,0,68.608,0S267.806,213.463,259.441,216.805z"></path>
		<g>
			<path class="st0" d="M314.554,50.38c0,0-3.765-37.411-33.113-43.839c0.131-0.241,0.277-0.514,0.456-0.834
				c1.375-2.489-1.046-3.079-3.467-3.671c-1.311-0.314-2.899,1.463-4.09,3.162c-0.704-1.1-2.85-3.749-6.609-2.755
				c-4.697,1.238-1.826,4.502-1.826,4.502s-26.665-2.01-37.565,29.008c-4.866,10.512-18.371,19.506-11.199,27.185
				c12.889,13.787,73.896,9.651,94.369,7.265C326.148,69.008,314.554,50.38,314.554,50.38z"></path>
			<path class="st0" d="M231.021,44.354c0,0-1.972,13.064-1.387,16.908c-4.952-0.238-5.868,6.78-4.995,12.544
				c0.867,5.761,2.833,12.344,7.541,17.534c3.532,10.277,7.264,15.61,7.264,15.61s-1.333,23.786-1.717,27.773
				c-0.374,3.987,23.556,25.937,26.145,23.58c2.6-2.354,28.767-30.856,28.767-30.856l1.777-20.901l6.236-10.77
				c0,0,17.488-14.414,7.254-23.685c4.166-11.437,5.466-22.44,5.466-22.44L231.021,44.354z"></path>
		</g>
		<path class="st0" d="M257.772,146.539c0,0-10.044,13.384-1.674,20.075c0,4.185-5.856,47.685-5.856,47.685
			s10.884,10.876,18.404,2.506c7.53-8.362-2.503-48.514-2.503-48.514l5.022-8.368l-0.834-14.215L257.772,146.539z"></path>
	</g>
	<g>
		<path class="st0" d="M246.856,99.686c-4.069-2.208-14.985,0.745-20.657,4.921c-9.79,7.195-12.596,3.784-12.596,3.784
			c0.753-3.221,0.255-7.96-1.506-9.18c-1.577-1.1-4.09-2.665-8.945-1.671c-4.837,0.999-7.676,3.302-7.86,7.159
			c-0.189,3.857,1.744,12.124,8.234,14.654c6.81,2.658,18.88-5.794,25.761-11.626c8.944-7.582,16.144-5.716,17.276-5.271
			C247.701,102.901,250.324,101.56,246.856,99.686z"></path>
	</g>
</g>
</svg>
