<!--?xml version="1.0" encoding="utf-8"?-->
<!-- Generator: Adobe Illustrator 22.1.0, SVG Export Plug-In . SVG Version: 6.00 Build 0)  -->
<svg version="1.1" id="_x32_" xmlns="http://www.w3.org/2000/svg" xmlns:xlink="http://www.w3.org/1999/xlink" x="0px" y="0px" viewBox="0 0 800 662.444" style="enable-background:new 0 0 800 662.444;" xml:space="preserve">
<style type="text/css">
	.st0{fill:#040000;}
</style>
<g>
	<path class="st0" d="M788.921,433.881c-16.286-9.049-33.48,0-41.641-1.81c-8.139-1.817-66.983-24.432-106.815-45.269
		c-45.268-38.923-97.771-24.432-104.112-28.058c-6.337-3.619-4.524-23.539,1.813-55.232c6.334-31.678,28.503-51.597,33.935-114.059
		c28.062-103.211-38.687-154.246-80.573-151.19c-61.997,4.528-76.049,31.685-91.434,34.404
		c-15.392,2.718-82.821,19.913-88.262,20.828c-9.149,1.517-29.642,5.136-42.11,3.484c-13.572-1.817-37.768,7.254-44.352,7.254
		c-1.468,0-18.876,6.63-36.821,14.581c-4.558-0.015-9.517-0.188-14.375-0.661c-1.321-2.605-1.817-7.275-0.567-9.775
		c5.793-4.348,4.576-10.452,1.998-16.894c3.236,5.031,9.232,7.523,14.164,6.119c-11.06-2.891-9.243-15.55-7.656-31.37
		c1.303,7.382,1.84,13.824,0.725,17.232c3.203-3.904,2.387-15.145,0.109-27.406c0.623-11.135-0.033-23.051-5.751-33.848
		c-16.151-30.522-63.728-19.747-67.321-13.47c-3.589,6.285-10.767,8.079-10.767,8.079s-0.098,0.616-0.195,1.592
		c-20.003-5.285-47.123-3.431-69.048,9.671C-4.981,48.902,1.521,84.972,4.498,92.196c2.973,7.215,4.674,8.912,4.674,8.912
		c0,8.507,6.799,22.112,10.2,26.363c0.105,0.127,0.191,0.307,0.293,0.442c-1.771,1.967-4.133,3.777-7.095,4.227
		c3.743-0.241,6.262-0.249,8.654-1.382c2.046,4.82,2.714,11.894,0.698,17.952c-2.549,7.652-1.704,10.212,2.545,11.894
		c4.254,1.712,9.356,0,10.204,2.56c0.852,2.554,1.701,7.651,5.098,7.651c3.405,0,3.405,0.849,3.405,2.554
		c0,1.689,0.841,4.67,4.671,4.67c3.825,0,5.947,1.284,9.772,7.644c3.825,6.382,8.92,5.526,15.298,2.133
		c6.375-3.402,15.302-11.473,19.976-11.052c4.674,0.421,7.835,3.544,12.321,5.098c5.305,1.847,20.089,6.434,34.415,9.498
		c-0.473,8.327-1.408,16.683-3.979,22.466c-6.761,15.197,2.174,51.672,3.601,65.308c1.43,13.612-1.093,38.901,1.891,61.636
		c2.985,22.707-0.036,33.504-6.96,54.143c-6.915,20.634-0.695,57.034,0.781,68.845c1.475,11.826,2.587,101.507-0.308,107.762
		c-2.891,6.254-18.891,27.548-20.873,33.825c-1.986,6.292,0.394,18.125-5.267,26.121c-5.654,7.989-10.388,15.115-13.177,17.75
		c-2.789,2.636-1.205,10.828,7.993,5.647c9.204-5.174,12.122-12.337,14.003-14.995c1.889-2.665,4.148-1.089,0.293,9.491
		c-3.864,10.572-0.301,10.67,4.786,10.812c5.083,0.143,9.882-7.86,12.614-14.393c2.726-6.548,3.375-11.608,6.079-17.127
		c2.698-5.534,6.806-6.93,6.618-0.315c-0.18,6.599,3.98,21.474,4.389,25.04c0.405,3.567,2.831,7.712,9.453,7.396
		c6.626-0.33,5.605-0.346,4.821-8.522c-0.789-8.154-2.876-6.187-3.256-10.774c-0.383-4.596,0.98-16.767,2.418-13.666
		c1.437,3.086,11.165,19.139,14.622,22.796c3.458,3.656,8.98,6.359,11.128,2.343c2.147-4.002-0.346-5.601-3.244-11.27
		c-2.895-5.692-7.876-9.385-10.193-17.592c-2.308-8.207-1.731-10.737,1.593-20.304c3.326-9.587,7.358-8.439,5.699-21.729
		c-1.66-13.267-4.093-17.412-4.047-18.928c0.037-1.525,7.857-116.809,12.238-127.884c4.389-11.067,4.775-24.793,3.011-34.509
		c-1.765-9.716-5.443-23.562-0.961-38.181c0.094-0.33,0.203-0.706,0.312-1.089c2.009,15.843,4.753,40.951,3.664,53.941
		c-1.453,17.344,11.976,53.528,13.23,60.615c1.262,7.096,10.11,28.149,2.237,36.055c-7.88,7.899-7.414,21.624-7.144,29.756
		c0.271,8.131-1.43,17.855-4.929,20.01c-3.484,2.147-6.905,6.337-1.719,9.22c5.185,2.876,15.621-4.596,17.581-6.698
		c1.971-2.102,1.224-9.198,4.269-9.303c3.055-0.104,3.458-3.161,3.3-7.741c-0.151-4.58,6.003-3.258,6.63,0.278
		c0.626,3.551,0.78,8.124,4.812,6.96c4.032-1.149,1.727-9.206,1.727-9.206s4.099,0.864,5.691,2.854
		c1.599,1.982,6.919,8.928,9.948,8.312c3.034-0.608,1.866-5.144,1.866-5.144l5.215,3.898c0,0,5.752,4.385,13.88,4.107
		c8.135-0.279,6.919-6.338,2.831-6.706c-4.082-0.368-10.79-3.198-15.524-7.621c-4.73-4.422-14.818-32.068-18.648-40.08
		c-3.837-8.019-2.399-71.165-0.927-88.006c1.468-16.849-12.636-42.835-6.742-94.433c4.07-35.62,2.808-61.697,1.502-75.032
		c6.525,2.725,11.815,4.858,14.983,6.104c16.286,6.33,31.678,5.421,45.265,0.901c13.575-4.543,53.412-36.98,74.236-47.859
		c3.585-1.862,8.788-4.61,14.878-7.778c-19.473,40.621-47.281,107.505-59.449,179.519c-8.143,29.883-5.424,47.078,12.678,53.423
		c18.102,6.337,39.596,19.274,72.194,23.808c32.586,4.52,165.662,28.06,168.376,37.107c2.722,9.055,3.623,9.956,7.25,17.202
		c3.615,7.246-4.528,67.906-18.11,84.184c-13.575,16.309,0,19.928,14.484,19.928c14.484,0,40.737-30.785,47.081-47.979
		c6.338-17.21,20.813-43.458,23.539-49.796c2.71-6.337,22.622-20.821,20.813-35.305c-1.172-9.34-11.751-17.164-22.27-22.277
		c32.383,11.164,60.795,20.926,64.82,21.369c8.146,0.908,1.809,8.154,5.428,21.729c3.627,13.582,2.718,41.642-6.329,56.133
		c-9.056,14.483-11.773,19.905-4.528,26.241c7.238,6.337,29.876-7.238,43.459-20.813c13.575-13.583,22.63-48.88,30.769-66.998
		C796.174,478.24,805.23,442.929,788.921,433.881z M157.452,67.095c-0.124,2.163-0.135,4.31-0.086,6.397
		c-3.435-9.543-4.971-24.283-5.65-35.522C155.931,47.813,157.872,59.519,157.452,67.095z M114.932,25.183
		c0.63-0.969,1.122-1.831,1.475-2.523c1.498-0.038,4.986-0.586,12.321-2.253c6.987-1.584,12.731,1.772,17.206,7.494
		c0.676,16.008,3.777,40.396,11.653,50.051c0.829,11.21,3.457,19.649,3.457,19.649c0,10.91,4.408,17.036,8.759,20.04
		c-12.757-1.809-23.599-6.127-22.521-16.098c2.133-19.536-13.279-50.862-22.945-67.14C122.27,30.912,119.027,27.811,114.932,25.183z
		 M421.613,369.339c3.165-4.22,16.109-29.576,30.825-54.842c-0.18,4.131-0.278,6.946-0.278,8.035c0,8.446,3.154,46.102,5.789,59.151
		c-3.341,0.301-6.757,0.744-10.316,1.502C405.082,392.239,416.181,376.584,421.613,369.339z M622.354,451.083
		c-3.623-1.817-17.194-0.909-26.253-8.154c-2.576-2.057-9.371-5.744-17.976-10.158c15.956,5.188,36.95,12.373,57.894,19.574
		C626.742,450.595,625.688,452.75,622.354,451.083z"></path>
</g>
</svg>
