<!--?xml version="1.0" encoding="utf-8"?-->
<!-- Generator: Adobe Illustrator 22.1.0, SVG Export Plug-In . SVG Version: 6.00 Build 0)  -->
<svg version="1.1" id="_x31_2" xmlns="http://www.w3.org/2000/svg" xmlns:xlink="http://www.w3.org/1999/xlink" x="0px" y="0px" viewBox="0 0 800 639.331" style="enable-background:new 0 0 800 639.331;" xml:space="preserve">
<style type="text/css">
	.st0{fill:#040000;}
</style>
<g>
	<path class="st0" d="M4.946,101.151C-0.719,92.643,3.53,74.204,3.53,62.863c0-11.34,17.028-11.34,26.942-11.34
		c9.935,0,11.364-11.353,35.449-18.445c24.11-7.086,68.069,5.683,68.069,5.683s2.843-14.18,11.352-14.18
		c8.498,0,12.769,19.844,12.769,19.844s0,0,14.185-21.266C186.457,1.881,202.069-5.205,202.069,8.98
		c0,14.178,4.237,86.495,4.237,86.495s-5.666,51.051,0,65.236c5.688,14.189,35.462,42.531,97.866,56.716
		c62.369,14.184,121.894,93.547,141.789,113.449c11.295,11.272,28.923,30.55,41.908,58.733c10.525,8.287,25.06,15.328,44.593,16.416
		c51.063,2.843,134.72-76.565,151.748-126.2c16.994-49.641,60.953-83.68,110.6-62.398c8.508,7.098,0,26.941-25.526,26.941
		c-25.526,0-45.375,24.115-73.733,82.258c-25.899,53.075-122.722,138.052-191.175,136.256c0.328,59.939-37.387,94.806-42.814,93.468
		c-5.676-1.427,21.288,36.867-8.509,62.381c-29.762,25.542-164.493,18.444-174.43,17.011c-9.913-1.394-29.762-2.827-32.594-15.584
		c-2.822-12.769,9.924-24.109,19.849-22.693c9.925,1.416,17.005-4.248,48.218-5.682c-32.617,1.434-48.218-24.092-48.218-24.092
		c-17.017,0-49.635,2.826-58.143-8.509c-8.521-11.357,0-26.948,31.191-29.774c-11.33-15.618,1.427-28.37,0-36.867
		c-1.428-8.525-65.214-63.825-77.982-59.582c-12.757,4.271-60.976,126.223-60.976,138.974c0,12.762-5.665,22.698-42.554,28.381
		c-36.854,5.659-43.958-18.457-38.282-32.623c5.688-14.173,28.359,1.415,29.786-11.342c1.405-12.768,11.352-68.074,12.769-102.108
		c0.589-14.042,0.43-34.368-1.144-56.285c-7.489,4.736-13.052,11.199-13.052,17.992c0,14.184-14.162,15.618-25.526,7.086
		c-11.342-8.491-7.082-26.937,0-43.959c4.69-11.244,21.775-22.488,32.822-28.816c-2.81-15.46-6.56-30.041-11.545-42.079
		c-17.017-41.121,7.092-99.264,8.509-107.772c1.427-8.493-22.682-58.15-31.191-68.075C12.037,122.411,6.373,111.077,4.946,101.151z"></path>
</g>
</svg>
