<!--?xml version="1.0" encoding="utf-8"?-->
<!-- Generator: Adobe Illustrator 22.1.0, SVG Export Plug-In . SVG Version: 6.00 Build 0)  -->
<svg version="1.1" id="_x33_" xmlns="http://www.w3.org/2000/svg" xmlns:xlink="http://www.w3.org/1999/xlink" x="0px" y="0px" viewBox="0 0 592.818 800" style="enable-background:new 0 0 592.818 800;" xml:space="preserve">
<style type="text/css">
	.st0{fill:#040000;}
</style>
<g>
	<path class="st0" d="M459.715,361.83c0-17.818-15.269-88.24-19.512-104.363c-4.243-16.123-30.545-72.971-35.635-83.151
		c-5.096-10.18-17.818-39.872-28.85-51.752c-11.027-11.88-47.515-47.515-68.722-63.638c-21.213-16.117-39.878-35.635-60.243-34.788
		c-20.359,0.854-39.877,4.249-49.21,7.638c-9.332,3.395-6.79,5.943-19.511,7.637c-12.728,1.695-35.635-2.541-53.459-7.637
		C106.76,26.686,99.122,0.383,72.819,2.078c-26.303,1.7-31.398,1.7-50.911,14.428C8.802,25.052,0.695,54.69,1.543,63.174
		c0.847,8.479-1.694,22.908,4.242,25.45c5.944,2.548,14.423,6.791,13.576,10.186c-0.848,3.396,4.242,12.728,7.638,12.728
		c3.395,0,11.88,6.784,11.88,9.332c0,2.542,6.785,22.907,11.874,22.06c5.09-0.848,8.485-0.848,6.79,3.395
		c-1.7,4.236-16.97,41.572-17.818,50.058c-0.847,8.485,1.695,30.545,13.575,39.878c11.881,9.333,35.635,65.327,44.12,73.812
		c-22.907,18.665-34.788,28.004-42.426,28.851c-7.631,0.847-19.512,22.907-22.06,28.844c-2.542,5.938-4.243,47.516,0,60.243
		c4.242,12.721,11.033,19.512,16.97,22.907c5.937,3.395,23.76,9.332,27.149,11.027c3.396,1.7,16.123,0.006,6.791-6.785
		c5.937,0,14.422-7.638,5.937-8.485c-8.485-0.847-22.907-9.332-26.303-11.033c-3.389-1.694-6.784-5.937-5.937-11.027
		c0.847-5.09,5.09-15.27,7.638-18.665c2.541-3.396,8.484-8.485,8.484-5.096c0,3.395,30.539,55.153,43.267,61.09
		c12.728,5.943,11.881,7.637,15.276,10.186c3.389,2.542,73.811,61.938,92.483,84.845c18.665,22.907,35.635,44.968,33.087,66.18
		c-2.541,21.207-0.847,40.724-10.179,48.363c-9.332,7.632-15.276,10.179-11.033,15.269c1.701,6.791,11.033,11.033,22.06,8.485
		c11.033-2.548,29.698-5.09,39.878-12.727c10.186-7.638,53.452-51.752,56.848-61.938c3.395-10.179-3.389-28.85-19.513-34.787
		c-16.123-5.938-35.635-22.907-39.03-34.788c-3.396-11.874-50.058-102.662-88.24-121.327c-38.178-18.665-16.971-17.817,7.637-10.179
		c24.602,7.637,158.658,17.817,203.625,8.485C464.804,418.678,459.715,379.648,459.715,361.83z M134.757,257.467
		c0,0-41.572-39.884-46.668-46.668c-5.09-6.785-5.938-7.638,2.548-10.18s19.513-4.242,23.755-7.638
		c4.242-3.395,1.694-11.027,1.694-11.027s13.581,5.091,13.581,16.123c0,0-4.242,16.117,1.695,22.055
		c5.937,5.943,3.396,16.97,4.243,22.913C136.451,248.982,134.757,257.467,134.757,257.467z M133.056,172.621
		c0,0-11.874-4.243-12.721-7.637c-0.853-3.396-11.034-13.575-11.034-13.575c2.548,0,11.881-13.575,16.123-13.575
		c4.242,0,24.602-2.542,24.602,2.548C150.026,145.471,133.056,172.621,133.056,172.621z M207.721,305.829l5.09-18.671
		c0,0,11.033-22.907,11.881-39.024c0,0,14.422,11.874,16.97,16.964c2.548,5.095,23.755,31.398,32.24,34.787
		c8.485,3.395,19.518,13.575,19.518,13.575L207.721,305.829z"></path>
	<path class="st0" d="M235.724,456.855c-3.395-12.728-15.275-38.183,10.18-39.031c25.449-0.853,214.657-7.637,245.203-11.033
		c30.546-3.389,29.698,8.485,31.393,12.728c1.694,4.243,28.844,18.665,24.602,59.395c-4.236,40.725,11.881,111.996,23.761,124.724
		c11.875,12.722,6.785,27.149,5.937,35.635c-0.847,8.479-2.541,26.297,0,35.635c2.542,9.333,4.243,31.387,10.18,44.968
		c5.943,13.575,5.943,31.392-0.848,40.725c-6.79,9.332-50.904,39.024-110.3,37.329c-59.39-1.695-184.96-10.179-223.143-41.572
		c-38.177-31.393-25.449-71.271-13.575-71.271c11.881,0,66.181-102.663,61.09-115.39
		C295.114,556.97,235.724,456.855,235.724,456.855z"></path>
</g>
</svg>
