<!--?xml version="1.0" encoding="utf-8"?-->
<!-- Generator: Adobe Illustrator 22.1.0, SVG Export Plug-In . SVG Version: 6.00 Build 0)  -->
<svg version="1.1" id="_x37_" xmlns="http://www.w3.org/2000/svg" xmlns:xlink="http://www.w3.org/1999/xlink" x="0px" y="0px" viewBox="0 0 654.906 800" style="enable-background:new 0 0 654.906 800;" xml:space="preserve">
<style type="text/css">
	.st0{fill:#040000;}
	.st1{fill:#FFFFFF;}
</style>
<g>
	<path class="st0" d="M608.892,12.588l-32.878,11.437c-7.156-4.292-5.718-25.755-18.592-21.461
		c-15.728,7.165-11.442,32.891-11.442,32.891c-5.651,1.136-7.931,3.256-9.333,5.323c-2.378,0.365-5.333,1.103-8.548,2.55
		c-7.864,3.579-10.022,5.728-14.312,5.728c-4.286,0-8.584,0-12.153,5.711c-3.565,5.736-2.146,12.164-10.013,12.883
		c-7.26,0.657-11.424,5.582-13.157,10.824c-9.095,2.83-21.162,8.489-21.162,8.489c-17.16-3.592-50.041,5.004-61.487,8.577
		c-11.448,3.577-33.605,30.021-37.183,38.611c-3.584,8.581-22.179,32.882-22.179,32.882l-15.725,20.747
		c0,0-17.166,17.874-21.452,25.03c-4.293,7.156-7.156,10.015-10.013,13.582c-2.861,3.578-10.016,10.01-14.309,14.298
		c-4.286,4.292-5.712,27.173-7.143,30.032c-1.435,2.858-12.883,9.304-21.443,24.329c-8.581,15.001-40.056,65.782-42.917,70.07
		c-2.857,4.288,27.179,24.314,27.179,24.314c-8.584,12.863,0,15.012-3.581,21.44c-3.578,6.444-63.642,102.268-63.642,102.268
		s-7.146,11.443-12.16,13.593c-5,2.139-11.428,16.439-15.006,17.169c-3.578,0.71-7.879,7.145-10.739,12.142
		c-2.853,5.008-47.902,62.204-75.791,91.527c-27.889,29.333-25.749,49.341-30.757,71.509c-8.574,7.146-7.855,25.024-7.855,25.024
		s-4.303,0.71-7.875,2.149c-3.574,1.429,0,48.63,0,48.63l29.322,0.712c0,0,2.149-3.569,2.864-7.875
		c0.715-4.289,5.717-1.43,9.29-1.43c3.573,0,11.448,0,22.885,6.446c11.439,6.437,47.203,6.437,60.776,2.859
		c13.592-3.569,4.301-12.164,4.301-12.164s5.002,0.711,20.01-0.708c15.026-1.44,12.88-12.153,7.873-13.592
		c-5-1.42-23.595-4.998-30.041-9.276c-6.426-4.297-25.734-25.044-26.449-27.182c-0.714-2.139-3.574-16.45,2.859-26.465
		c6.442-10.013,49.346-62.213,53.632-67.93c4.284-5.717,13.595-17.169,15.017-20.028c1.435-2.859,8.585-13.582,13.588-18.588
		c5-4.998,13.582-13.582,17.16-16.45c3.578-2.859,6.435-2.859,10.022-4.288c3.569-1.43,15.722-13.593,20.729-20.019
		c5.003-6.435,41.469-38.608,48.622-45.045c7.144-6.435,35.752-39.335,35.752-39.335s6.448,7.146,12.16,5.725
		c5.718-1.438,20.735-20.738,20.735-20.738s17.883,17.151,24.304,12.153c6.448-5.006,43.633-74.606,51.504-83.9
		c7.867-9.285,19.779-46.003,30.492-61.032c10.734-15.003,34.341-95.335,34.341-95.335s0.949,85.09,0.949,87.237
		c0,2.149,4.286,36.48,4.998,47.193c0.717,10.743,10.022,45.764,10.022,37.907c0-7.875,2.14-83.679,3.578-92.955
		c1.432-9.299-1.438-121.578-1.438-121.578l2.158-6.426l0.711-20.747c0,0,0,0,4.286-5.002c0,0,3.578-15.006,9.296-4.292
		c7.153,22.896,22.155,5.002,24.316,3.578c2.136-1.429,8.584-4.289,8.584-4.289s7.153,4.289,10.001,4.289
		c2.86,0,8.578-15.008,8.578-15.008s0.708,34.326,10.734,34.326c10.004,0,15.719-43.385,15.719-43.385s44.345-25.754,45.774-45.763
		C654.656,66.456,608.892,12.588,608.892,12.588z"></path>
	<path class="st1" d="M517.615,151.944c-0.479,1.142-0.824,2.245-1.084,3.161C516.532,155.105,517.011,153.829,517.615,151.944z"></path>
	<path class="st1" d="M351.133,457.01c0.712-0.69,1.762-1.822,3.047-3.251l-0.29-0.278L351.133,457.01z"></path>
	<path class="st1" d="M104.113,739.406c-2.015,1.641-4.365,3.031-5.779,2.082c-2.859-1.909,7.629,19.078,14.31,22.885
		c5.143,2.935,13.127,3.579,20.019,1.094c-1.711-0.71-3.204-1.458-4.398-2.254C123.895,760.307,110.766,747.262,104.113,739.406z
		 M300.46,338.666c-2.858-10.024,17.169-27.175,27.173-37.183c10.007-10.019,54.349-64.362,54.349-64.362
		s-38.844-36.568-58.031-46.89l-0.147,0.186l-0.156,0.178c-4.686,4.877-17.572,18.761-20.902,24.296
		c-3.523,5.875-6.167,9.045-8.511,11.831c-0.613,0.739-1.209,1.453-1.804,2.201c-2.109,2.633-6.063,6.418-9.876,10.068
		c-1.716,1.615-3.37,3.213-4.723,4.555c-1.899,2.058-3.66,14.11-4.417,19.262c-0.824,5.663-1.236,8.224-1.985,9.731
		c-0.812,1.621-2.35,2.973-4.912,5.199c-4.429,3.836-11.115,9.639-16.647,19.314c-7.831,13.73-36.136,59.531-42.172,68.971
		c2.687,3.759,14.614,12.996,25.171,20.046l3.377,2.235l-2.253,3.385c-4.131,6.198-3.434,8.788-2.696,11.54
		c0.647,2.369,1.52,5.62-0.705,9.621c0,0-0.213,7.328,6.942,8.766c7.159,1.42,14.303,0,14.303,0l11.439,10.006
		c0,0,10.004,1.438,12.873-5.718c2.867-7.146-1.435,2.859,2.867-7.146c4.286-10.024,5.712-20.028,5.712-24.316
		C284.729,390.146,303.332,348.67,300.46,338.666z M85.937,738.629c-7.621-4.766-18.115,1.908-23.832,3.818
		c-5.721,1.899-23.837,1.899-33.375,0.951c-5.179-0.509-10.066-2.437-13.452-4.078c-0.15,1.871-0.17,3.531-0.13,4.652l0.121,3.253
		c8.728,5.677,14.426,5.717,14.426,5.717s18.105,2.859,26.689,7.626c8.58,4.758,33.366,10.483,46.717,3.807
		C97.379,761.516,93.566,743.397,85.937,738.629z M568.28,20.098c-0.672-1.554-1.267-3.222-1.85-4.858
		c-1.89-5.367-3.417-9.18-5.862-9.18c-0.479,0-1.044,0.11-1.67,0.298c-12.458,5.918-8.957,28.214-8.938,28.455l0.644,3.865
		c1.062,8.416,15.987,50.636,21.464,66.011l-9.946,5.241c0,0-2.369-4.156-1.19-6.536c1.19-2.355-7.107,0-7.107,0l-10.09,4.149
		c0,0,4.161-4.149,4.747-6.504c0.595-2.378-3.557-6.536-2.369-12.465c1.181-5.917,1.782-19.571-5.92-15.395
		c-7.712,4.135-12.467,20.134-13.658,23.713c-1.169,3.549-8.276,2.358-10.666,4.734c-2.36,2.378-4.143,6.527-2.973,10.085
		c1.19,3.56,4.759,22.522,6.542,26.667c1.209,2.834-0.577,9.572-1.823,13.567c1.393-3.408,3.828-7.111,7.867-7.111
		c4.411,0,6.82,4.503,7.614,6l0.192,0.33l0.098,0.365c1.264,3.994,3.422,8.725,6.695,8.725c3.435,0,7.837-4.053,9.727-5.79
		c0.797-0.739,1.438-1.28,1.792-1.511c2.37-1.596,8.49-4.325,9.171-4.628l1.939-0.858l1.801,1.079
		c2.436,1.467,5.324,2.877,6.927,3.453c1.42-2.038,3.896-7.165,5.782-12.138l8.01-3.838l0.018-0.009
		c0.357,16.762,4.115,35.567,6.35,35.585c3.618-1.31,9.268-20.32,11.866-39.898l0.134-1.164
		c-6.369-11.089-27.787-48.752-30.809-60.339C572.789,70.197,553.077,40.165,568.28,20.098z M607.588,17.331l-30.244,10.523
		l-1.804,0.614l-1.618-0.965c0,0-3.627,7.481,0.18,14.162c0,0,26.205,60.012,40.413,81.359
		c13.976-9.381,33.837-25.136,34.683-36.843C650.206,71.809,621.045,33.499,607.588,17.331z M484.044,87.524l-0.882-6.168
		c-6.121,1.397-17.398,6.116-24.151,9.267l-1.209,0.58l-1.319-0.269c-2.457-0.508-5.449-0.781-8.902-0.781
		c-16.555,0-39.57,5.812-50.572,9.245c-9.974,3.128-31.285,28.254-34.643,36.312c-3.129,7.501-16.323,25.341-21.016,31.58
		c10.221,7.675,27.161,20.595,32.051,25.493c7.137,7.154,24.316,24.329,24.316,24.329s27.164-34.335,28.59-45.773
		c1.444-11.454,4.293,8.57-17.142,40.036c-21.47,31.456-95.828,112.979-102.983,124.431c-7.156,11.444,2.869,7.145-12.871,41.476
		c-8.581,17.16-4.289,34.311-7.137,41.475c-2.87,7.146,14.287,40.046,10.004,52.909c-2.757,8.25,7.977,8.278,16.039,7.223
		c3.623-4.086,6.09-6.925,6.169-7.04l2.998-3.405l3.065,3.367c1.353,1.478,5.004,4.575,7.574,4.575l0.571-0.067
		c2.497-0.767,10.99-9.592,18.539-19.309l2.757-3.529l0.29,0.278c15.383-17.323,68.621-84.399,77.862-93.645
		c10.004-10.015,27.164-80.089,34.313-112.989c7.165-32.891,5.718-92.955,7.165-125.856c5.709,28.608,1.423,85.81,1.423,85.81
		c8.585-22.878,15.163-116.623,15.163-116.623l-5.208,3.07L484.044,87.524z M505.798,166.844c0,0-4.152,32.614-4.152,34.973
		c0,1.453-2.601,10.201-4.643,16.939c0.529,18.709,2.974,97.944,2.974,99.824c0.027,1.008,0.815,7.904,1.581,14.581
		c1.334,11.567,2.995,25.984,3.416,32.401c0.192,3.108,1.191,8.45,2.454,14.138c0.748-25.659,2.073-62.95,3.071-69.551
		c1.016-6.556-0.327-75.858-1.459-120.842l-0.037-0.705l0.229-0.678l1.957-5.864l0.69-20.154l0.058-1.433l0.153-0.168
		C509.367,160.783,505.798,166.844,505.798,166.844z"></path>
</g>
</svg>
