<!--?xml version="1.0" encoding="utf-8"?-->
<!-- Generator: Adobe Illustrator 22.1.0, SVG Export Plug-In . SVG Version: 6.00 Build 0)  -->
<svg version="1.1" id="_x32_" xmlns="http://www.w3.org/2000/svg" xmlns:xlink="http://www.w3.org/1999/xlink" x="0px" y="0px" viewBox="0 0 792.578 800" style="enable-background:new 0 0 792.578 800;" xml:space="preserve">
<style type="text/css">
	.st0{fill:#040000;}
</style>
<g>
	<path class="st0" d="M16.413,284.991c-0.912-1.837-4.569-13.7,6.398-14.62c8.248-0.689,32.893-13.707,43.853-24.664
		c-14.61,23.752,11.87,126.979,80.391,190.947c8.257,7.692,16.904,14.495,25.716,20.53c9.781,25.123,25.016,61.969,41.436,93.201
		c-18-5.762-35.733-11.895-48.258-16.694c-36.947-14.222-36.947-2.855-55.425,4.259c-18.484,7.102-38.39,38.378-48.33,49.739
		c-9.964,11.379-4.268,19.896,0,26.998c4.249,7.127,2.834-8.517,5.687-15.619c2.84-7.12,31.261-36.956,31.261-36.956
		s-9.937,15.632-14.213,29.836c-4.256,14.223,2.855,21.33,5.696,25.596c2.824,4.258,2.824-8.518,1.415-14.217
		c-1.415-5.687,12.791-32.692,18.484-36.956c5.68-4.258,14.207-15.638,21.316-15.638c7.105,0-7.109,31.282-7.109,42.643
		c0,11.372,5.693,21.312,5.693,21.312s2.834-7.102,2.834-14.204c0-7.107,9.951-36.956,17.06-46.913
		c11.007-3.912,43.739,4.326,73.221,13.682c5.891,10.038,11.821,18.99,17.624,26.067c6.276,9.442,2.788,18.302,8.226,20.562
		c5.475,24.683-10.976,109.621-13.713,120.603c-2.738,10.964-35.624,9.579-47.967,12.317c-12.32,2.756-20.555,12.342-15.064,10.97
		c5.476-1.366,17.808-2.732,17.808-2.732l39.753-4.122c0,0-32.9,12.342-39.753,17.829c-6.844,5.469-5.482,10.957-5.482,10.957
		c10.972-5.488,45.234-17.81,52.082-20.56c6.847-2.738-15.079,23.298-19.186,27.414c-4.116,4.103-6.86,13.701-2.753,10.956
		c4.113-2.744,10.96-8.213,10.96-8.213s12.338-21.939,21.943-26.043c9.597-4.115,24.67,5.487,30.145,4.103
		c5.483-1.366,16.439,5.494,16.439,5.494s-1.371-13.713-16.439-15.086c-15.079-1.366-28.774-10.97-27.408-19.177
		c1.372-8.238,13.708-113.743,17.817-120.591c4.115-6.854,4.115-13.713,4.115-13.713s-8.169-10.566-19.008-26.75
		c10.33,3.793,18.27,7.015,21.716,8.728c14.216,7.109,22.746,4.265,29.86-5.687c7.102-9.951-14.217-52.582-31.276-76.75
		c-1.632-2.297-3.091-4.531-4.45-6.749c26.371,5.439,45.771,5.731,49.279,5.345c8.232-0.919,26.509-1.831,33.81,2.738
		c7.306,4.569,28.333,10.057,45.684,6.407c18.264,12.783,29.221-2.756,29.221-2.756s18.27,13.714,21.945,3.662
		c3.65-10.051-128.829-89.532-128.829-89.532l16.458-21.933c0,0,5.463,2.738,16.445,4.575c10.957,1.819,8.207-17.364,8.207-17.364
		s15.526-3.65,25.589-3.65c10.044,0,8.225-21.933,19.183-22.846c10.957-0.906,10.044-18.264,10.044-18.264
		s2.75-10.976,23.758-10.976c21.015,0,12.795-22.827,12.795-22.827s8.22,0.907,21.009,1.818c12.795,0.919,5.482-19.177,5.482-19.177
		s9.138-0.931,16.445,2.744c7.307,3.657,9.133-12.801,21.933-15.544c19.177,1.83,16.439-21.008,16.439-21.008
		s42.941,7.307,55.729,8.219c12.782,0.906-5.482-19.177-5.482-19.177s10.045-0.924,21.928,1.82
		c11.876,2.75,7.313-17.358,7.313-17.358s19.176,7.307,36.54,12.801c17.352,5.469,4.576-18.283,4.576-18.283
		s20.083,9.138,42.928,11.877c22.846,2.756-55.729-72.169-55.729-72.169s88.62,39.266,115.11,47.511
		c23.497,7.288-0.472-35.001-56.542-64.427c27.637,13.118,71.299,33.915,82.132,35.181c14.744,1.738-25.727-45.964-34.505-51.521
		c6.643,2.023,31.034,8.586,39.067,12.236c10.05,4.569-3.657-24.651-50.242-42.013c2.731,0.913,12.782-4.579-1.826-17.376
		c-95.932-59.373-396.519-37.435-408.383-10.957C318.279,94.37,274.351,177.816,224.798,220.8c1.99-4.793,4.147-9.318,6.308-12.552
		c5.488-8.227,2.75-41.116,10.963-46.585c8.238-5.494,13.707-8.238,13.707-8.238s2.744-2.738,8.233-10.958
		c5.468-8.219,21.914-35.625,21.914-35.625c13.713-16.442,2.756-27.405,2.756-27.405c16.44-19.19,2.738-32.893,2.738-32.893
		c19.176-24.668,27.408-54.814,2.725-41.116c-24.665,13.711-87.691,90.442-106.884,109.635
		c-11.258,11.252-26.275,77.144-36.77,129.757c-39.16-9.07-11.23-49.981-1.602-67.637c10.967-20.102,4.563-43.854,4.563-43.854
		l4.565-5.476l-6.382-0.918c0,0,8.22-10.042,16.449-14.612c-8.229-4.569-23.764,3.651-23.764,3.651s6.388-7.307,10.967-10.051
		c4.569-2.731-16.449,1.832-23.756,5.482c-64.865-33.803-91.358,25.573-91.358,25.573s-6.404,10.057-6.404,28.334
		c0,17.37-19.173,61.204-29.224,83.137C-5.511,270.371,17.335,286.817,16.413,284.991z M677.86,138.817
		c0.621,0.174,2.018,0.757,3.999,1.632C680.536,139.904,679.202,139.358,677.86,138.817z M202.8,474.591
		c15.365,7.487,30.627,13.031,44.8,17.104c19.407,33.492,37.752,72.602,37.752,76.11c0,2.757-19.487-1.887-43.73-8.989
		C226.12,533.741,209.352,502.204,202.8,474.591z"></path>
</g>
</svg>
