<!--?xml version="1.0" encoding="utf-8"?-->
<!-- Generator: Adobe Illustrator 22.1.0, SVG Export Plug-In . SVG Version: 6.00 Build 0)  -->
<svg version="1.1" id="_x31__1_" xmlns="http://www.w3.org/2000/svg" xmlns:xlink="http://www.w3.org/1999/xlink" x="0px" y="0px" viewBox="0 0 800 485.8" style="enable-background:new 0 0 800 485.8;" xml:space="preserve">
<style type="text/css">
	.st0{fill:#040000;}
</style>
<g>
	<path class="st0" d="M336.036,316.19l-18.444-3.797c-1.161,1.652-4.888,14.112-9.52,27.273
		c-5.616,15.956-12.179,32.941-12.179,32.941s2.712,8.68,5.425,19.054c2.712,10.375,3.798,35.736,0.543,45.5
		c-3.255,9.765-17.901,27.124-17.901,28.751c0,1.628,21.699,1.628,26.038,0c4.34-1.627,5.967-6.509,9.764-12.477
		c3.798-5.967,4.883,1.627,11.086,0c6.204-1.627,2.476-3.797,5.188-14.104c2.712-10.308-7.052-42.856-10.307-57.502
		C322.474,367.182,334.951,323.784,336.036,316.19z"></path>
	<path class="st0" d="M688.308,324.415c-0.854-6.833-29.849-37.155-36.918-42.28c-7.07-5.125-8.778-4.698-12.621-2.99
		c-3.844,1.708-15.375,6.025-15.375,6.025c-2.135,12.766,16.656,27.287,17.51,40.953c0.854,13.666-6.833,68.331-11.104,79.008
		c-4.271,10.676-14.948,24.343-14.948,31.603c0,7.26-2.99,13.666,7.26,12.812c10.25-0.854,15.079,1.708,18.857-1.708
		c3.778-3.417,9.33-16.229,10.611-19.219c1.282-2.989,0,3.417,6.406,0.854c6.406-2.563,7.26-11.958,7.26-11.958l1.708-30.212
		C666.954,387.305,689.162,331.249,688.308,324.415z"></path>
	<path class="st0" d="M788.212,21.418c-1.863,2.411-4.604,5.155-7.743,7.784c-0.873-8.76-4.195-17.727-12.049-23.873
		c-8.462-6.623-30.537-6.991-37.159,12.141c-5.78,16.695,7.243,31.327,20.047,32.745c4.635,0.513,9.169,0.249,13.476-0.545
		c-6.72,8.543-19.598,13.411-31.479,12.08c-16.998-21.188-39.844-38.205-68.605-47.473c-90.14-29.045-222.347,8.012-266.415,24.038
		C354.214,54.338,248.794,70.783,207.73,59.242c-41.064-11.541-91.638,17.335-91.638,17.335c-9.109-5.794-31.882-11.386-51.238,0
		c-19.357,11.386-35.297,37.574-31.881,43.268c3.416,5.693,31.625,5.693,44.847,9.109c13.222,3.416,34.856-17.079,38.272-20.496
		c3.416-3.416,9.931-1.119-0.317,7.99c-10.247,9.109-25.096,21.158-35.784,18.88c-10.689-2.277-13.998,8.428-20.83,16.398
		s-24.779,52.238-35.026,52.238c-10.248,0-25.049,5.693-21.634,12.525c3.416,6.832,33.02,36.436,42.129,38.713
		c9.109,2.277,41.234-15.941,44.528-21.634c3.294-5.693,8.448-1,3.386,6.742c-5.063,7.742-18.164,12.905-20.546,15.088
		c-2.382,2.182,0.596,6.054,5.955,4.862c5.36-1.191,9.063,2.693,13.102,2.382c21.751-1.673,113.927,28.065,135.961,32.071
		c0,0,7.633,4.154,8.146,3.128c0.513-1.026-1.54-14.367-3.079-24.63c-1.54-10.262,2.052-13.853,5.131-6.157
		c3.079,7.697,5.131,38.996,5.644,48.232c0.513,9.236,1.539,79.841,1.539,79.841s-2.565,33.865-6.67,44.64
		c-4.105,10.775-24.116,31.3-24.116,31.3s-4.105,9.749-2.053,11.288c2.053,1.539,29.761-1.026,36.944-2.565
		c7.183-1.54,9.749-5.435,10.775-11.289c1.026-5.853,5.644-10.262,8.723-17.959c3.079-7.697,5.644-31.299,8.209-45.153
		c2.566-13.854,16.419-38.792,22.577-55.212c6.157-16.419,19.498-64.652,21.037-73.887c1.54-9.236,6.158-11.289,7.697-4.105
		c1.54,7.183-7.36,36.549-7.36,36.549s106.165,19.03,164.307,7.011c58.142-12.018,123.141-25.039,148.18-40.063
		c1.592-0.954,3.175-1.668,4.744-2.171c-6.351-4.229-12.806-8.746-15.718-11.464c-6.678-6.234-8.459-17.373,3.116-10.467
		s34.771,26.873,38.377,30.406c11.2,10.174,19.599,25.396,22.563,28.752c5.307,6.009,20.031,34.053,23.036,45.07
		c3.005,11.017,11.017,58.03,2.003,78.061c-9.014,20.031-25.039,45.07-25.039,48.074c0,3.005,27.042,4.007,36.056,0
		c9.014-4.006,9.014-7.588,14.022-15.023c5.008-7.434,6.01-22.034,5.008-37.058c-1.002-15.023,3.004-48.014,10.015-63.037
		c7.011-15.024,2.003-32.05-3.004-41.064c-5.007-9.014-9.014-35.055,15.023-106.165c14.79-43.753,8.345-100.397-19.799-144.272
		c23.299-2.238,33.264-16.593,36.037-27.685c0.24-0.961,0.46-1.979,0.659-3.037c9.729-4.832,16.525-11.391,17.738-14.623
		C799.693,24.092,794.466,13.324,788.212,21.418z M757.749,39.913c-8.094-1.472-18.23-5.763-16.556-16.924
		c1.104-7.358,19.569-17.66,27.226,6.99c0.727,2.341,1.057,4.604,1.046,6.771C765.056,39.103,760.824,40.471,757.749,39.913z"></path>
</g>
</svg>
