<svg aria-hidden="true" style="position: absolute; width: 0; height: 0; overflow: hidden;" version="1.1" xmlns="http://www.w3.org/2000/svg" xmlns:xlink="http://www.w3.org/1999/xlink">
<defs>
<symbol id="app" viewBox="0 0 24 24" fill="none" stroke-linecap="round" stroke-linejoin="round">
<polyline points="16 18 22 12 16 6"></polyline><polyline points="8 6 2 12 8 18"></polyline>
</symbol>
<symbol id="personnel" viewBox="0 0 24 24" fill="none" stroke-linecap="round" stroke-linejoin="round">
<path d="M16 4h2a2 2 0 0 1 2 2v14a2 2 0 0 1-2 2H6a2 2 0 0 1-2-2V6a2 2 0 0 1 2-2h2"></path><rect x="8" y="2" width="8" height="4" rx="1" ry="1"></rect>
</symbol>
<symbol id="waste" viewBox="0 0 24 24" fill="none" stroke-linecap="round" stroke-linejoin="round">
<line x1="12" y1="2" x2="12" y2="6"></line><line x1="12" y1="18" x2="12" y2="22"></line><line x1="4.93" y1="4.93" x2="7.76" y2="7.76"></line><line x1="16.24" y1="16.24" x2="19.07" y2="19.07"></line><line x1="2" y1="12" x2="6" y2="12"></line><line x1="18" y1="12" x2="22" y2="12"></line><line x1="4.93" y1="19.07" x2="7.76" y2="16.24"></line><line x1="16.24" y1="7.76" x2="19.07" y2="4.93"></line>
</symbol>
</defs>
</svg>
