<svg version="1.1" xmlns="http://www.w3.org/2000/svg" width="32" height="32" viewBox="0 0 32 32">
<title>coin</title>
<path fill="#ffd700" opacity="0.9" stroke="#181818" stroke-linejoin="miter" stroke-linecap="butt" stroke-miterlimit="4" stroke-width="2" d="M0.97 16c0-8.301 6.729-15.030 15.030-15.030s15.030 6.729 15.030 15.030c0 8.301-6.729 15.030-15.030 15.030s-15.030-6.729-15.030-15.030z"></path>
<path fill="#630" opacity="1" d="M13.415 16.67q-0.419-0.901-0.811-1.935-0.366-1.060-0.654-2.015-0.262-0.981-0.419-1.617h-0.078q0.288 1.538 0.445 3.552 0.157 1.988 0.157 4.268v7.635h-1.256v-16.887h0.706l7.35 15.614h3.924v-19.405h1.256v20.678h-5.964zM12.5 7.153h-3.714v19.405h-1.256v-20.678h5.755l4.682 9.782q0.523 1.087 0.968 2.227 0.445 1.113 0.732 2.015 0.314 0.875 0.366 1.246h0.131q-0.34-1.962-0.497-3.844t-0.157-3.42v-8.006h1.256v16.701h-0.863z"></path>
</svg>
