<svg aria-hidden="true" style="position: absolute; width: 0; height: 0; overflow: hidden;" version="1.1" xmlns="http://www.w3.org/2000/svg" xmlns:xlink="http://www.w3.org/1999/xlink">
<defs>
<symbol id="01" viewBox="0 0 24 32">
<path d="M17.666 27.101c0 0-1.58-0.854-2.434-2.466-1.049-1.982-0.99-3.405-0.791-3.857 0.981-2.213 4.407-5.263 5.153-8.661 0.854-3.888-1.422-9.673-8.155-9.483-6.757 0.19-9.714 5.087-9.326 7.65 0.316 2.086 0.063 3.035-1.264 4.552-0.706 0.808 0.063 1.265 0.379 1.454s0.506 0.948 0.19 1.264c-0.316 0.316 0 0.506 0.253 0.696s-0.267 0.715 0 0.885c0.695 0.442 0.379 1.201 0.442 1.707s0.52 1.308 2.339 0.695c2.908-0.98 3.983 1.581 4.678 3.857s-2.434 5.974-2.434 5.974c-1.328 1.517 4.837-0.474 7.302-1.422 1.354-0.521 4.488-1.991 3.666-2.845z"></path>
<path d="M2.43 11.548c0 0-1.422 0.664-2.371 0.569 0 0 0.948 0.759 2.276 0.664l0.095-1.233z"></path>
<path d="M6.947 1.875c-3.361 0.569-6.891 2.655-6.051 6.069 0.612 2.486 4.538 3.983 4.538 3.983l0.504-3.604c0 0 7.227 4.741 6.219 9.294s-1.009 1.138-1.009 1.138 3.051 5.661 7.403 2.276c11.949-9.294 1.001-26.553-11.604-19.156z"></path>
</symbol>
<symbol id="02" viewBox="0 0 22 32">
<path d="M20.675 15.759c2.193-4.385 0-15.148-7.272-14.551-8.77-3.986-12.889 3.721-13.155 5.714-0.182 1.366 0.197 2.085 0.668 2.76 0.028 1.381 0.419 2.246 0.586 2.973-0.218 0.131-0.855 0.434-1.45-0.051 0.196 0.652 1.477 0.664 1.524 0.664-0.003 0.144-0.022 0.287-0.067 0.432-0.199 0.648-0.627 1.395-1.059 1.893-0.461 0.533-0.161 1.229 0.602 1.262 0.821 0.036 0.897 0.797 0.698 1.096s0.1 0.831 0.399 0.93c-0.1 0.1-0.199 0.764 0.299 0.863s0.431 0.433 0.594 0.797c0.244 0.548 0.455 1.109 2.192 0.997 1.545-0.1 2.964-0.404 3.642-0.598 0.349-0.1 1.047 2.442 0.947 3.040-0.199 1.196-2.525 3.139-3.588 4.468-1.436 1.796-1.843 3.471-1.345 3.471s3.139-1.545 5.73-2.143c2.591-0.598 8.371-2.259 8.621-3.555 0.037-0.195-0.005-0.43-0.102-0.692 1.402-1.086 0.937-2.796 0.937-2.796s1.395-0.399 1.196-1.196c-0.996-0.199-2.79-1.395-0.598-5.78z"></path>
</symbol>
<symbol id="03" viewBox="0 0 28 32">
<path d="M18.485 26.88c0 0-1.653-0.893-2.546-2.579-1.098-2.073-1.036-3.561-0.827-4.033 1.025-2.314 4.609-5.505 5.389-9.059 0.893-4.067-1.488-10.117-8.53-9.918-7.067 0.199-10.16 5.32-9.753 8.001 0.331 2.182 0.066 3.174-1.322 4.761-0.739 0.844 0.066 1.322 0.397 1.521s0.529 0.992 0.198 1.322c-0.33 0.331 0 0.529 0.265 0.727s-0.279 0.748 0 0.926c0.728 0.463 0.396 1.256 0.463 1.785s0.544 1.369 2.446 0.727c3.042-1.025 4.166 1.653 4.893 4.034s-2.546 6.248-2.546 6.248c-1.388 1.587 5.059-0.496 7.638-1.488 1.415-0.545 4.694-2.083 3.835-2.975z"></path>
<path d="M2.549 10.613c0 0-1.488 0.694-2.48 0.595 0 0 0.992 0.793 2.38 0.694l0.099-1.289z"></path>
<path d="M5.326 1.885c-2.38-0.099-5.257 2.281-4.761 4.563s3.968 2.579 3.968 2.579-0.794-1.19 0.099-1.884c0 0 2.678 1.686 6.645 2.281l0.992 3.769c0 0 0.596-2.876 2.083-3.174s1.29 2.182-0.495 4.463l2.48 3.174c0 0 6.447-6.149 4.166-11.505s-7.538-8.133-15.175-4.265z"></path>
<path d="M15.741 1.687c2.678-0.099 4.725-2.867 8.728-0.595 3.669 2.083 4.86 7.075 0.892 12.993-3.218 4.799-0.793 7.538 0.694 9.323 0 0-3.284 0.973-5.355-1.984-2.48-3.537 0.363-8.563 1.487-12.133 1.724-5.475-4.298-5.157-4.298-5.157l-2.149-2.447z"></path>
</symbol>
<symbol id="04" viewBox="0 0 12 32">
<path d="M0.094 10.34c0.202-0.472 0.202-0.81 0.27-0.978s0.168-0.877 0.911-1.653c0.27-0.91 0.303-2.158 2.294-2.428 0.675-0.034 0.776-0.034 0.978-0.068s0.371-0.54 0.371-0.54h0.005c0.037-0.305-0.149-0.163-0.263-0.427-0.141-0.326-0.218-0.924-0.239-0.957s-0.109-0.294-0.185-0.489c-0.076-0.197-0.044-0.294 0.011-0.349s0.131 0.076 0.131 0.076 0 0-0.011-0.261c-0.044-0.729 0.12-0.979 0.424-1.305s0.272-0.468 0.282-0.544c0.011-0.076 0.033-0.152 0.033-0.152s0 0 0.076 0.098c-0.054-0.141 0.044-0.283 0.044-0.283s0.033 0.185 0.141 0.25c-0.033-0.054-0.022-0.163 0.021-0.174-0.033 0.076 0.109 0.163 0.805 0.283s1.001 0.697 1.001 0.697 0.152 0.163 0.261 0.391c0.109 0.229-0.065 1.109 0.011 1.262 0.174 0.109 0.033 0.587-0.011 0.74s-0.196 0.272-0.207 0.38c-0.011 0.109-0.022 0.359 0 0.49 0.015 0.090 0.020 0.251 0.050 0.364 0.029 0.024 0.059 0.051 0.092 0.078 0.24 0.204 0.57 0.494 0.731 0.675 0.27 0.304 0.911 0.776 0.911 0.776 0.135 0.034 1.181 0.135 1.417 1.383 0.607 0.843 0.911 1.045 0.944 2.158 0.337 0.878 0.034 0.81 0.169 1.012s0.067 0.54-0.27 0.877c-0.337 0.337-0.202 0.675-1.315 0.877s-2.092 0.101-2.125 0.303c-0.034 0.202 0.034 0.405 0.135 0.573s0.337 0.776 0.236 1.821c-0.101 1.045-0.337 1.484-0.675 1.821s-0.338 0.641-0.338 0.81c0 0.169-0.033 1.147-0.438 2.226s-0.809 2.159-0.675 2.361c0.135 0.202 1.417 1.619 1.248 2.698s-0.27 1.315-0.27 1.315-0.034 1.417 0.169 1.585c0.202 0.169 0.809 0.338 0.438 0.978s-0.405 0.742-0.371 0.878c0.034 0.134 0.439 0.708 0.135 0.978s-0.708 0.236-0.708 0.236-0.203 0.472-0.405 0.54c-0.202 0.135-0.371 0.27-0.506 0.067-0.304 0.202-0.266 0.127-0.438 0.034-0.438-0.236-0.202-0.169-0.068-0.439s0.034-0.439 0.034-0.439-0.708 0.439-1.147 0.303c-0.438-0.135-0.708-0.101-0.708-0.101s-0.135-0.269 0.135-0.371c0.27-0.101 1.316-0.742 1.316-0.742s0.472-0.539 0.506-0.775c0.034-0.236-0.776-2.125-1.181-2.462s-2.664-2.901-2.934-3.339c-0.574-0.405-0.742-1.079-0.202-1.686 0-0.944 0.573-3.474 1.079-4.419 0.506-0.944 1.012-1.484 1.012-1.484s0.439-1.72 0.439-1.855c0-0.135-0.135-1.046-0.203-1.181s-0.27-0.371-0.27-0.371-1.113-0.337-2.057-0.675c-0.945-0.337-0.809-0.708-0.809-0.708s-0.439-0.27-0.236-0.742zM3.366 22.179c0.034 0.067 0.236 0.269 0.236 0.269s0.068-0.202 0.101-0.337c0.034-0.135 0.034-0.472 0.034-0.472l-0.371 0.54zM3.028 10.913c0.236 0.27 0.438 0.236 0.438 0.236l-0.101-0.675c0 0-0.135-0.439-0.202-0.641-0.175-0.175-0.376-0.553-0.426-0.65-0.007-0.016-0.012-0.024-0.012-0.024s0.004 0.009 0.012 0.024c0.040 0.093 0.123 0.443-0.687 0.819 0.304-0 0.742 0.641 0.978 0.911z"></path>
</symbol>
<symbol id="05" viewBox="0 0 25 32">
<path d="M22.807 27.232c-0.89 0.369-2.687 0.666-3.324 0.347s-2.166-0.318-3.376 0.51c1.21-1.847 0.509-3.822 0.509-3.822s0.7-0.637 1.083-2.484c1.019-3.12-0.7-4.649-0.764-5.159s-0.064-1.974 0-2.548c0.191-0.382 0-1.21 0.191-2.356 0.382-1.083-0.064-3.439-0.064-3.439s2.038-0.955 2.484-1.783c0.446-0.828 0.637-1.465 0.637-1.465s0.892-1.018 0.509-1.592c-0.509-1.21-0.828-1.719-2.357-2.165s-2.165-0.892-2.484-1.019c-0.318-0.128-1.274-0.445-2.102 0.319s-0.901 1.052-0.859 1.342c0.041 0.29 0.041 1.035 0.207 1.118s0.787 0.29 0.994 0.125c0.207-0.166 0.497-0.332 0.497-0.332l0.124-0.373c0 0 0.414-0.207 0.497-0.538 0.083-0.332 0.373-0.166 0.373-0.166s0.787 0.249 1.119 0.787c0.331 0.539 0.663 1.078 0.994 1.078-1.367-0.249-1.575 0.331-1.782 0.621s-0.207 0.29-0.207 0.29-0.995-0.29-1.74 0.166c-0.746 0.456-0.953 1.119-1.119 1.202-0.58 0.083-1.16 0.29-1.285 0.248s-0.746-0.331-0.746-0.621c0-0.291 0.124-0.249 0.083-0.498s-0.456-1.533-0.663-1.989c-0.207-0.456-0.87-1.367-2.031-1.408s-1.741 0.497-2.32 0.953c-0.58 0.456-0.663 1.74-0.497 2.030s0.373 0.539 0.373 0.539 0.207 1.036 0.415 1.285c0.207 0.248 0.373 0.497 0.373 0.497s0.083 0.87 0.787 1.201c0.704 0.332 1.284 0.498 1.284 0.498s-0.538 0.331-0.663 0.746c-1.119-0.166-2.279 0.414-2.818 1.658-0.704-0.331-1.368-0.29-1.865 0.787-0.124-0.373-0.331-0.787-0.663-1.326s-0.414-1.284-0.124-1.326c0.29-0.041 0.539 0.041 0.746 0.041s0.497 0.083 0.705-0.166c0.207-0.248 0.29-0.497 0.331-0.829s0-0.373-0.249-0.663c-0.249-0.29-0.621-0.663-1.119-0.497s-1.699 0.704-1.823 0.87c-0.125 0.166-0.207 0.746-0.373 1.284s-0.248 2.114-0.58 2.983c-0.331 0.87 0.663 1.906 0.746 2.321 0.124 0.539 0.704 0.829 1.202 0.58 0.704 0.331 2.155 0.29 3.273-0.124s1.824-0.87 1.948-1.077c0.497 0.248 0.704 0.994 1.657 1.244s1.285 0.497 1.326 0.662c0.042 0.166 0.207 0.705 0.456 0.912 0.042 0.207 0.29 0.829 0.414 1.077-1.492-0.331-4.102 0.663-4.765 0.995s-1.823 0.704-1.823 1.658c-0.539 0.787-0.373 1.699-0.166 2.279s1.16 3.73 1.409 5.056c0.249 1.326 0.58 1.782 0.083 2.238s-1.367 0.704-1.575 0.87c-0.373 0-0.414 0.082-0.539 0.166-0.29-0.042-0.456 0.497 0 0.497s1.326 0.497 2.072 0.29c0.746-0.208 1.326 0.124 1.948 0.083s0.953-0.291 0.787-0.912c-0.166-0.621-0.415-1.077-0.415-1.615s-0.124-1.244 0.083-2.031c0.207-0.787 0.539-1.575 0.373-2.445s-0.911-2.155-0.911-2.155 0.746 0 1.533 0.083c0.869 0.092 1.285 0.539 1.823 0.58-0.083 0.456-0.249 2.528 0 3.564s0.953 1.906 1.036 2.32c0.083 0.414 0.539 1.865 1.741 1.782 1.119 0.207 3.025 0.622 4.227 0s3.775-1.639 3.966-1.639c0.19 0 0.953-0.238 1.096 0.143s-0.048 1.239-0.524 1.43c-0.143 0.048-0.333 0-0.476 0.191s-0.143 0.572 0.381 0.524c0.524-0.048 0.667 0.333 1.239-0.191s1.001-0.572 1.001-1.667c0-1.097 0.19-2.192 0.095-2.574s-1.176-0.431-2.042-0.072z"></path>
</symbol>
<symbol id="06" viewBox="0 0 28 32">
<path d="M2.43 5.753c0.19 0 1.915 0.219 2.137 0.377s0.528 1.18 0.749 1.339c0.222 0.158 1.168 0.754 1.295 0.723s0.158-0.095 0.253-0.095c0.095 0 0.887 0.159 0.887 0.159s0.222-0.064 0.317-0.064c0.095 0 3.453 0.507 3.896 0.539s0.507-0.064 0.95 0.031c0.444 0.096 1.426 0.064 1.711 0.032 0.212-0.023 0.528-0.116 0.82-0.202 0.261-0.524 0.466-0.922 0.466-0.922l-0.261-0.843 0.147-0.107c0 0-0.067-0.107-0.040-0.147s-0.013-0.321-0.013-0.442c0-0.12-0.147-0.454-0.214-0.615-0.067-0.16-0.749-0.575-0.977-0.723-0.228-0.147-0.121-0.415-0.027-0.508s0.281-0.334 0.255-0.374c-0.027-0.041-0.014-0.228 0.053-0.228s0.147-0.026 0.107-0.081c-0.040-0.053-0.067-0.187 0.027-0.2s0.214-0.281 0.214-0.281-0.121-0.134-0.228-0.228c-0.107-0.093-0.12-0.294 0-0.321s0.629-0.334 0.71-0.361c0.080-0.026 0.227-0.187 0.227-0.254s0.107-0.201 0.201-0.295c0.094-0.094 0.803-0.575 0.803-0.575s-0.094-0.575 0.147-0.843c0 0.081 0.134 0.134 0.134 0.134l0.026-0.295c0 0 0.348 0.401 0.535 0.455s2.008 0.321 2.623 1.258c0.616 0.937 0.509 1.66 0.509 1.66s-0.107 0.936-0.214 1.178c-0.107 0.241-1.071 0.964-1.365 1.151s-0.669 0.321-0.669 0.428c0 0.107 0 0.107 0 0.107l0.401 0.107 0.428 0.83c0 0 1.285 2.516 0.696 4.926-0.473 1.935-0.16 4.122-0.16 4.122s1.017 2.142 0.803 3.588c-0.214 1.446-0.321 2.676-0.321 2.676l-1.017-0.107c0 0-0.482 1.767-0.589 1.981s0.268 2.731 0.268 2.731 2.57-0.642 2.837-0.75c0.268-0.107 1.874-0.428 2.088-0.374 0.033 0.008 0.065 0.091 0.096 0.225 0.101-0.029 0.181-0.060 0.212-0.092 0.12-0.121 1.044-0.401 1.044-0.401s0.121-0.402 0.281-0.442c0.161-0.041 0.843-0.241 1.044-0.16 0.241-0.161 0.562-0.121 0.763-0.121s0.281 1.928 0.161 2.009c-0.121 0.079-0.362 0.12-0.321 0.24s0.241 0.883 0.281 1.285c0.041 0.402-0.763 1.807-0.923 1.887s-1.084 0.281-1.245 0.16c-0.161-0.12-0.241-0.16 0-0.361 0.241-0.202 0.643-0.723 0.723-0.844s-0.040-0.321 0.040-0.442c0.080-0.121-0.161-0.201-0.161-0.201s-0.803-0.441-0.924-0.602c-0.12-0.16-0.321-0.241-0.321-0.241l-0.040-0.24-0.425 0.17c0.057 0.73 0.090 1.416 0.090 1.489 0 0.161-0.857 0.321-0.857 0.321s-6.639 1.017-7.12 0.964c-0.482-0.053-1.017-1.446-0.964-2.196s-0.375-5.3-0.375-5.3-0.069-0.143-0.175-0.37c-0.324 0.017-1.020 0.038-1.584-0.051-0.763-0.12-0.522 0.242-0.441 0.361s-0.361 0.081-0.16 0.321c0.201 0.241 0.602 2.009 0.682 2.209 0.080 0.201 1.044 3.052 1.044 3.052s-0.162 0.131-0.353 0.268c0.061 0.226 0.146 0.498 0.193 0.482 0.080-0.026 0.321-0.134 0.348-0.053 0.027 0.080 0.348 1.392 0.294 1.686 0.107 0.294 0.054 0.589-0.027 0.616s-1.526 0.267-1.633 0.080c-0.107-0.187-0.295-0.348-0.295-0.348s-0.91 0.161-1.312 0.374c-0.402 0.215-1.713 0.107-1.901 0.134s-0.776-0.347-0.883-0.455c-0.107-0.107-0.053-0.375 0.214-0.428s1.499-0.134 1.686-0.187c0.187-0.054 0.321-0.241 0.375-0.321s0.803-1.018 0.83-1.232c0.026-0.213 0.241 0.027 0.241 0.027s0.032-0.075 0.035-0.197c-0.411-0.053-0.779-0.107-0.865-0.125-0.201-0.040-1.084 0.12-1.084 0.12s-0.12-1.204-0.201-1.686c-0.080-0.481-1.285-5.22-1.446-6.545s0.884-1.647 1.446-1.687c0.435-0.031 2.455 0.106 3.403 0.132-0.221-0.23-0.521-0.3-0.521-0.3s0.749-1.713 0.857-2.088c0.107-0.375 0.375-2.141 0.375-2.141s-0.069-1.894 0.005-3.079c-0.068 0.012-0.124 0.022-0.166 0.027-0.443 0.063-2.545-0.107-2.734-0.171s-4.181-0.981-4.276-1.077c-0.095-0.095 0-0.412 0-0.412s-0.823-0.348-0.855-0.475c-0.127-0.063-0.823-0.285-0.918-0.348s-0.887-0.538-1.172-0.602c-0.285-0.063-1.584-0.823-1.52-1.045-0.285-0.253-0.064-0.538-0.064-0.538-0.158-0.158-0.19-0.506-0.031-0.538-0.032-0.096 0.064-0.286 0.064-0.286l-0.317-0.126c0 0-0.317 0.031-0.317-0.19s0.285-0.19 0.475-0.19z"></path>
<path d="M3.838 8.152c0 0 0.412 1.342 0.488 1.51s0.351 0.885 0.443 0.992c0.091 0.107 0.046 0.289-0.031 0.305s-0.259-0.32-0.305-0.396c-0.046-0.076-0.717-1.785-0.763-2.349l0.168-0.061z"></path>
<path d="M3.441 8.076c0 0-0.045 2.777 0.107 3.005s0.183 0.015 0.183-0.092c0-0.106-0.076-1.555-0.076-1.723 0-0.169 0.031-1.175 0.031-1.175l-0.244-0.015z"></path>
<path d="M3.502 7.709c0 0 0.397 3.433 0.565 3.449s0.168 0.030 0.092-0.351c-0.077-0.382-0.412-2.899-0.397-3.052s-0.26-0.046-0.26-0.046z"></path>
<path d="M4.128 8.091c0 0.046 0.152 2.395 0.183 2.593s-0.183 0.29-0.26 0.061c-0.076-0.229-0.122-2.7-0.122-2.7l0.199 0.046z"></path>
<path d="M4.021 6.337c-0.010-0.048 0.213-1.144 0.366-1.266 0 0-0.458 0.213-0.473 0.458-0.061-0.169-0.106-0.473-0.046-0.779s0.092-0.534 0.214-0.625c0.122-0.091 0.061 0.092 0.259 0.092s0.168-0.259 0.092-0.412c0.107-0.152 0.107-0.305-0.031-0.351 0.046-0.167 0.031-0.397-0.122-0.366s-0.076-0.106 0.015-0.321c0.092-0.213 0.275-0.549 0.412-0.579s0.473 0.076 0.61 0.030c0.137-0.045-0.015-0.244-0.137-0.304 0.26-0.016 0.214-0.29-0.015-0.397-0.031-0.106 0-0.366-0.335-0.382-0.107-0.213-0.336-0.319-0.488-0.274-0.046-0.030-0.046-0.305-0.275-0.32-0.137-0.138-0.351-0.199-0.534-0.169-0.275-0.060-0.58-0.076-0.625 0.077-0.274 0-0.641 0-0.549 0.198-0.244-0.015-0.656 0-0.641 0.137-0.275-0.076-0.595-0.152-0.671-0.152 0.030 0.168 0.167 0.289 0.167 0.289s-0.412-0.106-0.473 0.213c-0.275-0.045-0.641 0.169-0.412 0.261-0.275 0.167-0.366 0.427-0.168 0.411 0 0-0.213 0.26-0.030 0.29s0.305-0.091 0.305-0.091 0.32 0.534 0.381 0.656c-0.26 0.016-0.153 0.167-0.031 0.229-0.122 0.077-0.030 0.259 0.122 0.244s0.275 0.123 0.275 0.123l0.198 0.427c0 0-0.305-0.106-0.458-0.015 0.366 0.228 0.778 0.488 1.053 0.931l-0.32-0.061c0 0 0.397 0.534 0.534 0.61s0.656 0.778 0.793 1.007 1.053 0.259 1.038 0.183z"></path>
</symbol>
<symbol id="07" viewBox="0 0 29 32">
<path d="M19.279 29.551c0 1.308-1.060 2.369-2.369 2.369s-2.369-1.061-2.369-2.369c0-1.308 1.061-2.368 2.369-2.368s2.369 1.060 2.369 2.368z"></path>
<path d="M12.329 3.392c-0.191 0-0.048 0.667 0.381 0.762 0.19 0.191 0.095 0.476 0.095 0.476l-0.095 0.238c0 0-0.524-0.286-1.048-0.095s-1.762 1.143-2.19 1.809c-1.476 0.62-1.667 0.857-1.952 0.953s-1.809 0.905-3.381 1.524c-1.572 0.619-1.572 0.619-1.572 0.619s-0.524-0.476-1.047-0.381c-0.524 0.095-0.905 0.143-0.905 0.143s-0.333 0.334-0.333 0.619c-0.286 0.238-0.239 0.809-0.096 0.667 0.143-0.238 0.143-0.238 0.143-0.238s0.252-0.074 0.286 0.096c0.048 0.237-0.286 0.237 0.048 0.237s0.572-0.19 0.572-0.19 0.238 0.286 0.381 0.143c0.143-0.143 0.524-0.19 1-0.096s0.666-0.142 0.666-0.142 4.476-0.953 5-1.096c0.524-0.143 2.571-0.857 2.857-0.905s1.333 2.619 1.381 3.047c0.047 0.429 0 0.81 0.143 0.953s0.714 2.143 0.762 2.619c0.048 0.476-0.096 0.857 0.19 0.952s-0.048 0.524 0.286 0.477c0.333-0.048 0.429 0.381 0.429 0.381s-0.238 0.714 0 1c0.238 0.285 0.429 1 0.429 1s-0.143 0.523 0.095 0.713c0.238 0.191 1.143 2.572 1.524 2.619s0.381 0.048 0.381 0.048l0.905 0.762c0 0 0.334 0.667 0.714 0.857s1.095 1.333 1.238 1.428c0.143 0.095 0.19 0.476 0.428 0.667s4.048 3.048 4.286 3.285c0.238 0.238-0.714 0.667-1.048 0.905s-0.619 0.667 0.095 0.714c0.715 0.048 2.762-0.333 3.143-0.285s0.905-0.095 0.762-0.572c-0.143-0.476-0.667-1.143-0.81-1.095s-0.238-0.238-0.619-0.476c-0.381-0.237-1.952-2.381-2.619-3.285s-1.523-1.285-1.762-1.285c-0.428-0.286-0.81-1.238-0.81-1.238l-0.286-1.333c0 0-0.286-1.905-0.143-1.857s1.667 1.047 2 1.333c0.333 0.286 1.286 1.667 2 1.905s1.667-0.381 1.524-1.095c-0.143-0.715-0.143-0.715-0.143-0.715s0.143-1.143-0.191-1.476c-0.333-0.333-0.952-1.191-0.952-1.191s-1.095-2.047-1.619-2.857c-0.524-0.809-1.667-2-2.238-2.238-0.572-0.239-0.81-0.905-1-1.001s-0.905-1.524-0.905-1.809c0-0.286 0.143-1.762 0.143-1.762l0.096-0.524c0 0 2.762 1.286 3 1.572s1 0.428 1.905 0.667c0.905 0.238 2.618 0.666 2.952 0.714s0.81-0.095 1.286-0.143c0.476-0.048 0.952-0.048 0.857-0.333 0.096-0.381 0.096-0.381 0.096-0.381s-0.048-0.524-0.333-0.524c-0.286 0-0.524-0.238-0.524-0.238s-0.571-0.333-1.047-0.143c-0.476 0.191-0.619 0.381-0.81 0.286s-2.857-1.333-3.143-1.619c-0.285-0.286-0.905-0.381-0.905-0.381s-1.524-0.667-1.809-1.095c-0.286-0.429-1.286-1.81-2.238-1.905s-2.286-0.428-2.286-0.428l-0.334-0.572c0 0 0.143-0.19 0.191-0.476s0-0.523 0-0.523 0.333-1.143-0.429-1.952c-0.653-0.694-1.429-0.571-1.952-0.476s-2.095 0.524-1.095 3.238z"></path>
</symbol>
<symbol id="08" viewBox="0 0 30 32">
<path d="M0.2 5.233c0.149-0.054 0.488-0.218 0.547-0.189s0.418 0.193 0.418 0.193l0.045-0.068c0 0-0.060-0.177 0.007-0.226s0.156-0.079 0.299-0.013c0.143 0.065 0.057 0.267-0.020 0.276-0.106 0.012-0.183 0.067-0.183 0.067s0.135 0.063 0.179 0.084c0.043 0.021 0.079 0.003 0.093-0.015s-0.004-0.068 0.002-0.089c0.006-0.021 0.106-0.177 0.241-0.163s0.208 0.074 0.192 0.132c-0.016 0.058-0.112 0.135-0.191 0.145s-0.136 0.040-0.141 0.057c-0.004 0.017 0.028 0.030 0.058 0.051s0.218 0.121 0.239 0.109 0.048-0.045 0.033-0.090c-0.015-0.044-0.019-0.257 0.125-0.248 0.15 0.009 0.187 0.037 0.232 0.084s0.086 0.162 0.024 0.244c-0.043 0.056-0.179 0.019-0.202 0.053s-0.042 0.056-0.024 0.070c0.019 0.014 0.127 0.043 0.166 0.067s0.086 0.032 0.080 0.017c-0.005-0.015 0.044-0.113 0.039-0.128s-0.006-0.127 0.051-0.174c0.057-0.047 0.139-0.052 0.241 0.002s0.162 0.125 0.118 0.224c-0.035 0.080-0.086 0.138-0.171 0.12s-0.146-0.004-0.165 0.032c0 0 0.276 0.154 0.304 0.153s0.062-0.099 0.061-0.127c-0.002-0.027 0.017-0.165 0.119-0.209s0.22-0.021 0.242 0.101c0.021 0.122-0.026 0.297-0.083 0.309s-0.111 0.015-0.112 0.051c-0.001 0.035 0.032 0.116 0.085 0.148s0.128-0.010 0.156-0.047c0.028-0.037 0.017-0.094 0.031-0.117s0.211-0.221 0.266-0.224c0.054-0.003 0.192 0.052 0.093 0.186s-0.243 0.239-0.27 0.241c-0.027 0.002-0.123 0.128-0.123 0.128s0.043 0.101 0.079 0.102c0.036 0.001 0.045-0.032 0.090-0.003s-0.017 0.13-0.017 0.13 0.253 0.291 0.298 0.322c0.046 0.030 0.137 0.055 0.126 0.096-0.002 0.007 0.2 0.235 0.538 0.608-0.058-0.318 0.191-0.524 0.284-0.309 0.112 0.257 0.474 0.451 0.85 0.549s1.115 1.117 1.115 1.117 0.751 0.196 1.412 0.331c0.662 0.136 2.149-0.105 2.991-0.237s1.317 0.319 1.819 0.191c0.056-0.014 0.136-0.035 0.233-0.060 0.417-0.798 1.018-1.702 1.485-2.164 0.712-0.705 2.289-1.407 2.289-1.407 0.338-0.166 1.040-1.217 1.040-1.217s-0.036-0.323 0.323-0.475c0.199-0.084 0.468-0.7 0.32-0.931s-0.116-0.584 0.189-0.617c0.113-0.012 0.386-0.101 0.546-0.237s0.445 0.255 0.528 0.095c0 0-0.028-0.415 0.154-0.392 0.374 0.047 0.012-0.258 0.207-0.401s0.608 0.136 0.923 0.266c0.24 0.1 0.3 0.261 0.507 0.189 0.050-0.017 0.085-0.036 0.112-0.055-0.099-0.233-0.167-0.463-0.175-0.599-0.008 0.004-0.008 0-0.002-0.008 0.001-0.001 0.002-0.003 0.003-0.003-0.002-0.054 0.004-0.094 0.023-0.109l0.008-0.015 0.007 0.005-0.001 0.019c-0.001 0.017-0.003 0.037-0.003 0.060 0.014-0.014 0.034-0.031 0.059-0.047-0.033-0.279 0.088-0.448 0.187-0.543-0.050-0.097-0.090-0.166-0.116-0.192l-0.014-0.025 0.006-0.004 0.019 0.020c0.026 0.029 0.064 0.067 0.097 0.118 0.009 0.011 0.023 0.030 0.038 0.054 0.031-0.027 0.058-0.047 0.071-0.060 0.004-0.002 0.024-0.014 0.039-0.020s0.022-0.007 0.004 0.008c-0.012 0.010-0.018 0.015-0.031 0.025-0.022 0.018-0.045 0.042-0.069 0.070 0.061 0.099 0.156 0.271 0.261 0.483 0.019-0.061 0.044-0.111 0.072-0.151 0.013-0.057 0.031-0.108 0.052-0.152-0.042-0.164-0.065-0.283-0.087-0.317-0.022-0.079-0.035-0.151-0.023-0.194l0.015-0.027c0.009-0.015 0.009-0.007 0.008 0.005l-0.005 0.029c0.020 0.044 0.050 0.218 0.122 0.453 0.107-0.168 0.263-0.218 0.317-0.236-0.077-0.046-0.135-0.080-0.161-0.097-0.076-0.070-0.159-0.117-0.185-0.169l-0.024-0.033c-0.013-0.019-0.003-0.013 0.010-0.003s0.031 0.027 0.034 0.030c0.013 0.054 0.17 0.134 0.376 0.25l0.003-0.005c-0.003-0.002-0.007-0.005-0.009-0.007-0.090-0.076-0.158-0.153-0.172-0.212-0.005-0.017-0.008-0.025-0.014-0.041-0.007-0.024 0-0.016 0.010-0.001l0.024 0.041c0.015 0.077 0.202 0.221 0.495 0.383 0.023-0.056 0.039-0.106 0.048-0.15-0.065-0.013-0.127-0.022-0.175-0.031-0.021-0.004-0.032-0.005-0.053-0.008-0.032-0.006-0.022-0.008-0.003-0.008s0.050 0.001 0.056 0.001c0.032 0.002 0.095 0.006 0.172 0.017-0.046-0.215-0.047-0.38-0.010-0.423l0.008-0.028c0.004-0.010 0.007-0.013 0.007 0.005l-0.001 0.031c-0.002 0.042-0.003 0.099 0.001 0.165-0.006 0.019-0.004 0.057 0.004 0.106 0.004 0.016 0.007 0.025 0.011 0.041 0.004 0.010 0.002 0.025 0.004 0.037 0.005 0.023 0.012 0.048 0.020 0.074 0.196 0.036 0.473 0.127 0.691 0.381 0.025 0.026 0.047 0.052 0.067 0.079-0.007-0.034-0.016-0.066-0.025-0.095-0.074-0.098-0.162-0.161-0.189-0.185-0.062-0.061-0.135-0.085-0.193-0.103-0.016-0.005-0.024-0.008-0.040-0.014-0.024-0.010-0.018-0.011-0.003-0.010l0.045 0.006c0.060 0.004 0.189 0.050 0.313 0.15-0.013-0.021-0.026-0.039-0.038-0.049-0.042-0.067-0.083-0.122-0.117-0.164l-0.023-0.030c-0.012-0.018-0.005-0.015 0.007-0.007l0.032 0.026c0.071 0.029 0.164 0.149 0.24 0.32 0.057 0.064 0.108 0.141 0.144 0.235 0.015 0.079 0.024 0.16 0.028 0.242 0.064 0.063 0.121 0.132 0.172 0.204 0.208-0.174 0.335-0.332 0.332-0.418l0.011-0.044c0.005-0.016 0.009-0.025 0.008 0.001-0.001 0.018-0.002 0.027-0.003 0.045 0.001 0.064-0.037 0.146-0.093 0.225-0.024 0.046-0.104 0.132-0.222 0.241 0.077 0.122 0.13 0.255 0.149 0.395 0.080 0.102 0.187 0.433 0.224 0.856 0.12 0.238 0.194 0.478 0.108 0.726-0.003 0.010-0.007 0.019-0.010 0.029 0.016 0.041 0.026 0.082 0.033 0.123 0.205-0.419 0.194-0.857 0.158-0.941-0.010-0.079-0.022-0.146-0.031-0.197l-0.006-0.036c-0.003-0.022 0.002-0.016 0.007-0.003l0.014 0.036c0.084 0.1 0.183 0.762-0.132 1.318-0.001 0.018-0.004 0.034-0.006 0.052 0.078-0.070 0.133-0.125 0.155-0.15 0.046-0.047 0.084-0.089 0.113-0.12l0.021-0.022c0.013-0.013 0.011-0.007 0.005 0.003s-0.016 0.024-0.017 0.026c-0.028 0.054-0.132 0.177-0.284 0.323-0.011 0.055-0.027 0.103-0.044 0.146 0.096 0.168 0.19 0.414 0.156 0.701-0.057 0.371-0.337 0.574-0.536 0.672-0.689 1.151-1.9 1.659-2.626 1.436-0.489-0.15-1.066-0.364-1.466-0.493 0.065 0.16 0.125 0.347 0.161 0.565 0.099 0.594 0.193 1.763 0.070 2.416 0.017 0.76 0.304 1.278 0.304 1.278l-0.467 0.127c0 0 0.065 2.136-0.069 2.793s0.135 1.392-0.094 1.772c-0.229 0.38-1.146 1.021-1.953 1.449-0.158 0.084-0.428 0.212-0.764 0.365 0.045 0.131 0.092 0.269 0.138 0.416 0.643 0.371 1.492 1.011 1.398 1.98-0.13 1.334-0.689 2.767-1.846 3.825-0.002 0.002-0.004 0.003-0.006 0.005-0.116 0.236-0.212 0.428-0.26 0.56-0.269 0.728-1.117 2.923-0.955 2.745 0.445-0.49 1.256-1.349 1.59-1.54 0.244-0.139 2.173-1.743 2.814-1.956s1.849-1.531 1.989-1.764c0.139-0.234 0.869-1.661 1.091-1.568s1.51 1.255 1.697 1.208c0.187-0.047 0.524-0.282 0.524-0.282s1.217 0.882 1.347 1.197c0.13 0.315 0.775 1.292 1.36 1.64s1.279 1.909 1.386 2.329c0.107 0.42-0.288 0.818-0.79 0.797s-2.118-1.498-2.457-1.659c-0.339-0.162-0.395 0.398-0.862 0.318s-0.933 0.039-1.050 0.167c-0.116 0.129-0.115 0.327-0.395 0.398s-2.736 1.738-3.318 2.183c-0.582 0.446-6.052 4.039-7.041 3.668s-1.709-0.885-1.765-2.387c-0.041-1.085-0.070-3.675-0.099-5.302-0.199-0.212-0.339-0.439-0.383-0.646-0.137-0.64-0.597-3.274-0.952-3.65s-1.548-0.631-2.127-1.122c-0.579-0.491-0.623-1.228-0.569-1.28s0.363 0.446 0.509 0.553c0.146 0.106 0.776 0.208 1.263 0.044s0.944-0.767 0.929-1.012c-0.015-0.246-0.156-0.418-0.22-0.529-0.041-0.071-2.94-3.503-5.084-6.041-0.238-0.056-0.464-0.154-0.579-0.17-0.191-0.025-0.547-0.266-0.522-0.457-0.149 0.029-0.357-0.241-0.325-0.479-0.185-0.073-0.194-0.365-0.335-0.772-0.023-0.065-0.004-0.117 0.038-0.162-0.317-0.375-0.515-0.611-0.539-0.641-0.151-0.188-0.566-0.393-0.717-0.38s-0.403 0.201-0.47 0.048c-0.067-0.152-0.702-1.182-0.972-1.428s-0.697-0.603-0.761-0.661c-0.065-0.058-0.045-0.133 0.104-0.187zM23.854 1.522c-0.088-0.17-0.253-0.236-0.291-0.259-0.006-0.003-0.010-0.004-0.016-0.006 0.069 0.096 0.123 0.202 0.158 0.317 0.002 0.002 0.003 0.003 0.004 0.005 0.038 0.047 0.074 0.093 0.109 0.139 0.017-0.079 0.029-0.146 0.035-0.196zM23.846 1.258c-0.104-0.089-0.221-0.161-0.345-0.211 0 0.020 0 0.040-0 0.060-0.004 0.015-0.006 0.043-0.007 0.081 0.008 0.010 0.017 0.019 0.024 0.029 0.099 0.024 0.23 0.076 0.336 0.208 0.004-0.053-0.008-0.1-0.013-0.136l-0.005-0.028 0.010-0.004zM23.248 0.911c0.009 0.020 0.019 0.040 0.030 0.061 0.026 0.022 0.053 0.042 0.077 0.066l-0.004-0.015c-0.002-0.010-0.002-0.017 0.006-0.002l0.013 0.025c0.001 0.003 0.003 0.006 0.005 0.009 0 0.001 0.001 0.001 0.001 0.001s-0-0.001-0-0.002l-0.003-0.027c-0.001-0.017 0.004-0.013 0.010-0.004l0.015 0.027c0.007 0.012 0.013 0.029 0.019 0.048 0.016 0.017 0.029 0.035 0.044 0.052 0-0.046 0-0.087-0-0.123-0.075-0.040-0.145-0.078-0.212-0.115zM22.954 0.974c-0.003 0.013-0.006 0.027-0.009 0.041 0.052-0.045 0.097-0.083 0.128-0.116-0.020-0.017-0.039-0.033-0.059-0.049-0.017 0.037-0.037 0.079-0.061 0.124zM22.638 0.716c-0.002 0.008-0.005 0.014-0.007 0.022-0.039 0.054-0.061 0.299-0.009 0.604 0.012-0.015 0.024-0.031 0.036-0.046-0.051-0.262 0.002-0.488-0.020-0.581zM22.314 0.99c-0.005 0.007-0.013 0.018-0.022 0.030-0.007 0.027-0.013 0.057-0.017 0.088 0.007 0.020 0.017 0.043 0.028 0.067 0.010-0.017 0.021-0.029 0.034-0.034l0.014-0.013 0.006 0.007-0.007 0.017c-0.008 0.018-0.017 0.042-0.026 0.069 0.021 0.050 0.080 0.167 0.16 0.326-0.006-0.046-0.012-0.090-0.017-0.132-0.067-0.153-0.117-0.299-0.153-0.425zM22.272 1.268c0.005-0.022 0.010-0.039 0.017-0.056-0.007-0.018-0.013-0.036-0.018-0.051-0.002 0.033-0.001 0.069 0.001 0.107zM21.835 1.465c0.011-0.017 0.022-0.030 0.032-0.041-0.021-0.067-0.041-0.126-0.058-0.177-0.032-0.002-0.057 0-0.075 0.002 0.012 0.056 0.031 0.114 0.067 0.176 0.010 0.015 0.023 0.026 0.033 0.040zM21.829 1.864c0.032-0.027 0.072-0.049 0.148-0.059-0.011-0.044-0.022-0.087-0.034-0.129-0.039-0.030-0.075-0.061-0.108-0.096-0.016 0.060-0.032 0.159-0.006 0.283zM22.31 1.272c-0.010 0.041-0.010 0.121 0.001 0.228 0.016 0.035 0.031 0.070 0.046 0.106 0.022 0.033 0.044 0.066 0.066 0.101 0.010-0.030 0.019-0.060 0.031-0.087-0.058-0.133-0.108-0.252-0.145-0.348zM22.021 1.801c0.048-0.003 0.090 0 0.129 0.006-0.054-0.028-0.106-0.059-0.155-0.092 0.009 0.028 0.017 0.057 0.026 0.086zM23.236 1.051c-0.030-0.031-0.061-0.060-0.092-0.089-0.006 0.009-0.012 0.017-0.017 0.027 0.024 0.101 0.090 0.278 0.182 0.491 0.021 0.005 0.045 0.012 0.074 0.020 0.003-0.070 0.005-0.126 0.006-0.175-0.058-0.090-0.11-0.182-0.153-0.275zM23.073 1.425c0.004 0.014 0.011 0.026 0.015 0.039 0.012 0.002 0.021 0.005 0.025 0.005 0.023 0.006 0.062 0.015 0.108 0.029-0.003-0.008-0.006-0.017-0.009-0.025-0 0-0 0-0 0-0.028-0.008-0.021-0.010-0.003-0.009-0.066-0.197-0.104-0.342-0.106-0.393-0.002-0.010-0.002-0.017-0.003-0.026-0.039 0.091-0.062 0.214-0.027 0.378zM23.38 1.559c0-0.010 0.001-0.020 0.001-0.030-0.022-0.009-0.041-0.014-0.062-0.021 0.004 0.010 0.009 0.021 0.014 0.031 0.015 0.006 0.030 0.013 0.046 0.020zM23.356 1.589c0.007 0.016 0.014 0.031 0.021 0.046 0.001-0.013 0.001-0.024 0.002-0.036-0.007-0.004-0.015-0.006-0.022-0.010zM23.291 1.7c-0.005 0.023-0.011 0.048-0.017 0.076-0 0.001-0.001 0.004-0.001 0.005 0.027 0.033 0.057 0.066 0.087 0.099-0.024-0.062-0.048-0.123-0.069-0.181zM22.824 1.841c0.002 0.003 0.005 0.005 0.007 0.008 0.011 0.001 0.021 0.002 0.032 0.003-0.010-0.039-0.020-0.078-0.030-0.115-0.003 0.035-0.007 0.068-0.009 0.105zM22.942 1.864c0.017 0.003 0.033 0.006 0.050 0.010-0.025-0.022-0.048-0.044-0.069-0.067 0.006 0.019 0.012 0.038 0.019 0.058zM22.858 1.607c0.059 0.090 0.137 0.179 0.239 0.261-0.004-0.007-0.008-0.014-0.012-0.021-0.117-0.126-0.194-0.223-0.214-0.272-0.008-0.013-0.014-0.026-0.020-0.039-0.002 0.012-0.002 0.027-0.003 0.039 0.003 0.010 0.007 0.022 0.011 0.032zM23.244 1.909c0.024 0.022 0.051 0.045 0.077 0.068 0.010 0.004 0.019 0.008 0.029 0.011-0.034-0.036-0.067-0.073-0.098-0.111-0.003 0.010-0.005 0.020-0.008 0.031zM23.561 1.664c0.009 0.007 0.019 0.011 0.028 0.018-0.003-0.016-0.007-0.032-0.010-0.047-0.010-0.007-0.019-0.012-0.028-0.018 0.004 0.016 0.007 0.031 0.011 0.047zM23.489 1.682c-0.002 0.053-0.004 0.108-0.008 0.165 0 0.005 0 0.010 0 0.015 0.019 0.041 0.040 0.082 0.060 0.124-0.013-0.102-0.028-0.201-0.043-0.295-0.003-0.003-0.007-0.006-0.010-0.009zM22.51 1.85c0.001-0.029 0.004-0.057 0.007-0.085-0-0.003-0.001-0.005-0.001-0.008-0.001-0.003-0.003-0.007-0.005-0.010-0.007 0.024-0.012 0.050-0.017 0.076 0.005 0.009 0.011 0.018 0.016 0.027zM22.638 1.852c0.010-0.001 0.019-0.001 0.029-0.002-0.001-0.002-0.002-0.005-0.003-0.007-0.016-0.026-0.028-0.051-0.029-0.075l-0.005-0.024c-0.002-0.006-0.003-0.011-0.005-0.017-0.007-0.011-0.012-0.023-0.019-0.035-0.004 0.027-0.004 0.057-0.005 0.085 0.012 0.024 0.025 0.050 0.037 0.075zM22.7 1.666c0.018 0.027 0.035 0.054 0.054 0.081 0.007-0.047 0.014-0.092 0.021-0.137-0.037-0.064-0.065-0.128-0.086-0.191-0.014 0.026-0.024 0.055-0.035 0.084 0.013 0.054 0.028 0.108 0.045 0.163zM22.757 1.414c-0.005-0.027-0.010-0.053-0.014-0.077-0.003 0.004-0.007 0.010-0.010 0.014 0.007 0.021 0.015 0.042 0.024 0.063zM22.806 1.445c0.001-0.003 0.001-0.007 0.002-0.009-0.013-0.042-0.017-0.081-0.009-0.112 0.001-0.006 0.001-0.010 0.002-0.015-0.006-0.013-0.010-0.024-0.015-0.035-0.005 0.008-0.009 0.015-0.013 0.022-0 0.028 0.012 0.079 0.033 0.15zM22.821 1.375c0.001-0.006 0.002-0.011 0.004-0.017-0.001-0.003-0.003-0.006-0.004-0.008 0 0.008-0.002 0.015 0 0.025zM22.859 1.466c0.020 0.037 0.050 0.079 0.084 0.124-0.029-0.053-0.055-0.104-0.080-0.151-0.001 0.009-0.003 0.018-0.004 0.027zM23.137 1.799c-0.010-0.030-0.021-0.055-0.034-0.067-0.020-0.039-0.047-0.068-0.067-0.093 0.032 0.050 0.065 0.103 0.101 0.16zM23.212 1.839c0.001-0.002 0.002-0.005 0.003-0.007-0.004-0.005-0.008-0.010-0.011-0.016 0.003 0.007 0.006 0.015 0.009 0.023zM23.246 1.747c0.013-0.033 0.024-0.060 0.033-0.081-0.017-0.046-0.033-0.091-0.048-0.134-0.047-0.017-0.090-0.032-0.126-0.046-0.004-0.001-0.007-0.003-0.010-0.004 0.034 0.092 0.086 0.18 0.151 0.264zM23.582 1.765c0.007 0.036 0.015 0.073 0.022 0.111-0-0.031 0-0.061-0.002-0.091-0.007-0.007-0.014-0.013-0.020-0.019zM23.742 2.022c-0 0.005-0.001 0.011-0.001 0.016 0.006-0.011 0.011-0.021 0.016-0.032 0 0 0 0-0-0-0.005 0.005-0.010 0.011-0.015 0.016zM22.268 1.766c-0.004-0.042-0.009-0.083-0.011-0.123-0.015-0.040-0.030-0.081-0.046-0.121 0.018 0.078 0.037 0.159 0.056 0.243 0 0 0.001 0 0.001 0.001zM22.806 1.24c0.003 0.006 0.004 0.010 0.007 0.016 0.003 0.013 0.011 0.031 0.022 0.053 0.015-0.066 0.027-0.121 0.035-0.163-0.008 0.008-0.017 0.017-0.025 0.026-0.013 0.022-0.026 0.045-0.040 0.068zM22.873 1.377c0.036 0.062 0.086 0.141 0.146 0.234l0.004-0.004 0.023 0.014c0.016 0.004 0.032 0.014 0.048 0.028-0.067-0.124-0.108-0.257-0.106-0.401 0.013-0.141 0.054-0.24 0.106-0.315 0-0.005 0-0.011 0-0.016-0.001-0.001-0.003-0.002-0.004-0.003-0.016 0.021-0.033 0.043-0.049 0.069-0.016 0.019-0.058 0.055-0.111 0.106-0.018 0.082-0.038 0.179-0.056 0.29zM23.131 0.847c0.007 0.005 0.012 0.011 0.019 0.016 0.001-0.002 0.003-0.003 0.005-0.005-0.007-0.004-0.016-0.008-0.023-0.013-0 0.001-0 0.001-0 0.002zM21.905 1.542c-0.009-0.030-0.018-0.059-0.026-0.087-0.007 0.011-0.013 0.024-0.018 0.038 0.015 0.016 0.028 0.033 0.044 0.048zM21.86 1.286c0.002 0.020 0.014 0.061 0.032 0.117 0.007-0.006 0.015-0.010 0.021-0.012l0.024-0.011c0.009-0.003 0.014-0.003 0.003 0.009l-0.018 0.018c-0.007 0.006-0.015 0.013-0.022 0.021 0.014 0.043 0.032 0.095 0.051 0.153 0.066 0.053 0.14 0.1 0.223 0.141-0.019-0.105-0.033-0.208-0.042-0.309-0.114-0.111-0.211-0.151-0.284-0.162 0.004 0.012 0.008 0.023 0.012 0.035zM24.491 2.913c0.018 0.052 0.036 0.1 0.055 0.15 0-0.005 0-0.010 0-0.014-0.016-0.045-0.034-0.090-0.055-0.136zM21.605 1.312c0 0.005-0 0.009 0 0.014-0.011 0.049 0.054 0.238 0.162 0.472-0.008-0.109 0.006-0.195 0.031-0.259-0.059-0.072-0.105-0.154-0.131-0.25-0.001-0.005-0-0.010-0.001-0.015-0.023 0.013-0.044 0.027-0.061 0.039zM21.726 1.208c0.020-0.007 0.042-0.011 0.067-0.013-0.021-0.063-0.037-0.11-0.041-0.131-0.002-0.003-0.013-0.019-0.021-0.033-0-0.001-0-0.001-0-0.001-0.010 0.053-0.013 0.113-0.004 0.179zM21.867 0.729c-0.014 0.018-0.027 0.034-0.040 0.054-0.014 0.031-0.071 0.116-0.096 0.238 0.001 0.001 0.001 0 0.003 0.003l0.028 0.029c0.023 0.032 0.046 0.083 0.067 0.141 0.073 0.003 0.16 0.033 0.265 0.116 0.011 0.007 0.021 0.019 0.031 0.027-0-0.004-0.001-0.009-0.001-0.013s0.002-0.008 0.002-0.013c-0.091-0.224-0.184-0.432-0.259-0.583zM22.201 1.263c-0-0.018 0.001-0.036 0.002-0.054-0.003 0.013-0.006 0.026-0.009 0.040 0.002 0.004 0.005 0.009 0.007 0.014zM22.336 0.894c0.002 0.005 0.004 0.010 0.005 0.015 0.035-0.023 0.067-0.035 0.088-0.036l0.030-0.004c0.010-0 0.015 0.001-0 0.010-0.010 0.005-0.015 0.007-0.025 0.012-0.025 0.010-0.055 0.025-0.081 0.051 0.026 0.077 0.057 0.159 0.093 0.244-0.003-0.061-0.003-0.107 0.003-0.132l0.005-0.026c0.003-0.009 0.005-0.012 0.007 0.003l0.002 0.027c0.002 0.037 0.004 0.085 0.016 0.141 0.002 0.019 0.008 0.056 0.017 0.101 0.020 0.042 0.041 0.085 0.064 0.128 0-0 0.001-0.001 0.001-0.001-0.046-0.337-0.006-0.638 0.056-0.777 0-0 0-0.001 0-0.001 0.010-0.022 0.019-0.040 0.030-0.054-0.002 0.001-0.004 0.002-0.006 0.003-0.046 0.025-0.111 0.050-0.171 0.103-0.021 0.028-0.083 0.088-0.134 0.192zM22.691 0.563l-0.001 0.003c0.004 0.003 0.008 0.005 0.012 0.007-0.004-0.003-0.007-0.006-0.011-0.010zM22.673 0.61c-0.010 0.026-0.020 0.057-0.031 0.092 0.013 0.032 0.017 0.071 0.029 0.119 0.004 0.044-0.014 0.206 0.029 0.408 0.010-0.015 0.021-0.029 0.032-0.043 0.001-0.016 0.004-0.031 0.009-0.040l0.004-0.017c0-0.002-0.001-0.005-0.001-0.007l-0.003-0.027c0-0.009 0.002-0.013 0.008 0.002l0.009 0.026c0.003 0.007 0.005 0.015 0.008 0.023 0.008-0.009 0.017-0.019 0.025-0.027 0.048-0.069 0.090-0.137 0.127-0.201 0.013-0.035 0.027-0.065 0.044-0.087l0.005-0.005c0.001-0.003 0.003-0.006 0.004-0.008-0.108-0.083-0.212-0.152-0.299-0.206zM23.128 0.776c-0.017-0.052-0.032-0.101-0.044-0.15-0.003 0.017-0.003 0.033-0.007 0.050-0.002 0.016-0.008 0.038-0.017 0.063 0.022 0.012 0.045 0.024 0.068 0.036zM23.117 0.579c0.022 0.071 0.051 0.151 0.087 0.235 0.086-0.064 0.172-0.085 0.203-0.099 0.003-0.001 0.017-0.003 0.030-0.004-0.116-0.066-0.218-0.1-0.259-0.119-0.022-0.007-0.040-0.009-0.061-0.014zM23.827 1.104c-0.095-0.188-0.244-0.308-0.377-0.385-0.001 0.001-0 0.001-0.002 0.002-0.013 0.004-0.020 0.007-0.033 0.011-0.046 0.018-0.103 0.049-0.16 0.1-0.001 0.001-0.004 0.004-0.005 0.005 0.031 0.015 0.060 0.030 0.092 0.046 0.038 0.013 0.078 0.029 0.118 0.046 0-0.025 0.001-0.046 0.003-0.057l-0.011-0.037c-0.003-0.015-0.005-0.025 0.006-0.005l0.020 0.034c0.008 0.021 0.013 0.050 0.017 0.081 0.118 0.055 0.24 0.126 0.355 0.212-0.008-0.018-0.014-0.037-0.023-0.054zM23.899 1.307c-0.017-0.016-0.034-0.033-0.053-0.048l0.015 0.026c0.021 0.023 0.034 0.063 0.041 0.116 0.001-0.026 0.001-0.052 0.001-0.078-0.001-0.005-0.003-0.010-0.004-0.016zM24.050 1.477c0 0.015-0 0.031-0.001 0.046 0.007 0.042 0.013 0.085 0.020 0.127 0.020-0.015 0.041-0.030 0.060-0.045-0.025-0.044-0.049-0.087-0.079-0.128zM24.161 1.664c-0.025 0.022-0.051 0.045-0.079 0.067 0.029 0.162 0.074 0.322 0.184 0.471 0.018-0.187-0.024-0.371-0.105-0.538zM24.445 2.179c-0.013-0.040-0.025-0.076-0.036-0.11 0.001 0.027 0.002 0.055-0 0.083-0.018 0.091-0.020 0.181-0.016 0.27 0.046 0.082 0.095 0.164 0.142 0.246-0.021-0.248-0.063-0.43-0.089-0.489zM24.761 4.87c0.025-0.212-0.031-0.399-0.101-0.544 0.005 0.324-0.051 0.658-0.211 0.975-0.023 0.045-0.048 0.087-0.072 0.13 0.175-0.117 0.351-0.296 0.384-0.561zM17.933 14.172c-0.024-0.143-0.057-0.445-0.092-0.806-0.078 0.108-0.144 0.2-0.193 0.268-0.284 0.398-0.413 0.909-0.476 1.403 0.457-0.217 0.826-0.482 0.761-0.865zM11.214 15.154c0.067 0.091 0.368 0.038 0.606-0.108 0.065-0.476 0.147-1.001 0.235-1.522-0.046-0.136-0.104-0.257-0.176-0.347-0.301-0.376-0.566-0.689-0.701-0.752s-0.058-0.383 0.177-0.36c0.143 0.014 0.523 0.136 0.898 0.334 0.079-0.432 0.156-0.833 0.224-1.169-0.27 0.061-0.503 0.119-0.634 0.158-0.425 0.125-3.979-0.5-4.699-0.695 1.933 2.115 4.018 4.389 4.070 4.46z"></path>
</symbol>
<symbol id="09" viewBox="0 0 21 32">
<path d="M6.29 16.979c0 0-0.132 5.404-0.132 5.865s-0.957 5.689-1.023 6.084c0 0 0.52 0.249 0.981 0.446s0.964-0.401 0.964-0.731c0-0.329 0.791-5.008 0.857-5.404s1.845-5.799 1.845-5.799 1.12 5.14 1.186 5.601c0.066 0.462 0.37 5.712 0.502 5.976s1.673 0.285 1.673-0.111c0-0.395-0.066-5.931-0.066-6.327s0.132-5.206 0.132-5.601c0-0.395-1.845-2.834-1.845-2.834l-5.074 2.834z"></path>
<path d="M14.943 9.267c0 0 1.972-1.938 2.067-1.892s0.678 0.762 0.678 0.762-2.264 3.148-2.464 3.392c-0.2 0.244-0.28-2.263-0.28-2.263z"></path>
<path d="M4.979 9.26l-1.624-2.678c0 0-1.070 0.636-1.089 0.836s1.866 4.349 1.866 4.349l0.847-2.507z"></path>
<path d="M3.214 7.005l-0.156-0.822c0 0 0.145-0.457 0.001-0.706s-0.259-0.798-0.239-0.998c0.019-0.2-0.36-0.102-0.295 0.274s-0.355 0.537-0.615 0.445c-0.26-0.092-0.696-0.101-0.977-0.329s-0.358-0.472-0.494-0.451c-0.136 0.020-0.136 0.020-0.136 0.020v0c0 0-0.27 0.008-0.249 0.144s0.177 0.252 0.177 0.252 0.502 0.721 0.879 0.992c0.377 0.272 1.284 0.628 1.454 1.653 0.567 0.391 0.651-0.475 0.651-0.475z"></path>
<path d="M16.784 7.818c0 0 0.593-0.935 0.839-1.005s0.851-0.058 1.009-0.24c0.158-0.182 0.404-0.251 0.457-0.143s-0.268 0.505-0.268 0.505l0.659 0.119c0 0 0.479-0.309 0.616-0.325 0.133 0.017 0.133 0.017 0.133 0.017v0c0 0 0.154-0.149 0.241-0.036s0.086 0.112 0.086 0.112l-0.167 0.248c0 0-0.682 0.317-1.177 0.489s-1.145-0.013-1.145-0.013l-0.793 0.909-0.491-0.637z"></path>
<path d="M6.786 28.571c0 0 0.313 2.097-0.267 2.365-0.848 0.089-1.431 0.591-2.335 0.893s-1.205-0.201-0.903-0.602c0.301-0.402 1.81-1.495 1.81-1.495l0.535-1.784 1.16 0.624z"></path>
<path d="M11.549 28.516c0 0-0.22 1.32 0.22 1.651s0.53 0.171 0.53 0.171l0.245 0.244c0 0 0.538 0.538 1.321 0.783s0.685-0.196 0.685-0.196l-0.88-0.88c0 0-0.783-0.685-0.783-0.929s-0.196-0.734-0.196-0.734l-1.141-0.109z"></path>
<path d="M6.653 30.445c0 0 0.045 0.58-0.134 0.669s-0.892 0.357-1.071 0.044c-0.179-0.312 1.204-0.714 1.204-0.714z"></path>
<path d="M16.373 13.090c-0.066-0.198-1.054-4.020-1.054-4.020s-0.725-0.923-0.725-1.187c0-0.264-0.33-2.109-2.307-2.241 0.153-0.3 0.299-0.638 0.032-0.886-0.373-0.346-1.606-0.636-2.8-0.3 0 0-1.281 0.439-1.149 0.769 0.198 0.33 0.226 0.352 0.226 0.352s-1.12 0-1.648 0.593c-0.527 0.593-1.911 2.175-2.438 2.307s-0.593 3.032-1.516 4.020c0 0 0.223 0.252 0.791 0.593 0.659 0.395 1.779 0.461 1.779 0.461s-0.464 4.035-0.584 5.119c-0.087 0.781-0.593 0.697-0.241 1.084 0.586 0.646 2.283 0.6 2.86 0.641 0.922 0.066 3.031 0.132 3.031 0.132s1.318-0.461 2.307-0.659c1.060-0.212 1.801-0.476 1.801-0.476s-0.936-5.051-1.002-5.315c0 0 0.462-0.462 0.989-0.33s1.714-0.461 1.647-0.659zM10.378 8.672c-0.335 0.134-1.205-3.145-1.205-3.145 1.74-0.535 2.744 0 2.744 0s-1.205 3.012-1.54 3.145z"></path>
<path d="M12.582 2.015c0 0-0.151-1.496-1.325-1.754 0.005-0.010 0.011-0.021 0.018-0.033 0.055-0.1-0.042-0.123-0.139-0.147-0.052-0.013-0.116 0.059-0.164 0.126-0.028-0.044-0.114-0.15-0.264-0.11-0.188 0.050-0.073 0.18-0.073 0.18s-1.067-0.080-1.503 1.16c-0.195 0.42-0.735 0.78-0.448 1.087 0.516 0.551 2.956 0.386 3.775 0.291 0.586-0.056 0.122-0.801 0.122-0.801z"></path>
<path d="M9.241 1.774c0 0-0.079 0.523-0.055 0.676-0.198-0.010-0.235 0.271-0.2 0.502s0.113 0.494 0.302 0.701c0.141 0.411 0.291 0.624 0.291 0.624s-0.053 0.951-0.069 1.111c-0.015 0.159 0.942 1.037 1.046 0.943s1.151-1.234 1.151-1.234l0.071-0.836 0.249-0.431c0 0 0.7-0.577 0.29-0.947 0.167-0.457 0.219-0.898 0.219-0.898l-3.294-0.212z"></path>
<path d="M10.311 5.862c0 0-0.402 0.535-0.067 0.803 0 0.167-0.234 1.907-0.234 1.907s0.435 0.435 0.736 0.1c0.301-0.334-0.1-1.941-0.1-1.941l0.201-0.335-0.033-0.569-0.502 0.033z"></path>
<path d="M9.874 3.987c-0.163-0.088-0.599 0.030-0.826 0.197-0.392 0.288-0.504 0.151-0.504 0.151 0.030-0.129 0.010-0.318-0.060-0.367-0.063-0.044-0.164-0.107-0.358-0.067s-0.307 0.132-0.314 0.286c-0.008 0.154 0.070 0.485 0.329 0.586 0.272 0.106 0.755-0.232 1.030-0.465 0.358-0.303 0.646-0.229 0.691-0.211s0.15-0.036 0.012-0.111z"></path>
</symbol>
<symbol id="10" viewBox="0 0 32 32">
<path d="M30.635 17.53c-0.405-1.446-0.983-1.446-1.504-1.678-0.52-0.231-1.793 0.405-2.14 0.405s-0.462 0.231-0.636 0.231c-0.119 0-2.365 0.249-3.742 0.403 0.535-0.682 1.139-1.497 1.8-2.476 2.683-3.976 0.272-6.436-0.68-7.161-0.363-0.816-3.173-1.043-4.895-1.179s-8.519-0.128-9.019-0.045c-0.816 0.136-2.188 0.646-2.855 1.269-0.106 0.099-0.215 0.221-0.325 0.359l-0.007-0.013-1.402 0.578c0 0 0.221-0.266 0.421-0.301s-0.998-0.226-1.772 0.23c0.167-0.163 0.603-0.436 0.603-0.436s-0.836 0.343-1.491 0.48c-0.656 0.136-2.339 0.465-2.752 1.856-0.438 0.923 0.089 2.488 0.992 3.491 0.117 0.206 0.25 0.41 0.398 0.587 0.541 0.643 0.391 0.677 0.353 0.75-0.034 0.064 0.359 0.053 0.176-0.602 0.138 0.069 0.279 0.124 0.422 0.161 1.607 0.406 1.935-0.57 1.902-0.666 0 0-0.303 0.383-0.697 0.195-0.104-0.050 0.389 0.045 0.749-0.369 0 0 0.287-0.155 0.527-0.296-0.078 0.903-0.169 1.78-0.169 1.78l0.451-0.029c0.184 1.297 0.554 3.18 0.52 3.455-0.046 0.362-0.227 0.815-0.227 1.45s0.24 3.827-0.091 4.033c-0.133 0.083-1.152-0.253-1.257-0.386s-0.122-0.243-0.319-0.227c-0.196 0.016-0.265 0.144-0.202 0.211s0.189 0.201 0.253 0.247c0.064 0.045-0.31 0.186-0.524 0.071-0.214-0.116-0.271-0.031-0.445-0.037s-0.51 0.223-0.51 0.223l-0.328 0.056c0 0-0.198 0.102-0.443 0.269-0.244 0.166-0.186 0.406-0.078 0.41s0.353-0.184 0.442-0.226c0.088-0.041 0.454 0.058 0.691 0.13-0.326-0.010-0.615 0.198-0.859 0.343s-0.159 0.213-0.119 0.322c0.041 0.109 0.264-0.101 0.419-0.182s0.721-0.131 0.873-0.125c0.152 0.004 0.364 0.163 0.277 0.182s-0.334 0.229-0.534 0.396c-0.201 0.168-0.182 0.256-0.054 0.346s0.287-0.143 0.399-0.248c0.112-0.106 0.397-0.183 0.572-0.221s1.145-0.012 1.426 0.017c0.951 0.103 1.829-0.924 1.882-1.227s0.167-1.39 0.238-2.46c0.061-0.921 0.145-2.044 0.185-2.564 0.132-0.040 0.354-0.023 0.446-0.004 0.115 0.022 0.8 0.228 0.8 0.228s-0.297 0-0.572 0.229c-0.274 0.227-0.046 0.457 0.16 0.343s1.551-0.138 2.213-0.251c0.663-0.114 0.823-0.778 0.937-1.326s0.023-3.040 0.023-3.040c0.046-0.414 0.002-1.463-0.095-2.2 0.058-0.004 0.115-0.010 0.168-0.018 0.967-0.151 3.193-0.113 3.737-0.174s2.78 1.057 2.78 1.057c0.423-0.302 0.513-0.755 0.513-0.755s0.453-0.181 0.604-0.091c0.152 0.091-0.453 0.846-0.499 0.921-3.607 6.031-3.445 8.657-2.221 9.428s9.861-0.373 10.379-0.544c0.517-0.173 0.853-0.151 0.982-0.28s0.818 0.215 2.153 1.292c1.335 1.077 1.613 0.701 1.637 0.259 0.042-0.818-0.819-3.013-0.991-3.402-0.086-0.192-0.182-0.565-0.336-0.96 0.881 0.602 1.447 0.819 1.556 0.222 0.116-0.635-0.52-1.446-1.272-2.718zM9.977 18.659c-0.16 0.228-0.766-0.171-0.88-0.331s-0.481-0.298-0.732-0.298c-0.251 0-0.366 0.23-0.183 0.206 0.183-0.022 0.526 0.184 0.366 0.162-0.16-0.024-0.457 0.045-0.457 0.045s-0.252 0.068-0.366 0.114c-0.092 0.037-0.153 0.189-0.174 0.248-0.005-0.758-0.019-3.225 0.032-3.71 0.393 0.061 0.725-0.151 0.725-0.151s-0.030-1.994 0.241-2.025c0.126-0.014 0.586 0.094 1.138 0.198 0.024 0.34 0.055 0.707 0.098 0.848 0.069 0.228 0.214 1.858 0.352 2.795s0 1.67-0.16 1.898zM27.759 19.651c-0.216 0.215-0.474 0.387-0.776 0.387s-6.921 0.587-6.876 0.042c0.010-0.114 0.095-0.267 0.247-0.47 1.549 0.056 5.963-0.462 6.348-0.462 0.463 0 0.983-0.116 1.215-0.231 0.104-0.052 0.375 0.002 0.729 0.141-0.4 0.203-0.777 0.484-0.887 0.593z"></path>
</symbol>
<symbol id="11" viewBox="0 0 32 32">
<path d="M31.557 20.115c-0.651-0.362-1.339 0-1.666-0.072s-2.679-0.977-4.273-1.811c-1.811-1.557-3.911-0.977-4.164-1.122s-0.181-0.942 0.073-2.209c0.253-1.267 1.14-2.064 1.357-4.562 1.122-4.128-1.547-6.17-3.223-6.048-2.48 0.181-3.042 1.267-3.657 1.376s-3.313 0.797-3.53 0.833c-0.366 0.061-1.186 0.205-1.684 0.139-0.543-0.073-1.511 0.29-1.774 0.29-0.059 0-0.755 0.265-1.473 0.583-0.182-0.001-0.381-0.008-0.575-0.026-0.053-0.104-0.073-0.291-0.023-0.391 0.232-0.174 0.183-0.418 0.080-0.676 0.129 0.201 0.369 0.301 0.567 0.245-0.442-0.116-0.37-0.622-0.306-1.255 0.052 0.295 0.074 0.553 0.029 0.689 0.128-0.156 0.095-0.606 0.004-1.096 0.025-0.445-0.001-0.922-0.23-1.354-0.646-1.221-2.549-0.79-2.693-0.539s-0.431 0.323-0.431 0.323-0.004 0.025-0.008 0.064c-0.8-0.211-1.885-0.137-2.762 0.387-1.394 0.833-1.134 2.276-1.015 2.565s0.187 0.356 0.187 0.356c0 0.34 0.272 0.884 0.408 1.055 0.004 0.005 0.008 0.012 0.012 0.018-0.071 0.079-0.165 0.151-0.284 0.169 0.15-0.010 0.25-0.010 0.346-0.055 0.082 0.193 0.109 0.476 0.028 0.718-0.102 0.306-0.068 0.408 0.102 0.476 0.17 0.068 0.374 0 0.408 0.102s0.068 0.306 0.204 0.306c0.136 0 0.136 0.034 0.136 0.102s0.034 0.187 0.187 0.187c0.153 0 0.238 0.051 0.391 0.306s0.357 0.221 0.612 0.085c0.255-0.136 0.612-0.459 0.799-0.442s0.313 0.142 0.493 0.204c0.212 0.074 0.804 0.257 1.377 0.38-0.019 0.333-0.056 0.667-0.159 0.899-0.27 0.608 0.087 2.067 0.144 2.612s-0.044 1.556 0.076 2.465c0.119 0.908-0.001 1.34-0.278 2.166s-0.028 2.281 0.031 2.754c0.059 0.473 0.103 4.060-0.012 4.31s-0.756 1.102-0.835 1.353c-0.079 0.252 0.016 0.725-0.211 1.045s-0.416 0.605-0.527 0.71c-0.112 0.105-0.048 0.433 0.32 0.226s0.485-0.493 0.56-0.6c0.076-0.107 0.166-0.044 0.012 0.38s-0.012 0.427 0.191 0.432c0.203 0.006 0.395-0.314 0.505-0.576s0.135-0.464 0.243-0.685c0.108-0.221 0.272-0.277 0.265-0.013s0.159 0.859 0.176 1.002c0.016 0.143 0.113 0.308 0.378 0.296s0.224-0.014 0.193-0.341c-0.032-0.326-0.115-0.247-0.13-0.431s0.039-0.671 0.097-0.547c0.057 0.123 0.447 0.766 0.585 0.912s0.359 0.254 0.445 0.094c0.086-0.16-0.014-0.224-0.13-0.451s-0.315-0.375-0.408-0.704c-0.092-0.328-0.069-0.429 0.064-0.812s0.294-0.338 0.228-0.869c-0.066-0.531-0.164-0.696-0.162-0.757s0.314-4.672 0.49-5.115c0.176-0.443 0.191-0.992 0.12-1.38s-0.218-0.942-0.038-1.527c0.004-0.013 0.008-0.028 0.012-0.044 0.080 0.634 0.19 1.638 0.147 2.158-0.058 0.694 0.479 2.141 0.529 2.425s0.404 1.126 0.089 1.442c-0.315 0.316-0.297 0.865-0.286 1.19s-0.057 0.714-0.197 0.8c-0.139 0.086-0.276 0.253-0.069 0.369s0.625-0.184 0.703-0.268c0.079-0.084 0.049-0.368 0.171-0.372s0.138-0.126 0.132-0.31c-0.006-0.183 0.24-0.13 0.265 0.011s0.031 0.325 0.192 0.278c0.161-0.046 0.069-0.368 0.069-0.368s0.164 0.035 0.228 0.114c0.064 0.079 0.277 0.357 0.398 0.332s0.075-0.206 0.075-0.206l0.209 0.156c0 0 0.23 0.175 0.555 0.164s0.277-0.254 0.113-0.268c-0.163-0.015-0.432-0.128-0.621-0.305s-0.593-1.283-0.746-1.603c-0.153-0.321-0.096-2.847-0.037-3.52s-0.505-1.713-0.27-3.777c0.163-1.425 0.112-2.468 0.060-3.001 0.261 0.109 0.473 0.194 0.599 0.244 0.651 0.253 1.267 0.217 1.811 0.036s2.136-1.479 2.969-1.914c0.143-0.074 0.352-0.184 0.595-0.311-0.779 1.625-1.891 4.3-2.378 7.181-0.326 1.195-0.217 1.883 0.507 2.137s1.584 0.771 2.888 0.952c1.303 0.181 6.626 1.122 6.735 1.484s0.145 0.398 0.29 0.688c0.145 0.29-0.181 2.716-0.724 3.367-0.543 0.652 0 0.797 0.579 0.797s1.629-1.231 1.883-1.919c0.254-0.688 0.833-1.738 0.942-1.992s0.905-0.833 0.833-1.412c-0.047-0.374-0.47-0.687-0.891-0.891 1.295 0.447 2.432 0.837 2.593 0.855 0.326 0.036 0.072 0.326 0.217 0.869s0.109 1.666-0.253 2.245c-0.362 0.579-0.471 0.796-0.181 1.050s1.195-0.29 1.738-0.833c0.543-0.543 0.905-1.955 1.231-2.68s0.688-2.137 0.036-2.498zM6.298 5.444c-0.005 0.087-0.005 0.172-0.003 0.256-0.137-0.382-0.199-0.971-0.226-1.421 0.169 0.394 0.246 0.862 0.229 1.165zM4.597 3.767c0.025-0.039 0.045-0.073 0.059-0.101 0.060-0.002 0.199-0.023 0.493-0.090 0.279-0.063 0.509 0.071 0.688 0.3 0.027 0.64 0.151 1.616 0.466 2.002 0.033 0.448 0.138 0.786 0.138 0.786 0 0.436 0.176 0.681 0.35 0.802-0.51-0.072-0.944-0.245-0.901-0.644 0.085-0.781-0.531-2.034-0.918-2.686-0.083-0.14-0.212-0.264-0.376-0.369zM16.865 17.534c0.127-0.169 0.644-1.183 1.233-2.194-0.007 0.165-0.011 0.278-0.011 0.321 0 0.338 0.126 1.844 0.232 2.366-0.134 0.012-0.27 0.030-0.413 0.060-1.702 0.362-1.258-0.264-1.041-0.554zM24.894 20.803c-0.145-0.073-0.688-0.036-1.050-0.326-0.103-0.082-0.375-0.23-0.719-0.406 0.638 0.208 1.478 0.495 2.316 0.783-0.371-0.070-0.413 0.016-0.547-0.050z"></path>
</symbol>
<symbol id="12" viewBox="0 0 32 32">
<path d="M9.013 13.233c-0.050-0.057 0.029-0.163 0.109-0.137s0.185 0.045 0.32 0.094c0.136 0.048 0.184 0.117 0.29 0.196s0.166 0.283 0.167 0.415c0 0.133 0.092 0.426 0.092 0.426l0.383 0.217c0.065-0.091 0.112-0.153 0.112-0.153l0.182 0.136c0.042-0.049 0.075-0.078 0.096-0.074 0.105 0.019 1.992 1.187 2.231 1.266s0.366 0.174 0.494 0.269c0.127 0.095 1.363 0.46 1.497 0.52s0.62-0.034 0.62-0.034 0.112 0.013 0.247 0.030l-0.031-0.027c0 0 0.17-0.042-0.158-0.227s-0.479-0.555-0.547-0.983c-0.068-0.428-0.082-1.261 0.611-1.499 0.944-0.428 1.575 0.083 1.67 0.262s0.012 0.436 0.012 0.436-0.033 0.084 0.082 0.249c0.115 0.165 0.168 0.373 0.175 0.537s0.024 0.673 0.024 0.673l-0.002 0.197c0.245-0.084 0.443-0.15 0.502-0.163 0.188-0.039 0.874-0.241 1.049-0.21s0.175 0.031 0.175 0.031l2.011 0.070c0.375-0.078 0.73-1.459 0.73-1.459s0.036-0.002 0.094-0.004l0.049-0.188c0 0 0.068 0.003 0.17 0.014 0.034-0.142 0.063-0.281 0.052-0.311-0.025-0.064-0.101-0.247-0.101-0.247-0.19-0.215-0.209-0.447-0.305-0.584s-0.187-0.371-0.246-0.514c-0.059-0.143 0.035-0.198 0.104-0.174 0.079 0.028 0.129 0.155 0.172 0.248s0.145 0.134 0.191 0.142c0.047 0.008 0.091-0.104 0.048-0.268s-0.118-0.419-0.095-0.547c0.023-0.129 0.147-0.082 0.183 0.057s0.080 0.496 0.233 0.451c0.036-0.011 0.041-0.499 0.069-0.722s0.191-0.123 0.191 0.010c0 0.133-0.041 0.703-0.041 0.703s0.044 0.092 0.099 0.054c0.055-0.038 0.122-0.412 0.131-0.531s-0.025-0.197 0.077-0.227c0.102-0.030 0.146 0.062 0.127 0.167s-0.074 0.481-0.080 0.516c-0.006 0.035 0 0.132 0.058 0.143s0.113-0.16 0.172-0.355c0.059-0.194 0.19-0.050 0.15 0.039s-0.109 0.342-0.137 0.433c-0.029 0.091-0.122 0.545-0.118 0.726s-0.175 0.643-0.175 0.643l-0.017 0.324c0.073 0.033 0.139 0.071 0.191 0.117-0 0.050-0.009 0.099-0.022 0.145 0.011 0.022 0.017 0.046 0.019 0.071 0.010 0.146-0.791 2.207-0.928 2.363s-1.484 0.421-1.701 0.419c-0.216-0.002-0.346 0.119-0.346 0.119l-0.204-0.073 0.37 1.367 0.255 0.19 1.239 0.546c0 0 0.080 0.159 0.014 0.328s-0.227 0.465-0.227 0.465 0.78 0.284 0.879 0.337c0.099 0.054 0.259 0.372 0.259 0.372l1.969 1.11c0 0 2.542 1.14 2.641 1.194s2.197 1.657 2.197 1.657l0.478 0.158 0.613 0.615c0 0 0.675 0.265 0.908 0.379s0.085 0.738-0.395 0.797c-0.48 0.058-0.767 0.044-0.767 0.044l-0.264 0.061-0.58-0.393c0 0-0.513-0.164-0.615-0.399s-0.701-0.523-0.701-0.523-2.017-1.047-2.128-1.030c-0.111 0.016-3.121-1.135-3.082-0.948s1.44 1.847 1.44 1.847 3.091 0.696 3.231 0.721c0.14 0.025 0.34-0.084 0.34-0.084s0.075 0.115 0.164 0.266l0.266-0.045c0 0 0.369-0.043 0.462 0.046s0.3 0.342 0.3 0.342 0.829 0.618 0.956 0.713c0.128 0.095 0.466 0.625-0.096 0.741s-0.462-0.046-0.694-0.16c-0.233-0.114-0.797-0.395-0.936-0.42l-0.214-0.039c-0.116 0.158-0.255 0.28-0.367 0.26-0.245-0.043-0.488-0.304-0.593-0.323s-3.029-0.035-3.354-0.238c-0.212-0.132-2.035-1.591-3.284-2.595-0.196-0.11-0.474-0.28-0.571-0.298-0.066-0.012-0.174-0.192-0.27-0.379-0.209-0.168-0.336-0.271-0.336-0.271s-0.581 0.221-0.728 0.231c-0.146 0.010-0.832-1.413-0.883-1.531s-2.516-2.906-2.625-3.106c-0.109-0.2-0.908-1.39-0.908-1.39s-2.233-1.049-2.425-1.192c-0.191-0.142-2.212-1.37-2.069-1.562l0.006-0.009c-0.053-0.045-0.103-0.097-0.123-0.144-0.010-0.023 0.004-0.071 0.033-0.132-0.198-0.151-0.4-0.307-0.4-0.307s-0.32-0.093-0.484-0.123c-0.163-0.029-0.293-0.317-0.32-0.431-0.050-0.057-0.119-0.214-0.093-0.354-0.090-0.101-0.050-0.262-0.003-0.386-0.125-0.179 0.089-0.297 0.312-0.197z"></path>
<path d="M1.852 7.608c0 0 2.869-2.574 3.122-2.869s0.253-0.295 0.253-0.295l3.375-0.802c0 0 0.633 1.856 0.802 2.11-0.253 0.802-0.253 1.899-0.253 1.899s-1.434 2.405-1.477 2.531c-0.042 0.127-1.35 0.422-1.435 0.549s-1.392 1.687-1.603 1.772c-0.211 0.084-1.603 0.084-1.603 0.084l-2.531 0.337-0.422-2.236 1.772-3.080z"></path>
<path d="M5.92 9.918l0.161-0.136 3.348 3.954-0.161 0.136-3.348-3.954z"></path>
<path d="M4.71 11.955l1.334-0.375 0.624-1.040 0.072 0.044-0.641 1.069-1.366 0.385z"></path>
<path d="M5.048 11.196l1.772-0.464 0.021 0.082-1.772 0.464-0.021-0.082z"></path>
<path d="M8.456 14.864v0c-0.039-0.051-0.030-0.123 0.021-0.163s0.123-0.030 0.162 0.021c0.167 0.215 0.475 0.254 0.691 0.088s0.254-0.475 0.088-0.691l-0.567-0.733c-0.039-0.051-0.030-0.123 0.021-0.162s0.123-0.030 0.163 0.021l0.567 0.733c0.245 0.316 0.186 0.771-0.129 1.016s-0.771 0.186-1.016-0.13z"></path>
</symbol>
<symbol id="13" viewBox="0 0 32 32">
<path d="M31.92 21.709l-0.205-0.213c0 0-5.352-1.733-11.498-3.729 0.071 0.003 0.119-0.004 0.13-0.023 0.081-0.141 0.026-1.425-0.096-1.619s-0.29-0.337-0.362-0.368c-0.072-0.031-0.306-0.59-0.512-0.855s-0.752-0.684-1.629-1.195c-0.877-0.512-2.063-0.787-2.381-0.955s-1.446-1.108-1.611-1.271c-0.165-0.162-0.284-0.259-0.272-0.334s0.384 0.122 0.599 0.1c0.216-0.022-0.328-0.228-0.437-0.265s-0.343-0.134 0.072-0.084c0.415 0.050 0.474-0.075 0.328-0.119s-0.562-0.094-0.509-0.181c0.272-0.012 0.321-0.081 0.39-0.146s-0.381-0.025-0.575-0.019c-0.193 0.006-0.817-0.175-0.817-0.175s-0.443-0.344-1.021-0.574c-0.577-0.231-1.411-0.312-1.579-0.34s-0.866-0.164-0.866-0.164 0.77-0.063 1.048 0.002c0.278 0.066 0.312-0.14 0.471-0.171s0.287-0.106 0.384-0.109c0.097-0.003 0.272 0.334 0.39 0.431s0.103-0.156 0.022-0.246c-0.081-0.091-0.175-0.222-0.215-0.325s0.044-0.146 0.044-0.146c0.047-0.050 0.134 0.003 0.343 0.019s0.153 0.122 0.393 0.181c0.24 0.059 0.14-0.034 0.047-0.165s-0.459-0.25-0.531-0.281c-0.072-0.031 0.169-0.088 0.284-0.088s0.197 0.091 0.356-0.056c0.159-0.147-0.837-0.178-1.039-0.116s-0.927 0.134-1.039 0.115c-0.112-0.019-1.096-0.125-1.558-0.125s-1.039 0.116-2.269 0.103c-1.23-0.013-2.553 0.19-2.553 0.19-0.228-0.596-1.155-1.039-1.969-0.309s-0.368 1.748-0.078 1.969l0.19 0.012c0 0 0.050 0.278 0.134 0.349s0.168 0.028 0.168 0.028 0.072 0.146 0.178 0.203c0.106 0.056 0.187 0.262 0.399 0.143s0.268-0.225 0.343-0.212c0.075 0.012 0.144 0.063 0.234-0.019s0.434-0.178 0.562-0.137c0.128 0.041 1.142 1.114 1.954 1.327s2.335 0.312 2.603 0.318c0.268 0.006 1.948 0.21 2.094 0.253s3.13 2.35 3.386 2.662c0.219 0.268 1.121 0.931 1.608 1.239-6.61-2.15-12.816-4.177-13.238-4.348-0.925-0.372-1.343-1.136-1.876-1.002-0.366 0.092-0.302 0.574-0.074 0.906 0.507 0.742 1.458 0.994 2.4 1.286 0.455 0.141 7.218 2.373 14.087 4.643 0.423 0.633 0.787 1.269 0.739 1.386-0.097 0.234-0.184 0.412-0.515 0.434-0.318 0.021-0.916 0.013-1.066 0.133-4.969-1.387-9.609-2.684-10.674-2.986-2.496-0.71-3.319-1.261-3.797-1.46s-0.855-0.101-0.68 0.322c0.175 0.423 1.007 0.852 2.169 1.262s26.321 7.526 26.528 7.499c0.207-0.026 0.382-0.753 0.382-0.753s-4.655-1.297-9.933-2.77c0.005-0.040 0.009-0.081 0.014-0.123 0.054-0.489-0.593-1.261-0.705-1.418-0.064-0.090-0.305-0.493-0.505-0.879 6.664 2.202 12.869 4.255 12.869 4.255l0.342-0.897zM17.553 16.074c-0.108 0.148-0.162-0.027-0.162-0.027s-0.74-1.037-1.441-1.569c0 0 1.629 0.936 1.724 1.117s-0.013 0.33-0.121 0.478z"></path>
</symbol>
<symbol id="14" viewBox="0 0 24 32">
<path d="M18.389 14.473c0-0.713-0.611-3.53-0.78-4.175s-1.222-2.919-1.425-3.326c-0.204-0.407-0.713-1.595-1.154-2.070s-1.901-1.901-2.749-2.546c-0.849-0.645-1.595-1.425-2.41-1.392s-1.595 0.17-1.968 0.306c-0.373 0.136-0.272 0.238-0.78 0.305s-1.425-0.102-2.138-0.305c-0.713-0.204-1.018-1.256-2.070-1.188s-1.256 0.068-2.036 0.577c-0.524 0.342-0.849 1.527-0.815 1.867s-0.068 0.916 0.17 1.018c0.238 0.102 0.577 0.272 0.543 0.407s0.17 0.509 0.306 0.509c0.136 0 0.475 0.271 0.475 0.373s0.271 0.916 0.475 0.882c0.204-0.034 0.339-0.034 0.272 0.136s-0.679 1.663-0.713 2.002c-0.034 0.339 0.068 1.222 0.543 1.595s1.425 2.613 1.765 2.952c-0.916 0.747-1.392 1.12-1.697 1.154s-0.78 0.916-0.882 1.154c-0.102 0.238-0.17 1.901 0 2.41s0.441 0.78 0.679 0.916 0.95 0.373 1.086 0.441c0.136 0.068 0.645 0 0.272-0.271 0.237 0 0.577-0.306 0.237-0.339s-0.916-0.373-1.052-0.441c-0.136-0.068-0.271-0.237-0.237-0.441s0.204-0.611 0.306-0.747c0.102-0.136 0.339-0.339 0.339-0.204s1.222 2.206 1.731 2.444c0.509 0.238 0.475 0.305 0.611 0.407s2.952 2.478 3.699 3.394c0.747 0.916 1.425 1.799 1.323 2.647s-0.034 1.629-0.407 1.935c-0.373 0.305-0.611 0.407-0.441 0.611 0.068 0.272 0.441 0.441 0.882 0.339s1.188-0.204 1.595-0.509c0.407-0.306 2.138-2.070 2.274-2.478s-0.136-1.154-0.781-1.391c-0.645-0.238-1.425-0.916-1.561-1.392s-2.002-4.106-3.53-4.853c-1.527-0.747-0.679-0.713 0.305-0.407s6.346 0.713 8.145 0.339c1.799-0.373 1.595-1.935 1.595-2.647zM5.39 10.299c0 0-1.663-1.595-1.867-1.867s-0.238-0.306 0.102-0.407 0.781-0.17 0.95-0.306c0.17-0.136 0.068-0.441 0.068-0.441s0.543 0.204 0.543 0.645c0 0-0.17 0.645 0.068 0.882s0.136 0.679 0.17 0.917c0.034 0.237-0.034 0.577-0.034 0.577zM5.322 6.905c0 0-0.475-0.17-0.509-0.305s-0.441-0.543-0.441-0.543c0.102 0 0.475-0.543 0.645-0.543s0.984-0.102 0.984 0.102c0 0.204-0.679 1.29-0.679 1.29zM8.309 12.233l0.204-0.747c0 0 0.441-0.916 0.475-1.561 0 0 0.577 0.475 0.679 0.679s0.95 1.256 1.29 1.391c0.339 0.136 0.781 0.543 0.781 0.543l-3.428-0.305z"></path>
<path d="M9.429 18.274c-0.136-0.509-0.611-1.527 0.407-1.561s8.586-0.305 9.808-0.441c1.222-0.136 1.188 0.339 1.256 0.509s1.154 0.747 0.984 2.376c-0.169 1.629 0.475 4.48 0.95 4.989s0.271 1.086 0.237 1.425c-0.034 0.339-0.102 1.052 0 1.425s0.17 1.255 0.407 1.799c0.238 0.543 0.238 1.256-0.034 1.629s-2.036 1.561-4.412 1.493c-2.376-0.068-7.398-0.407-8.926-1.663s-1.018-2.851-0.543-2.851c0.475 0 2.647-4.107 2.444-4.616s-2.579-4.514-2.579-4.514z"></path>
</symbol>
<symbol id="15" viewBox="0 0 26 32">
<path fill="#040000" style="fill: var(--color1, #040000)" d="M1.832 0.504l1.315 0.457c0.286-0.172 0.229-1.030 0.744-0.858 0.629 0.287 0.458 1.316 0.458 1.316 0.226 0.045 0.317 0.13 0.373 0.213 0.095 0.015 0.213 0.044 0.342 0.102 0.315 0.143 0.401 0.229 0.572 0.229s0.343 0 0.486 0.228c0.143 0.229 0.086 0.487 0.401 0.515 0.29 0.026 0.457 0.223 0.526 0.433 0.364 0.113 0.846 0.34 0.846 0.34 0.686-0.144 2.002 0.2 2.459 0.343s1.344 1.201 1.487 1.544c0.143 0.343 0.887 1.315 0.887 1.315l0.629 0.83c0 0 0.687 0.715 0.858 1.001s0.286 0.401 0.401 0.543c0.114 0.143 0.401 0.4 0.572 0.572s0.228 1.087 0.286 1.201c0.057 0.114 0.515 0.372 0.858 0.973s1.602 2.631 1.717 2.803c0.114 0.172-1.087 0.973-1.087 0.973 0.343 0.515 0 0.6 0.143 0.858s2.546 4.091 2.546 4.091 0.286 0.458 0.486 0.544c0.2 0.086 0.457 0.658 0.6 0.687s0.315 0.286 0.43 0.486c0.114 0.2 1.916 2.488 3.032 3.661s1.030 1.974 1.23 2.86c0.343 0.286 0.314 1.001 0.314 1.001s0.172 0.028 0.315 0.086c0.143 0.057 0 1.945 0 1.945l-1.173 0.028c0 0-0.086-0.143-0.115-0.315s-0.229-0.057-0.372-0.057-0.458 0-0.915 0.258c-0.458 0.257-1.888 0.257-2.431 0.114s-0.172-0.487-0.172-0.487-0.2 0.028-0.8-0.028c-0.601-0.058-0.515-0.486-0.315-0.544s0.944-0.2 1.202-0.371c0.257-0.172 1.029-1.002 1.058-1.087s0.143-0.658-0.114-1.059c-0.258-0.401-1.974-2.489-2.145-2.717s-0.544-0.687-0.601-0.801c-0.057-0.114-0.343-0.543-0.544-0.744s-0.543-0.543-0.686-0.658c-0.143-0.114-0.257-0.114-0.401-0.172s-0.629-0.544-0.829-0.801c-0.2-0.257-1.659-1.544-1.945-1.802s-1.43-1.573-1.43-1.573-0.258 0.286-0.486 0.229c-0.229-0.058-0.829-0.83-0.829-0.83s-0.715 0.686-0.972 0.486c-0.258-0.2-1.745-2.984-2.060-3.356s-0.791-1.84-1.22-2.441c-0.429-0.6-1.374-3.813-1.374-3.813s-0.038 3.404-0.038 3.489c0 0.086-0.171 1.459-0.2 1.888-0.029 0.43-0.401 1.831-0.401 1.516s-0.086-3.347-0.143-3.718c-0.057-0.372 0.058-4.863 0.058-4.863l-0.086-0.257-0.028-0.83c0 0 0 0-0.171-0.2 0 0-0.143-0.6-0.372-0.172-0.286 0.916-0.886 0.2-0.973 0.143s-0.343-0.172-0.343-0.172-0.286 0.172-0.4 0.172c-0.114 0-0.343-0.6-0.343-0.6s-0.028 1.373-0.429 1.373c-0.4 0-0.629-1.735-0.629-1.735s-1.774-1.030-1.831-1.831c-0.057-0.801 1.774-2.956 1.774-2.956z"></path>
<path fill="#fff" style="fill: var(--color2, #fff)" d="M5.483 6.078c0.019 0.046 0.033 0.090 0.043 0.126-0 0-0.019-0.051-0.043-0.126z"></path>
<path fill="#fff" style="fill: var(--color2, #fff)" d="M12.142 18.28c-0.028-0.028-0.070-0.073-0.122-0.13l0.012-0.011 0.11 0.141z"></path>
<path fill="#fff" style="fill: var(--color2, #fff)" d="M22.023 29.576c0.081 0.066 0.175 0.121 0.231 0.083 0.114-0.076-0.305 0.763-0.572 0.915-0.206 0.117-0.525 0.143-0.801 0.044 0.068-0.028 0.128-0.058 0.176-0.090 0.175-0.116 0.7-0.638 0.966-0.952zM14.169 13.547c0.114-0.401-0.687-1.087-1.087-1.487s-2.174-2.574-2.174-2.574 1.554-1.463 2.321-1.876l0.006 0.007 0.006 0.007c0.187 0.195 0.703 0.75 0.836 0.972 0.141 0.235 0.247 0.362 0.34 0.473 0.025 0.030 0.048 0.058 0.072 0.088 0.084 0.105 0.243 0.257 0.395 0.403 0.069 0.065 0.135 0.129 0.189 0.182 0.076 0.082 0.146 0.564 0.177 0.77 0.033 0.227 0.049 0.329 0.079 0.389 0.032 0.065 0.094 0.119 0.196 0.208 0.177 0.153 0.445 0.386 0.666 0.773 0.313 0.549 1.445 2.381 1.687 2.759-0.107 0.15-0.585 0.52-1.007 0.802l-0.135 0.089 0.090 0.135c0.165 0.248 0.137 0.352 0.108 0.462-0.026 0.095-0.061 0.225 0.028 0.385 0 0 0.009 0.293-0.278 0.351s-0.572 0-0.572 0l-0.458 0.4c0 0-0.4 0.058-0.515-0.229s0.057 0.114-0.115-0.286c-0.171-0.401-0.228-0.801-0.228-0.973s-0.744-1.831-0.629-2.231zM22.75 29.545c0.305-0.191 0.725 0.076 0.953 0.153s0.953 0.076 1.335 0.038c0.207-0.020 0.403-0.097 0.538-0.163 0.006 0.075 0.007 0.141 0.005 0.186l-0.005 0.13c-0.349 0.227-0.577 0.229-0.577 0.229s-0.724 0.114-1.068 0.305c-0.343 0.19-1.335 0.419-1.869 0.152 0.229-0.114 0.381-0.839 0.687-1.030zM3.456 0.804c0.027-0.062 0.051-0.129 0.074-0.194 0.076-0.215 0.137-0.367 0.234-0.367 0.019 0 0.042 0.004 0.067 0.012 0.498 0.237 0.358 1.129 0.358 1.138l-0.026 0.155c-0.042 0.337-0.639 2.025-0.859 2.64l0.398 0.21c0 0 0.095-0.166 0.048-0.261s0.284 0 0.284 0l0.404 0.166c0 0-0.166-0.166-0.19-0.26s0.142-0.261 0.095-0.499c-0.047-0.237-0.071-0.783 0.237-0.616 0.308 0.165 0.499 0.805 0.546 0.949 0.047 0.142 0.331 0.094 0.427 0.189 0.094 0.095 0.166 0.261 0.119 0.403s-0.19 0.901-0.262 1.067c-0.048 0.113 0.023 0.383 0.073 0.543-0.056-0.136-0.153-0.284-0.315-0.284-0.176 0-0.273 0.18-0.305 0.24l-0.008 0.013-0.004 0.015c-0.051 0.16-0.137 0.349-0.268 0.349-0.137 0-0.313-0.162-0.389-0.232-0.032-0.030-0.058-0.051-0.072-0.060-0.095-0.064-0.34-0.173-0.367-0.185l-0.078-0.034-0.072 0.043c-0.097 0.059-0.213 0.115-0.277 0.138-0.057-0.082-0.156-0.287-0.231-0.486l-0.321-0.154c-0.014 0.67-0.165 1.423-0.254 1.423-0.145-0.052-0.371-0.813-0.475-1.596l-0.005-0.047c0.255-0.444 1.111-1.95 1.232-2.414 0-0 0.788-1.201 0.18-2.004zM1.884 0.693l1.282 0.445 0.065-0.039c0 0 0.145 0.299-0.007 0.566 0 0-1.048 2.4-1.617 3.254-0.559-0.375-1.353-1.005-1.387-1.474-0.040-0.575 1.126-2.107 1.664-2.754zM6.826 3.501l0.035-0.247c0.245 0.056 0.696 0.245 0.966 0.371l0.048 0.023 0.053-0.011c0.098-0.020 0.218-0.031 0.356-0.031 0.662 0 1.583 0.232 2.023 0.37 0.399 0.125 1.251 1.13 1.386 1.452 0.125 0.3 0.653 1.014 0.841 1.263-0.409 0.307-1.086 0.824-1.282 1.020-0.285 0.286-0.973 0.973-0.973 0.973s-1.087-1.373-1.144-1.831c-0.058-0.458-0.172 0.343 0.686 1.601 0.859 1.258 3.833 4.519 4.119 4.977s-0.115 0.286 0.515 1.659c0.343 0.686 0.172 1.372 0.285 1.659s-0.571 1.602-0.4 2.116c0.11 0.33-0.319 0.331-0.642 0.289-0.145-0.163-0.244-0.277-0.247-0.282l-0.12-0.136-0.123 0.135c-0.054 0.059-0.2 0.183-0.303 0.183l-0.023-0.003c-0.1-0.031-0.44-0.384-0.742-0.772l-0.11-0.141-0.012 0.011c-0.615-0.693-2.745-3.376-3.114-3.746-0.4-0.401-1.087-3.204-1.373-4.52s-0.229-3.718-0.287-5.034c-0.228 1.144-0.057 3.432-0.057 3.432-0.343-0.915-0.607-4.665-0.607-4.665l0.208 0.123 0.034-0.24zM5.956 6.674c0 0 0.166 1.305 0.166 1.399 0 0.058 0.104 0.408 0.186 0.678-0.021 0.748-0.119 3.918-0.119 3.993-0.001 0.040-0.033 0.316-0.063 0.583-0.053 0.463-0.12 1.039-0.137 1.296-0.008 0.124-0.048 0.338-0.098 0.566-0.030-1.026-0.083-2.518-0.123-2.782-0.041-0.262 0.013-3.034 0.058-4.834l0.001-0.028-0.009-0.027-0.078-0.235-0.028-0.806-0.002-0.057-0.006-0.007c0.109 0.019 0.252 0.262 0.252 0.262z"></path>
</symbol>
<symbol id="16" viewBox="0 0 32 32">
<path d="M0.198 7.266c-0.227-0.34-0.057-1.078-0.057-1.532s0.681-0.454 1.078-0.454c0.397 0 0.455-0.454 1.418-0.738s2.723 0.227 2.723 0.227 0.114-0.567 0.454-0.567c0.34 0 0.511 0.794 0.511 0.794s0 0 0.567-0.851 1.191-1.135 1.191-0.567c0 0.567 0.169 3.46 0.169 3.46s-0.227 2.042 0 2.609c0.228 0.568 1.418 1.701 3.915 2.269 2.495 0.567 4.876 3.742 5.672 4.538 0.452 0.451 1.157 1.222 1.676 2.349 0.421 0.331 1.002 0.613 1.784 0.657 2.043 0.114 5.389-3.063 6.070-5.048 0.68-1.986 2.438-3.347 4.424-2.496 0.34 0.284 0 1.078-1.021 1.078s-1.815 0.965-2.949 3.29c-1.036 2.123-4.909 5.522-7.647 5.45 0.013 2.398-1.495 3.792-1.713 3.739-0.227-0.057 0.852 1.475-0.34 2.495-1.19 1.022-6.58 0.738-6.977 0.68-0.397-0.056-1.19-0.113-1.304-0.623s0.397-0.964 0.794-0.908 0.68-0.17 1.929-0.227c-1.305 0.057-1.929-0.964-1.929-0.964-0.681 0-1.985 0.113-2.326-0.34s0-1.078 1.248-1.191c-0.453-0.625 0.057-1.135 0-1.475-0.057-0.341-2.609-2.553-3.119-2.383-0.51 0.171-2.439 5.049-2.439 5.559s-0.227 0.908-1.702 1.135c-1.474 0.226-1.758-0.738-1.531-1.305s1.134 0.057 1.191-0.454c0.056-0.511 0.454-2.723 0.511-4.084 0.024-0.562 0.017-1.375-0.046-2.251-0.3 0.189-0.522 0.448-0.522 0.72 0 0.567-0.566 0.625-1.021 0.283-0.454-0.34-0.283-1.077 0-1.758 0.188-0.45 0.871-0.9 1.313-1.153-0.112-0.618-0.262-1.202-0.462-1.683-0.681-1.645 0.284-3.971 0.34-4.311s-0.907-2.326-1.248-2.723c-0.341-0.397-0.567-0.85-0.625-1.247z"></path>
</symbol>
<symbol id="17" viewBox="0 0 26 32">
<path d="M10.226 10.605c-3.372 1.403-3.68 4.961-3.311 8.069 0.368 3.11-0.292 3.579-0.983 4.82-1.207 2.176-0.725 6.768 3.383 7.855 6.13 1.622 10.449-0.432 10.634-3.384 0.315-5.061-3.734-5.161-4.403-7.64-0.668-2.482-0.299-6.165-2.755-7.492z"></path>
<path d="M21.239 15.691c2.116 1 3.547 2.635 4.137 4.73 0.818 2.912-0.108 6.221-1.317 8.063-0.921 1.403-2.348 2.268-4.131 2.508-1.892 0.25-3.998-0.272-5.124-1.269-0.3-0.264-0.327-0.724-0.062-1.023 0.267-0.298 0.724-0.327 1.023-0.062 0.687 0.608 2.311 1.136 3.973 0.915 0.943-0.126 2.248-0.552 3.11-1.863 0.861-1.317 1.875-4.233 1.132-6.878-0.479-1.702-1.61-2.983-3.361-3.811-0.36-0.172-0.517-0.604-0.345-0.965 0.171-0.361 0.602-0.516 0.965-0.345z"></path>
<path fill="#de4163" style="fill: var(--color3, #de4163)" d="M13.578 11.443c0.029 0.953-1.543 1.773-3.51 1.833-1.969 0.057-3.586-0.666-3.615-1.617-0.029-0.954 1.543-1.773 3.511-1.832 1.967-0.059 3.585 0.664 3.614 1.615z"></path>
<path fill="#de4163" style="fill: var(--color3, #de4163)" d="M7.462 12.143c-1.568-0.353-3.474-0.122-3.474-0.122-0.271 1.456 0.334 2.562 0.334 2.562 1.587-1.042 3.427-2.149 3.427-2.149z"></path>
<path fill="#de4163" style="fill: var(--color3, #de4163)" d="M7.421 12.406c-1.406 1.080-3.973 4.666-3.973 4.666 1.064 1.042 2.322 1.151 2.322 1.151 0.437-1.793 2.053-5.895 2.053-5.895z"></path>
<path d="M16.208 8.132c0.025 2.901-2.991 4.223-6.724 4.255-3.732 0.032-6.769-1.238-6.794-4.14s2.973-6.339 6.705-6.371c3.733-0.031 6.788 3.354 6.813 6.256z"></path>
<path d="M3.749 5.905c-1.565-2.753 0.163-5.732 0.163-5.732 3.159 1.077 4.246 3.244 4.246 3.244z"></path>
<path d="M15.108 5.809c1.517-2.782-0.26-5.729-0.26-5.729-3.142 1.131-4.19 3.316-4.19 3.316z"></path>
<path d="M0.060 9.044c0.007 0.163 0.142 0.291 0.305 0.285l2.824-0.091c0.16-0.007 0.289-0.141 0.285-0.304-0.004-0.162-0.141-0.291-0.304-0.284l-2.826 0.091c-0.16 0.005-0.289 0.142-0.285 0.305z"></path>
<path d="M3.827 9.413l-2.943 1.189c-0.151 0.061-0.225 0.233-0.163 0.382 0.063 0.153 0.232 0.225 0.383 0.165l2.942-1.19c0.151-0.060 0.223-0.233 0.164-0.385-0.063-0.151-0.233-0.223-0.383-0.16z"></path>
<path d="M18.851 8.882c-0.003 0.163-0.138 0.293-0.3 0.29l-2.827-0.042c-0.161-0.003-0.292-0.137-0.289-0.3 0.001-0.16 0.137-0.292 0.298-0.289l2.825 0.042c0.163 0.002 0.294 0.136 0.292 0.299z"></path>
<path d="M15.091 9.316l2.962 1.138c0.152 0.059 0.228 0.23 0.17 0.382s-0.229 0.227-0.381 0.168l-2.962-1.137c-0.152-0.061-0.227-0.23-0.17-0.382 0.060-0.15 0.23-0.227 0.381-0.169z"></path>
</symbol>
<symbol id="18" viewBox="0 0 32 32">
<path d="M3.964 5.941c0 0-0.529-0.973-0.362-1.001s0.807 0.166 0.975 0.333c0.165 0.167 0.665 0.557 0.665 0.557s1.558-0.029 2.253 0.611c0.695 0.639 4.003 2.086 4.976 2.086s5.948 0.306 7.339 0.36c1.389 0.056 4.559 0.279 5.255 0.612 0.694 0.334 1.778-2.224 0.75-3.253s-3.087-0.944-3.475 0.806c-0.084 0.222-0.056 0.917-0.056 0.917l-0.167-0.306c0 0-0.083 0.945 0.082 1.14-0.666-0.223-1.778-1.612-1.028-3.003-0.139 0.055-0.361 0-0.361 0s0.556-1.279 1.613-1.723c-0.25-0.083-0.194-0.25-0.194-0.25s1.362-0.445 2.279-0.278c0.056-0.083-0.139-0.306-0.139-0.306s1.417 0.027 2.029 0.861c0 0-0.028-0.389 0.111-0.444 0.389 0.5 1.863 0.999 1.863 2.696 0.111-0.166 0.305-0.361 0.305-0.361s0 1.753-0.389 2.669c-0.39 0.918-1.417 1.501-1.417 1.501s1.278 1.78 1.362 3.253c0.084 1.473 1.279 2.168 1.084 3.586s-0.084 3.669 0.557 4.281c0.639 0.612 1.278 1.556 1.25 2.029s0.529 3.308 0.723 3.726c0.194 0.417-0.056 0.834-0.056 0.834s-0.389 0.639-0.583 0.611c-0.474 0.306-0.612 0-0.667-0.028-0.445-0.056-0.306-0.445-0.195-0.583 0.112-0.139 0.139-2.891-0.361-3.587-0.5-0.694-3.808-4.419-3.78-5.309-0.779 1.168-1.446 0.807-1.556 1.974s0.111 2.641 0.389 3.085c0.279 0.445-1.112 2.641-1.195 3.475s-0.473 1.363-0.834 1.223c-0.362-0.139-1.502 0.194-1.419-0.139-0.444 0.055-0.222-0.167-0.333-0.167-0.333-0.222 0.055-0.472 0.445-0.611s0.639 0.11 0.833-0.278c0.194-0.39 0.862-2.669 0.612-3.669-0.25-1.001-1.557-3.753-1.557-4.726s0.028-1.919-0.556-2.030c-0.584-0.111-1.361 0-2.278 0.417s-3.058 1.279-4.337 1.251c-0.195 0.639-0.167 1.807-0.167 2.196s-0.028 4.226-0.194 4.42c-0.167 0.194-0.778 1.973-1.056 2.001s-0.696-0.139-0.779-0.083c-0.084 0.055-0.918 0.333-0.945-0.028-0.361 0.056-0.417-0.084-0.361-0.195 0.055-0.11 0.138-0.472 0.361-0.61 0.222-0.139 0.862-0.195 0.862-0.195s0.306-0.889 0.389-1.223c0.084-0.333-0.139-4.809-0.418-4.726 0 0-1.806 1.668-2.251 1.974-0.446 0.306-1.419 1.001-1.419 1.335s0.334 1.167 0.474 1.389c0.138 0.224 0.111 0.667-0.028 0.723-0.14 0.055-0.251 0.862-0.474 0.862-0.111 0.251-0.611 0.306-0.611 0.112-0.223 0.139-0.334 0-0.388-0.084-0.279-0.084-0.279-0.222-0.168-0.472 0.112-0.25 0.306-0.556 0.221-0.916-0.083-0.363-0.695-2.030-0.36-2.419 0.333-0.389 2.557-3.28 2.529-3.752-0.027-0.474-0.584-1.196-1.168-2.308s-1.946-1.89-2.53-3.336c-0.584-1.445-0.723-1.917-1.723-1.75s-1.864 0.861-2.197 0.722c-0.333-0.139-0.167-0.361-0.167-0.361s-0.527 0.445-0.75 0.417c-0.223-0.028-0.195-0.306 0.166-0.639s1.307-1.001 1.168-1.111c-0.139-0.111-1.029 0.555-1.251 0.583s-0.779 0.028-0.779-0.389c-0.334-0.112-0.501-0.862-0.055-0.917 0.166-0.445 1.584-1.196 1.723-1.668s0-1.362 0.693-1.835c0.696-0.472 1.197-0.556 1.197-0.556z"></path>
</symbol>
<symbol id="19" viewBox="0 0 23 32">
<path d="M22.465 25.285c-0.136-0.363-0.635-3.082-1.088-3.807s-1.904-2.312-1.677-3.354c0.227-1.042-0.363-4.713-1.859-6.073-0.181-0.847-0.578-1.612-1.102-2.262 1.044-1.145 1.912-3.377 0.876-4.672-1.269-1.587-3.354-1.632-4.351-0.363-0.62 0.789-0.539 1.894-0.227 2.791-1.596-0.419-3.508-0.689-3.717-0.933-0.27-0.317-0.997-2.039-0.997-3.263s0.228-3.399-0.453-3.263c-0.68 0.136-1.269 2.039-1.812 2.039-0.454 0-1.904 0.181-1.904 0.181-0.317-0.317-0.952-2.221-1.405-2.13s-0.952 2.357-0.725 2.81c0.226 0.453-0.544 0.997-0.771 1.224s-0.408 0.861-0.226 1.042c0.136 0.363-0.046 1.496-0.046 1.496s-0.815 0.726-0.77 1.043c-0.362 0.226 0.046 0.952 0.544 1.133s0.861 0.453 0.996 0.453c0.136 0-0.045 0.589-0.226 0.68-0.181 0.091-1.134 1.042-1.315 1.042-0.182 0-0.317 1.088 0.273 1.043 0.588-0.045 1.133-0.725 1.133-0.725s0.544 0.544 1.132 0.407c-0.362 0.906-0.726 3.263-0.091 4.85s0.59 1.767 0.544 2.537c-0.045 0.771-0.226 2.312-0.045 2.811s0.363 6.253 0.045 6.798c-0.317 0.544-0.544 1.496-0.725 1.632s-0.907 0.816-0.453 1.178c0.226 0.454 0.771 0.273 0.906 0.137 0.5 0.045 0.907-0.046 1.269-0.272s0.499-1.768 0.68-1.995c0.182-0.226 0.091-1.224 0.091-1.405s0-2.31 0-2.31 0.454-4.85 0.454-5.485c0-0.635 0.271-2.131 0.271-2.131s1.724 0.953 2.539 0.907c0.454 0.816 0.635 1.314 0.545 1.541-0.091 0.228-0.317 1.043-0.317 1.359 0 0.318-0.953 3.219-1.224 3.536-0.272 0.317-0.453 0.77-0.408 0.997s-0.499 3.035-0.817 3.308c-0.318 0.272-0.408 1.043 0 0.997 0.273 0.68 0.998 0.227 0.998 0.227 0.498 0.090 0.861-0.272 0.861-0.272 0.408-0.182 0.59-0.725 0.544-0.907s0.091-2.13 0.136-2.357c0.046-0.226 0.363-1.178 0.318-1.405s1.313-3.942 1.586-4.215c0.272-0.272 1.178 0.045 1.405 0.498s-0.045 2.719-0.18 3.127c-0.137 0.408-0.227 0.589-0.227 0.861s-0.271 1.768-0.589 2.040c-0.317 0.272 0 0.726 0.362 0.59 0.454 0.136 0.769-0.091 0.906-0.272 0.453-0.136 0.815-0.815 0.77-0.997s0.408-0.906 0.363-1.043c-0.046-0.136 0.181-3.037 0.271-3.716s0.544-1.858-0.136-2.221c-0.68-0.362-1.858-1.178-1.677-1.496s1.495-1.722 1.903-2.040c0.408-0.317 1.677-0.724 1.768-0.227 0 0 2.266 2.946 2.447 3.399 0.182 0.453 1.859 1.586 2.131 1.858s0.68 3.037 0.68 3.173c0 0.135 0.181 0.363 0.181 0.363s0 0.633 0 1.042c0 0.408 0.544 0.408 0.544 0.408s0.181 0.181 0.589-0.046c0.408 0.045 0.182-0.181 0.544-0.453 0.316 0 0.089-1.088-0.046-1.45zM13.972 7.826c0.329-1.179 0.892-1.82 1.83-1.712 0.832 0.096 0.376 1.615-0.187 2.596-0.401-0.302-0.829-0.551-1.263-0.737-0.118-0.051-0.246-0.099-0.38-0.146z"></path>
</symbol>
<symbol id="20" viewBox="0 0 24 32">
<path fill="#040000" style="fill: var(--color1, #040000)" d="M12.504 31.92c-0.528 0-1.060-0.138-1.497-0.387-0.876-0.501-0.918-1.379-0.847-1.972-0.051 0.005-0.103 0.007-0.156 0.007-0.359 0-0.668-0.12-0.895-0.347-0.497-0.497-0.45-0.83-0.321-1.282-0.005-0.2-0.373-0.883-0.744-1.307-0.021-0.025-0.042-0.051-0.062-0.077 0.016 0.246 0.035 0.493 0.056 0.724 0.015 0.172 0.061 0.446 0.11 0.736 0.111 0.664 0.236 1.418 0.198 1.948-0.054 0.754-0.816 1.136-2.267 1.136-0.477 0-1.035-0.040-1.656-0.12-0.709-0.091-1.196-0.352-1.446-0.774-0.379-0.641-0.076-1.415 0.087-1.831 0.028-0.070 0.061-0.157 0.069-0.188 0.038-0.151-0.064-0.513-0.171-0.897-0.078-0.279-0.167-0.595-0.242-0.957-0.078-0.37-0.389-1.148-0.875-2.191-0.3-0.643-0.579-1.2-0.655-1.35-1.809-2.261-1.060-6.35-0.394-8.253-0.437-1.853-0.038-3.736 0.38-5.002 0.359-1.089 0.827-2.014 1.152-2.523-0.275-0.333-0.666-0.936-0.743-1.738-0.132-1.381 0.536-2.987 2.066-3.384 0.401-0.104 0.775-0.157 1.11-0.157 0.654 0 1.172 0.202 1.493 0.569 0.974-0.693 3.165-2.224 5.568-2.224 0.068 0 0.136 0.002 0.204 0.005 2.101 0.077 3.080 0.528 4.116 1.005 0.207 0.095 0.421 0.194 0.644 0.289 0.194 0.082 0.373 0.154 0.548 0.218 0.343 0.124 0.737 0.32 1.14 0.567 0.803 0.491 2.336 1.618 3.572 3.643 1.284 2.104 1.916 4.604 1.877 7.427-0.075 5.402-1.221 8.245-1.836 9.772-0.148 0.366-0.264 0.655-0.33 0.885-0.037 0.13-0.056 0.233-0.056 0.309 0 0.241-0.004 0.512-0.007 0.798-0.015 1.019-0.032 2.29 0.116 2.881 0.251 1.005-0.379 1.622-0.792 1.828-0.264 0.132-1.324 0.216-1.937 0.216-0.761 0-1.228-0.093-1.493-0.304-0.006 0-0.013 0-0.020 0-0.167 0-0.471-0.066-0.636-0.508-0.155-0.414 0.075-0.758 0.299-1.092 0.181-0.27 0.386-0.576 0.486-1 0.268-1.133-0.244-2-0.407-2.238-0.154-0.226-0.304-0.36-0.405-0.428-0.001 0.023-0.001 0.050-0 0.081 0.044 1.363-0.809 2.766-1.267 3.519-0.080 0.131-0.17 0.279-0.192 0.329-0.068 0.207-0.196 0.777-0.265 1.097 0.134 0.388 0.181 1.020-0.306 1.507-0.854 0.855-1.761 1.034-2.371 1.034v0z"></path>
<path fill="#fff" style="fill: var(--color2, #fff)" d="M5.042 6.002c-0.786 0.524-1.353 0.857-1.721 1.178 0.124 0.062 0.030 0.022-0.008 0.006-0.009 0.008-0.017 0.015-0.025 0.022-0.125 0.292-1.212 2.941-1.115 6.275 0.103 3.536 3.279 4.868 3.74 4.919s0.974 0.717 1.23 0.82c0.256 0.102 0.769 1.024 2.562 1.076s1.999-1.179 1.999-1.179 0 0 0.512-0.409c5.483-0.462 4.765-6.354 4.765-6.354s1.794 0.205 2.255-3.074c0.391-2.787-1.917-6.461-2.62-7.502-1.322-0.564-2.169-1.17-4.605-1.26-2.684-0.099-5.222 1.97-5.84 2.376 0.097 0.221 0.307 0.7 0.46 1.007 0.205 0.41-0.512 1.383-1.588 2.1z"></path>
<path fill="#fff" style="fill: var(--color2, #fff)" d="M18.248 2.535c0.199 0.259 0.532 0.75 1.091 1.674 1.332 2.203 2.92 4.253 3.126 8.66 0.146 3.137-0.717 5.687-0.769 7.225-0.048 1.445-0.476 2.987-0.356 3.677 0.373-1.297 2.058-3.939 2.149-10.543 0.086-6.191-3.173-9.428-5.241-10.692z"></path>
<path fill="#fff" style="fill: var(--color2, #fff)" d="M1.302 14.918c-0.024-0.111-0.050-0.204-0.078-0.285-0.755 2.117-1.287 5.944 0.333 7.92 0 0 0.325 0.637 0.683 1.404-0.42-1.696-0.631-3.077-0.631-3.966 0-1.076-0.153-4.355-0.307-5.072z"></path>
<path fill="#040000" style="fill: var(--color1, #040000)" d="M13.138 5.951c-0.564-0.358-1.332-1.588-0.769-2.613s2.306-1.229 3.433-0.563c1.127 0.666 1.486 3.176 0.666 3.792s-0.461 1.127-0.717 1.435c-0.256 0.307-0.564-0.82-1.179-1.127s-1.435-0.923-1.435-0.923z"></path>
<path fill="#040000" style="fill: var(--color1, #040000)" d="M10.884 12.817c-0.564-0.512-0.666-2.203 0.153-2.357s1.178 0.359 1.793 1.23c0.615 0.871 1.743 1.947 0.974 2.665s-1.794 0.768-2.050 0.256c-0.256-0.512-0.871-1.793-0.871-1.793z"></path>
<path fill="#040000" style="fill: var(--color1, #040000)" d="M6.938 10.716c0.617-0.177 1.025 1.384 0.41 1.947s-1.179 2.050-1.486 2.306c-0.308 0.256-1.333-0.257-1.23-1.025s0.154-1.178 0.872-1.793c0.717-0.615 1.076-1.332 1.434-1.435z"></path>
<path fill="#040000" style="fill: var(--color1, #040000)" d="M8.68 17.583c-0.256-0.153-1.127-0.359-1.23-0.82s0.666-0.564 1.537-0.564c0.871 0 1.691-0.103 1.64 0.205s-1.076 1.025-1.23 1.23c-0.154 0.205-0.205 0.563 0.051 0.717s1.384-0.051 1.691-0.359c0.307-0.307 0.462-0.666 0.615-0.718s-0.153 0.461-0.308 0.82c-0.153 0.359-1.024 0.82-1.998 0.871s-2.357-0.204-2.101-0.922c0.768 0.307 1.024 0.307 1.332 0.359s0-0.82 0-0.82z"></path>
<path fill="#040000" style="fill: var(--color1, #040000)" d="M5.042 6.002c1.076-0.717 1.793-1.691 1.588-2.1-0.153-0.307-0.364-0.785-0.46-1.007-0.020 0.013-0.037 0.023-0.052 0.033-0.205-0.615-0.973-0.974-2.357-0.615s-1.844 1.845-1.742 2.921c0.103 1.076 0.871 1.742 0.871 1.742 0.235 0.11 0.364 0.171 0.431 0.204 0.369-0.321 0.935-0.654 1.721-1.178z"></path>
<path fill="#040000" style="fill: var(--color1, #040000)" d="M21.695 20.094c0.052-1.538 0.915-4.088 0.769-7.225-0.205-4.407-1.794-6.457-3.126-8.66-0.559-0.924-0.892-1.415-1.091-1.674-0.414-0.252-0.78-0.427-1.062-0.529-0.202-0.073-0.39-0.15-0.57-0.226 0.703 1.041 3.011 4.715 2.62 7.502-0.461 3.279-2.255 3.074-2.255 3.074s0.718 5.893-4.765 6.354c-0.512 0.409-0.512 0.409-0.512 0.409s-0.205 1.23-1.999 1.179c-1.793-0.051-2.306-0.974-2.562-1.076s-0.769-0.769-1.23-0.82c-0.461-0.051-3.638-1.383-3.74-4.919-0.097-3.334 0.99-5.983 1.115-6.275-0.121 0.109-0.219 0.217-0.295 0.331 0.076-0.114 0.174-0.222 0.295-0.331 0.008-0.018 0.012-0.028 0.012-0.028s0.006 0.002 0.014 0.005c0.002-0.002 0.005-0.005 0.008-0.006-0.067-0.033-0.196-0.095-0.431-0.204-0.41 0.461-2.511 4.202-1.639 7.584-0.009 0.024-0.017 0.049-0.026 0.074 0.027 0.081 0.054 0.174 0.078 0.285 0.154 0.717 0.307 3.997 0.307 5.072 0 0.89 0.211 2.27 0.631 3.966 0.381 0.818 0.801 1.783 0.906 2.286 0.205 0.973 0.512 1.639 0.41 2.049s-1.076 1.999 0.922 2.255c2.011 0.258 3.382 0.103 3.433-0.615s-0.257-2.050-0.308-2.613c-0.051-0.564-0.26-3.338 0.103-2.614 0.205 0.41 0.307 1.23 0.666 1.64s0.942 1.338 0.839 1.697c-0.103 0.359-0.153 0.512 0.205 0.871s0.974 0.205 1.23 0.051c0.256-0.153-0.63 1.502 0.576 2.191 0.807 0.461 2.191 0.576 3.343-0.576 0.486-0.486 0.16-1.159 0.16-1.159s0.205-0.974 0.307-1.281c0.103-0.307 1.486-2.101 1.435-3.69s2.229 0.32 1.672 2.671c-0.237 0.999-0.955 1.428-0.801 1.838s0.359 0.103 0.461 0.256c0.318 0.476 2.819 0.205 3.023 0.103s0.768-0.513 0.563-1.333c-0.205-0.819-0.122-2.658-0.122-3.785 0-0.125 0.026-0.266 0.074-0.429-0.12-0.69 0.308-2.232 0.356-3.677z"></path>
</symbol>
<symbol id="21" viewBox="0 0 32 32">
<path d="M2.644 3.677c-0.571 0.519-0.467 1.711-1.452 2.178s-1.452 1.141-0.83 1.452c0.156 0.311 0.415 0.466 1.141 0.311s2.904-0.83 3.319-0.934c0.415-0.103 1.555 0.052 2.437-0.259s1.297 0.622 0.726 2.282c-0.571 1.66-1.504 6.015-1.297 8.608s2.489 6.43 6.12 6.223c1.089 1.089 2.489 2.8 3.578 3.163s3.267 0.467 3.163-0.622c1.141 0.829 4.46 0.622 6.897-1.815s2.178-4.667 2.8-5.134c0.623-0.467 2.955-3.63 2.645-5.549-0.156-0.259-0.415 0.052-0.622 0.259-0.156-0.207-0.363-0.207-0.571 0s-0.259-0.052-0.726 0.156c-0.467 0.207-2.541 1.348-3.838 1.192s-3.371-1.141-5.652-1.556c-2.743-0.499-5.705 0.311-6.586-0.415-1.251-1.030-2.541-2.8-2.023-5.652s-0.778-6.897-3.475-6.793c-1.763-0.985-4.081-0.033-4.512 0.311-1.037 0.83-1.244 2.593-1.244 2.593z"></path>
<path d="M16.697 26.442c0.039 0.159 0.415 2.23 0 2.541s-3.163 0.467-3.578 0.467c-0.415 0-0.674 0.363-0.415 0.415 0.207 0.052-1.037 0.415-1.607 0.363s-0.311 0.415 0.155 0.363c0.467-0.052 2.334 0.207 1.867 0.519s-0.519 0.519-0.208 0.57c0.311 0.052 3.786-1.555 4.304-1.919s0.156-2.074 0.156-3.267c0-1.193-0.778-0.467-0.674-0.052z"></path>
<path d="M23.491 25.561c0 0 0.363 1.815 0.57 2.074s-0.622 1.141-1.141 1.297c-0.519 0.155-1.608 0.778-1.556 0.519s0.363-0.674-0.518-0.726c-0.363-0.052-0.415-0.362 0.052-0.415s1.504-0.103 1.193-0.311c-0.311-0.207-0.052-0.311 0.363-0.259s1.141 0.363 0.985-0.415c-0.155-0.778-0.363-1.193-0.466-1.504s0.26-0.467 0.519-0.259z"></path>
</symbol>
<symbol id="22" viewBox="0 0 32 32">
<path d="M0.657 11.4c-0.036-0.073-0.183-0.548 0.256-0.585 0.33-0.028 1.316-0.548 1.754-0.987-0.584 0.95 0.475 5.079 3.216 7.638 0.33 0.308 0.676 0.58 1.029 0.821 0.391 1.005 1.001 2.479 1.657 3.728-0.72-0.23-1.429-0.476-1.93-0.668-1.478-0.569-1.478-0.114-2.217 0.17s-1.536 1.535-1.933 1.99c-0.399 0.455-0.171 0.796 0 1.080 0.17 0.285 0.113-0.341 0.227-0.625s1.25-1.478 1.25-1.478-0.397 0.625-0.569 1.193c-0.17 0.569 0.114 0.853 0.228 1.024s0.113-0.341 0.057-0.569c-0.057-0.227 0.512-1.308 0.739-1.478s0.568-0.626 0.853-0.626c0.284 0-0.284 1.251-0.284 1.706s0.228 0.852 0.228 0.852 0.113-0.284 0.113-0.568c0-0.284 0.398-1.478 0.682-1.877 0.44-0.156 1.75 0.173 2.929 0.547 0.236 0.402 0.473 0.76 0.705 1.043 0.251 0.378 0.112 0.732 0.329 0.822 0.219 0.987-0.439 4.385-0.549 4.824s-1.425 0.383-1.919 0.493c-0.493 0.11-0.822 0.494-0.603 0.439s0.712-0.109 0.712-0.109l1.59-0.165c0 0-1.316 0.494-1.59 0.713s-0.219 0.438-0.219 0.438c0.439-0.22 1.809-0.712 2.083-0.822s-0.603 0.932-0.767 1.097c-0.165 0.164-0.274 0.548-0.11 0.438s0.438-0.329 0.438-0.329 0.494-0.878 0.878-1.042c0.384-0.165 0.987 0.219 1.206 0.164s0.658 0.22 0.658 0.22-0.055-0.549-0.658-0.603c-0.603-0.055-1.151-0.439-1.096-0.767 0.055-0.33 0.548-4.55 0.713-4.824s0.165-0.549 0.165-0.549-0.327-0.423-0.76-1.070c0.413 0.152 0.731 0.281 0.869 0.349 0.569 0.284 0.91 0.171 1.194-0.227s-0.569-2.103-1.251-3.070c-0.065-0.092-0.124-0.181-0.178-0.27 1.055 0.218 1.831 0.229 1.971 0.214 0.329-0.037 1.060-0.073 1.352 0.11s1.133 0.402 1.827 0.256c0.731 0.511 1.169-0.11 1.169-0.11s0.731 0.549 0.878 0.146c0.146-0.402-5.153-3.581-5.153-3.581l0.658-0.877c0 0 0.219 0.11 0.658 0.183 0.438 0.073 0.328-0.695 0.328-0.695s0.621-0.146 1.024-0.146c0.402 0 0.329-0.877 0.767-0.914s0.402-0.731 0.402-0.731 0.11-0.439 0.95-0.439c0.841 0 0.512-0.913 0.512-0.913s0.329 0.036 0.84 0.073c0.512 0.037 0.219-0.767 0.219-0.767s0.366-0.037 0.658 0.11c0.292 0.146 0.365-0.512 0.877-0.622 0.767 0.073 0.658-0.84 0.658-0.84s1.718 0.292 2.229 0.329c0.511 0.036-0.219-0.767-0.219-0.767s0.402-0.037 0.877 0.073c0.475 0.11 0.293-0.694 0.293-0.694s0.767 0.292 1.462 0.512c0.694 0.219 0.183-0.731 0.183-0.731s0.803 0.366 1.717 0.475c0.914 0.11-2.229-2.887-2.229-2.887s3.545 1.571 4.604 1.9c0.94 0.292-0.019-1.4-2.262-2.577 1.105 0.525 2.852 1.357 3.285 1.407 0.59 0.070-1.029-1.839-1.38-2.061 0.266 0.081 1.241 0.343 1.563 0.489 0.402 0.183-0.146-0.986-2.010-1.681 0.109 0.037 0.511-0.183-0.073-0.695-3.837-2.375-15.861-1.497-16.335-0.438-0.35 0.781-2.108 4.118-4.090 5.838 0.080-0.192 0.166-0.373 0.252-0.502 0.22-0.329 0.11-1.645 0.439-1.863s0.548-0.33 0.548-0.33 0.11-0.11 0.329-0.438c0.219-0.329 0.877-1.425 0.877-1.425 0.549-0.658 0.11-1.096 0.11-1.096 0.658-0.768 0.11-1.316 0.11-1.316 0.767-0.987 1.096-2.193 0.109-1.645s-3.508 3.618-4.275 4.385c-0.45 0.45-1.051 3.086-1.471 5.19-1.566-0.363-0.449-1.999-0.064-2.705 0.439-0.804 0.183-1.754 0.183-1.754l0.183-0.219-0.255-0.037c0 0 0.329-0.402 0.658-0.584-0.329-0.183-0.951 0.146-0.951 0.146s0.256-0.292 0.439-0.402c0.183-0.109-0.658 0.073-0.95 0.219-2.595-1.352-3.654 1.023-3.654 1.023s-0.256 0.402-0.256 1.133c0 0.695-0.767 2.448-1.169 3.325s0.512 1.535 0.475 1.462zM27.114 5.553c0.025 0.007 0.081 0.030 0.16 0.065-0.053-0.022-0.106-0.044-0.16-0.065zM8.112 18.984c0.615 0.299 1.225 0.521 1.792 0.684 0.776 1.34 1.51 2.904 1.51 3.044 0 0.11-0.779-0.075-1.749-0.36-0.62-1.003-1.291-2.264-1.553-3.369z"></path>
</symbol>
<symbol id="23" viewBox="0 0 20 32">
<path d="M0.060 19.455c0.102-2.17 1.066-4.098 1.622-5.043-0.122-4.024 1.414-6.052 1.878-6.895 0.527-0.959 0.863-1.534 0.623-2.157s-0.048-1.534 0-1.87-0.383-1.199-0.671-1.774c-0.288-0.575-1.246-1.294-1.534-1.486s0.24-0.24 1.055 0.096c0.816 0.335 1.774 1.822 2.254 1.774s2.146 0.103 2.828 1.055c1.582 2.205 0.048 3.787-0.048 4.506s0.096 0.863 0.48 1.677c0.384 0.816 2.301 2.494 3.548 3.261s3.356 2.493 5.082 4.554c1.726 2.062 2.637 5.705 2.397 6.233s-0.335-0.24-1.055-1.582c-0.719-1.342-2.253-2.733-3.404-3.788-1.15-1.054-2.396-1.342-2.396-1.342s0.143 0.719 0.959 2.109c0.815 1.39 0.911 5.465 0.911 5.465 0.527 1.486-0.48 2.397-0.623 2.541s-0.24 0.336-0.192 0.48c0.048 0.144 0.192 0.48 0.24 0.815s0.287 1.103 0.239 1.343c-0.047 0.239-0.623-0.48-0.767-0.528s-0.24 0.911-0.575 0.816c-0.336-0.097-0.097-0.72-0.24-0.911s-0.288 0.144-0.48 0.192c-0.192 0.048 0.336-1.39 0.48-1.63s0.096-0.958-0.048-0.911c-0.144 0.049-2.398 0.911-3.117 0.768-0.719-0.145-1.246-0.145-1.246-0.145 0 0.576-0.623 0.816-0.623 0.816s0.335 1.342 0.383 1.581c0.048 0.241 0.096 0.72-0.479 1.055s-1.294 1.39-1.534 1.39c-0.24 0-0.048-0.528-0.048-0.72s-1.774 0.816-1.966 0.671c-0.191-0.143 0.384-0.91 0.384-0.91s-0.623 0.048-0.767-0.144c-0.144-0.192 2.253-1.294 2.445-1.63s-0.096-1.199-0.096-1.199c-0.576-0.335-0.671-2.348-0.863-2.636-0.149-0.224-1.607-2.484-2.585-5.942-0.347 0.425-0.764 0.99-0.963 1.388-0.336 0.671 0.24 2.253-0.048 2.445s-1.581-0.719-1.438-3.787z"></path>
</symbol>
<symbol id="24" viewBox="0 0 24 32">
<path d="M0.224 0.147c0.302 0.165 1.608 1.178 2.927 2.23s2.533 1.459 2.533 1.459c0.83-0.41 1.541-0.363 2.046-0.362 0.569-1.6 2.118-3.316 2.499-3.384s0.31 0.269 0.31 0.269 0.004 0.231-0.052 0.331c-0.055 0.1-0.115 0.329-0.115 0.329s0.045 0.303 0.035 0.412c-0.011 0.109 0.041 0.432 0.041 0.432s-0.005 0.128-0.010 0.256c-0.005 0.128 0.061 0.573 0.061 0.573s0.056 0.195 0.091 0.311c0.034 0.117 0.174 0.456 0.174 0.456s0.12 0.197 0.166 0.353c0.045 0.155 0.194 0.45 0.275 0.511s0.045 0.156 0.087 0.228c0.042 0.072 0.291 0.57 0.356 0.572s0.053 0.111 0.207 0.277c0.154 0.167 0.696 0.578 0.858 0.7s0.995 1.104 1.118 1.237c0.123 0.133 0.499 0.699 0.633 0.871s0.336 0.577 0.509 0.738c0.174 0.16 0.734 0.926 0.868 1.098s0.343 0.745 0.416 0.85c0.072 0.105 0.375 0.566 0.521 0.777s0.263 0.472 0.347 0.616c0.085 0.144 0.416 0.85 0.545 1.15s0.265 0.767 0.333 1c0.068 0.233 0.889 3.498 0.984 3.681s0.759 0.581 0.759 0.581-0.275 0.797-0.389 1.421c-0.114 0.624-0.065 2.973 0.166 3.623s1.283 0.64 2.121 1.198c0.838 0.559 1.431 1.441 1.645 1.886s0.2 1.123-0.025 0.64c-0.225-0.483-0.923-0.998-1.742-1.351s-1.949-0.32-2.161-0.173c-0.211 0.145-1.099 0.572-1.216 0.606s-1.135 1.469-1.788 2.419c-0.653 0.948-1.289 3.116-1.423 2.944s0.166-1.609 0.535-2.517c0.369-0.91 2.050-3.55 2.19-4.518s-0.662-2.425-0.819-2.674c-0.156-0.25-0.423-0.004-0.423-0.004s-0.037-0.707-0.115-0.979c-0.080-0.272-1.261-1.87-1.557-2.164s-0.53-0.227-0.873 0.042c-0.344 0.269-0.5 1.623-0.61 1.823s0 0-0.159-0.84c-0.16-0.84 0.094-2.728 0.059-2.844s-1.679-2.297-3.511-3.664c-1.832-1.367-3.338-3.503-3.338-3.503s-1.114 1.251-1.351 1.742c-0.237 0.491 0.128 1.313 0 1.308s-0.418-0.132-0.767-1.043c-0.349-0.911 1.239-3.145 1.239-3.145-0.79-1.121-1.785-4.545-1.964-4.873s-0.040-0.284-0.281-0.678c-0.242-0.394-2.215-2.395-2.7-2.761s-0.565-0.637-0.264-0.472z"></path>
</symbol>
<symbol id="25" viewBox="0 0 32 32">
<path d="M13.441 18.928l-0.738-0.152c-0.046 0.066-0.196 0.564-0.381 1.091-0.225 0.638-0.487 1.318-0.487 1.318s0.108 0.347 0.217 0.762c0.108 0.415 0.152 1.429 0.022 1.82s-0.716 1.085-0.716 1.15c0 0.065 0.868 0.065 1.042 0s0.239-0.26 0.391-0.499c0.152-0.239 0.195 0.065 0.443 0s0.099-0.152 0.208-0.564c0.108-0.412-0.282-1.714-0.412-2.3s0.369-2.322 0.412-2.626z"></path>
<path d="M27.532 19.257c-0.034-0.273-1.194-1.486-1.477-1.691s-0.351-0.188-0.505-0.12c-0.154 0.068-0.615 0.241-0.615 0.241-0.085 0.511 0.666 1.091 0.7 1.638s-0.273 2.733-0.444 3.16c-0.171 0.427-0.598 0.974-0.598 1.264s-0.12 0.547 0.29 0.512c0.41-0.034 0.603 0.068 0.754-0.068s0.373-0.649 0.424-0.769c0.051-0.12 0 0.137 0.256 0.034s0.29-0.478 0.29-0.478l0.068-1.208c0 0 0.888-2.242 0.854-2.516z"></path>
<path d="M31.528 7.137c-0.075 0.096-0.184 0.206-0.31 0.311-0.035-0.35-0.168-0.709-0.482-0.955-0.338-0.265-1.221-0.28-1.486 0.486-0.231 0.668 0.29 1.253 0.802 1.31 0.185 0.021 0.367 0.010 0.539-0.022-0.269 0.342-0.784 0.536-1.259 0.483-0.68-0.848-1.594-1.528-2.744-1.899-3.606-1.162-8.894 0.32-10.657 0.962s-5.98 1.299-7.622 0.837-3.666 0.693-3.666 0.693c-0.364-0.232-1.275-0.455-2.050 0s-1.412 1.503-1.275 1.731c0.137 0.228 1.265 0.228 1.794 0.364s1.394-0.683 1.531-0.82c0.137-0.137 0.397-0.045-0.013 0.32s-1.004 0.846-1.431 0.755c-0.428-0.091-0.56 0.337-0.833 0.656s-0.991 2.090-1.401 2.090c-0.41 0-1.002 0.228-0.865 0.501s1.321 1.457 1.685 1.549 1.649-0.638 1.781-0.865c0.132-0.228 0.338-0.040 0.135 0.27s-0.727 0.516-0.822 0.604c-0.095 0.087 0.024 0.242 0.238 0.194s0.363 0.108 0.524 0.095c0.87-0.067 4.557 1.123 5.438 1.283 0 0 0.305 0.166 0.326 0.125s-0.062-0.575-0.123-0.985c-0.062-0.41 0.082-0.554 0.205-0.246s0.205 1.56 0.226 1.929 0.062 3.194 0.062 3.194-0.103 1.355-0.267 1.786c-0.164 0.431-0.965 1.252-0.965 1.252s-0.164 0.39-0.082 0.452c0.082 0.062 1.19-0.041 1.478-0.103s0.39-0.217 0.431-0.452c0.041-0.234 0.226-0.41 0.349-0.718s0.226-1.252 0.328-1.806c0.103-0.554 0.657-1.552 0.903-2.208s0.78-2.586 0.841-2.955c0.062-0.369 0.246-0.452 0.308-0.164s-0.294 1.462-0.294 1.462 4.247 0.761 6.572 0.28c2.326-0.481 4.926-1.002 5.927-1.603 0.064-0.038 0.127-0.067 0.19-0.087-0.254-0.169-0.512-0.35-0.629-0.459-0.267-0.249-0.338-0.695 0.125-0.419s1.391 1.075 1.535 1.216c0.448 0.407 0.784 1.016 0.903 1.15 0.212 0.24 0.801 1.362 0.921 1.803s0.441 2.321 0.080 3.122c-0.361 0.801-1.002 1.803-1.002 1.923s1.082 0.16 1.442 0c0.361-0.16 0.361-0.304 0.561-0.601s0.24-0.881 0.2-1.482c-0.040-0.601 0.12-1.921 0.401-2.521s0.080-1.282-0.12-1.643-0.361-1.402 0.601-4.247c0.592-1.75 0.334-4.016-0.792-5.771 0.932-0.090 1.331-0.664 1.441-1.107 0.010-0.038 0.018-0.079 0.026-0.121 0.389-0.193 0.661-0.456 0.71-0.585 0.088-0.235-0.121-0.666-0.371-0.342zM30.31 7.877c-0.324-0.059-0.729-0.231-0.662-0.677 0.044-0.294 0.783-0.706 1.089 0.28 0.029 0.094 0.042 0.184 0.042 0.271-0.176 0.094-0.346 0.149-0.469 0.127z"></path>
</symbol>
<symbol id="26" viewBox="0 0 26 32">
<path d="M0.698 5.337c-0.102-0.168-0.236-0.673 0-0.977s0.505-1.314 1.314-1.887c0.809-0.574 1.28-2.393 3.875-2.393s3.673 2.797 4.078 3.606c0.404 0.809 1.988 2.123 2.763 2.359s2.494 1.011 3.134 1.921c0.641 0.91 2.157 2.191 2.764 2.393s2.629 0.135 4.752 1.685c2.124 1.551 3.168 3.91 2.326 6.504s-2.359 4.617-2.258 4.955c0.101 0.337 0.068 6.168 0 6.64s-0.404 1.584-0.876 1.719c-0.472 0.134-0.641 0.033-0.539-0.27-0.303 0.202-0.876 0.371-0.843-0.134-0.303 0.236-0.809 0.168-0.775-0.135-0.304 0.101-0.405 0.101-0.472-0.1-0.539 0.067-1.112 0.168-1.045-0.236s0.337-0.573 0.337-0.573l0.236-0.573c0 0-0.607 0.034-1.078 0.168s-0.371 0.168-0.843 0.168-0.674-0.1-0.371-0.539c-0.304 0.135-0.708-0.033-0.371-0.236-0.303-0.101-0.337-0.034-0.27-0.337-0.236 0-0.539-0.134-0.371-0.371s0.236-0.741 0.202-0.944c-0.034-0.202 0-1.045-0.27-1.517s-0.236-2.157-0.068-2.528c0.168-0.371 0.539-1.314 0.236-1.517s-1.786-0.707-2.764-1.281c-0.977-0.573-0.505-0.236-0.438-0.034 0.068 0.203 0.27 3.27 0.101 4.281s-1.55 5.089-1.55 5.325c0 0.236 0.101 1.112-0.404 1.079-0.337 0.202-1.045 0.741-1.483-0.101-0.202 0.236-1.011 0.438-1.18-0.337-0.303 0.168-0.842 0.168-0.944-0.405s0.303-0.741 0.303-0.741 0.101-0.472 0.269-1.247c0.168-0.775 0.304-1.449 0.236-1.652s-1.449-3.404-1.955-4.145c-0.505-0.741-0.708-3.505-0.607-4.786s-2.73-2.798-2.393-8.055c0 0-0.539-0.168-0.944-0.337-0.404-0.169-0.977 0-1.752-0.338-0.775-0.336-0.607-0.741-0.607-0.741s-0.236-0.135 0-0.269c-0.101-0.202-0.067-0.54 0.068-0.674s0.404-0.303 0.404-0.303-0.202-0.573 0.034-0.742c0.236-0.168 0.337-0.236 0.337-0.471s-0.303-0.877-0.303-0.877z"></path>
</symbol>
</defs>
</svg>
