<!--?xml version="1.0" encoding="utf-8"?-->
<!-- Generator: Adobe Illustrator 22.1.0, SVG Export Plug-In . SVG Version: 6.00 Build 0)  -->
<svg version="1.1" id="_x37_" xmlns="http://www.w3.org/2000/svg" xmlns:xlink="http://www.w3.org/1999/xlink" x="0px" y="0px" viewBox="0 0 568.205 800" style="width: 356px;" xml:space="preserve">
<style type="text/css">
	.st0{fill:#040000;}
	@media (prefers-color-scheme: dark) {
      .st0 {
        fill: white;
      }
    }
</style>
<g>
	<path class="st0" d="M561.628,632.133c-3.39-9.074-15.872-77.048-27.19-95.176c-11.317-18.145-47.59-57.791-41.914-83.854
		c5.668-26.052-9.083-117.833-46.477-151.824c-4.52-21.164-14.44-40.301-27.551-56.544c26.11-28.63,47.806-84.423,21.902-116.806
		c-31.727-39.68-83.855-40.789-108.771-9.075c-15.51,19.732-13.469,47.354-5.663,69.764c-39.9-10.477-87.697-17.217-92.934-23.316
		c-6.762-7.918-24.934-50.984-24.934-81.572c0-30.592,5.689-84.972-11.313-81.577c-16.997,3.408-31.722,50.985-45.3,50.985
		c-11.344,0-47.603,4.529-47.603,4.529C95.948,49.742,80.084,2.152,68.746,4.421c-11.314,2.273-23.805,58.925-18.12,70.242
		c5.658,11.33-13.612,24.93-19.267,30.597c-5.654,5.675-10.2,21.535-5.654,26.055c3.39,9.07-1.148,37.394-1.148,37.394
		S4.184,186.85,5.304,194.773c-9.057,5.654,1.143,23.808,13.604,28.337c12.451,4.52,21.531,11.317,24.912,11.317
		c3.398,0-1.113,14.716-5.651,17.006c-4.533,2.265-28.346,26.046-32.866,26.046c-4.545,0-7.927,27.198,6.815,26.064
		c14.712-1.13,28.32-18.119,28.32-18.119s13.594,13.59,28.307,10.187c-9.045,22.661-18.145,81.576-2.27,121.24
		c15.872,39.658,14.747,44.182,13.607,63.436c-1.134,19.275-5.658,57.803-1.134,70.273c4.529,12.451,9.083,156.334,1.134,169.938
		c-7.922,13.595-13.589,37.403-18.123,40.793c-4.529,3.407-22.669,20.401-11.334,29.458c5.658,11.351,19.266,6.823,22.648,3.416
		c12.494,1.121,22.673-1.148,31.726-6.806c9.075-5.667,12.486-44.209,17.003-49.867c4.546-5.655,2.264-30.597,2.264-35.121
		c0-4.52,0-57.761,0-57.761s11.339-121.261,11.339-137.12c0-15.868,6.776-53.266,6.776-53.266s43.091,23.817,63.466,22.674
		c11.339,20.392,15.877,32.853,13.613,38.516c-2.274,5.693-7.923,26.072-7.923,33.982c0,7.945-23.826,80.464-30.606,88.405
		c-6.806,7.923-11.325,19.262-10.191,24.93c1.122,5.65-12.473,75.875-20.413,82.698c-7.945,6.806-10.188,26.068,0,24.93
		c6.814,17.002,24.938,5.675,24.938,5.675c12.447,2.252,21.518-6.797,21.518-6.797c10.2-4.538,14.755-18.132,13.603-22.67
		c-1.13-4.529,2.269-53.253,3.399-58.92c1.139-5.658,9.07-29.45,7.94-35.13c-1.152-5.659,32.836-98.562,39.646-105.363
		c6.802-6.806,29.45,1.134,35.117,12.461c5.658,11.335-1.117,67.983-4.512,78.187c-3.416,10.188-5.676,14.716-5.676,21.518
		c0,6.818-6.78,44.196-14.725,50.989c-7.937,6.81,0,18.14,9.061,14.738c11.339,3.402,19.232-2.273,22.662-6.811
		c11.33-3.39,20.379-20.383,19.262-24.921c-1.126-4.533,10.196-22.656,9.066-26.068c-1.143-3.407,4.52-75.922,6.785-92.907
		c2.273-16.998,13.603-46.46-3.399-55.527c-16.997-9.061-46.451-29.441-41.914-37.39c4.537-7.927,37.385-43.043,47.586-50.988
		c10.205-7.937,41.927-18.106,44.196-5.664c0,0,56.648,73.65,61.167,84.981c4.555,11.321,46.477,39.644,53.267,46.45
		c6.788,6.811,16.993,75.932,16.993,79.33c0,3.377,4.529,9.079,4.529,9.079s0,15.833,0,26.047c0,10.196,13.603,10.196,13.603,10.196
		s4.529,4.529,14.733-1.139c10.196,1.13,4.538-4.521,13.612-11.336C570.686,668.379,565.018,641.181,561.628,632.133z
		 M349.305,195.644c8.216-29.484,22.303-45.512,45.761-42.798c20.797,2.406,9.403,40.366-4.676,64.89
		c-10.015-7.539-20.715-13.763-31.584-18.434C355.857,198.038,352.66,196.821,349.305,195.644z"></path>
</g>
</svg>
